SplineFontDB: 1.0
FontName: DejaVuSansCondensed-Bold
FullName: DejaVu Sans Condensed Bold
FamilyName: DejaVu Sans Condensed
Weight: Bold
Copyright: Copyright (c) 2003 by Bitstream, Inc. All Rights Reserved.\nDejaVu changes are in public domain\n
Version: 1.7
ItalicAngle: 0
UnderlinePosition: -227
UnderlineWidth: 258
Ascent: 1556
Descent: 492
Order2: 1
NeedsXUIDChange: 1
FSType: 4
PfmFamily: 17
TTFWeight: 700
TTFWidth: 5
Panose: 2 11 8 6 3 6 4 2 2 4
LineGap: 410
VLineGap: 0
OS2TypoAscent: 1556
OS2TypoDescent: -492
OS2TypoLinegap: 0
OS2WinAscent: 1901
OS2WinAOffset: 0
OS2WinDescent: 483
OS2WinDOffset: 0
HheadAscent: 1901
HheadAOffset: 0
HheadDescent: -483
HheadDOffset: 0
ScriptLang: 2
 1 latn 1 dflt 
 1 DFLT 1 dflt 
TtfTable: prep 1959
6%f;i!@@gG!!<6J!"f25!@.[h!'1)`!@.[A!!<6H!#>P:!?qOf!'1)`!?qOC!!<6F!'1)^!?_C=
!!<6D!4r45!?M5O!!<6B!<)s#!?;(W!!<6@!$2+B!?(t;!!<6>!<)s#!>kh9!!<6<!<)s#!>Y\7
!!<6:!>GMD!!NB<!<)s#!>GMD!!<68!<)s#!>5D3!!<64!=f*X!!NB6!<)s#!=f*X!!<62!=Sse
!!NB4!<)s#!=]%E!!E<2!=Jm1!!NB3!/pm[!=SsY!!E<1!=AfR!!NB2!*K:(!=Jlm!!E<0!%%[J
!=8c*!!<6-!<)s#!=&T5!!<6,!.Y%P!=#ir/d4NS!<rQ#!!<6*!;ZZt!<`E%!!<6(!#Yb=!<N8t
!!<6&!;ZZt!<>CbI09L5"9/9%r;/#Kr;Hfq/-GbJ"8V^^"o3QKpdYG\q?-Hj"82Wqo_nsa]*%X'
"7c?mnGWOY*Wtj0"7>F^"mu9klj<j]5QpE<$3f`N"6p3ql1tMGOVS,arWD?["6TF^jcL;^jo,AC
rWD3["60:^iVir;rWD'W"5`kVh:rhNh.-WC(^&Nc*X1;/"5;ES"kreTfd-aQd3StKq?,@#'F!)(
"4l!6"kF@ieIVi4dgH?/+9U(#"4GRC"k*5Ld?,1Jd3SnAPRI`B,6Q9;'Euf0"4#.("jReabn:-&
OVS,E*<XJ!"3S`t"j6fHaiI`kah%YsJ-<qYs2QDhaB\nh5Qo+R"31<B`FK(hO:VT6rWC%X"2b$>
_>XPP^H)P6q?+L7)[3u;"2;Ge"hl_o]t=p\]c%!c]+5(X&HfYV$jF6R"1emC\WIX2\c)]@rWBVE
"1AgE[Jg98rWBM+"0r^FYo*YJ('CbB)[3GA"0SaF"g7\(XcXA&XW%ADOVS,%I06PL"0*[MWW!!u
rWB(t"/c&"V$[=#rWApi%L&X,"/68-U-JjTTH491q?*CQ('U?P".t\k"eYVnSs0WeSf@j'rWA[[
]*4`(".P`b"e3++Rt(X1O!Osu>m$N\"I]5kR$TE/R/R2S/d%E%('U!F5lUqOPRI_\+9Ri:"-\i_
"d;R]P*$L`P5YQGO:VSX('BX0"-4`1NrB-?rWA,Y",m-\MZ*^7rW@t3,mB,(",A0)LAh:/rW@g/
"+umAK)Pk'rW@Zg"+LX[If9FtrW@QI"+0kHHMR_hrW@@fV?M2C"*UODF`\Q+Fnu2^)Zt0X"*/el

StartChar: .notdef
Encoding: 0 -1 0
Width: 1167
Flags: HW
Fore
153.2 -362 m 1,0,-1
 153.2 1444 l 1,1,-1
 1074.8 1444 l 1,2,-1
 1074.8 -362 l 1,3,-1
 153.2 -362 l 1,0,-1
256.7 -248 m 1,4,-1
 972.2 -248 l 1,5,-1
 972.2 1329 l 1,6,-1
 256.7 1329 l 1,7,-1
 256.7 -248 l 1,4,-1
EndSplineSet
EndChar
StartChar: exclam
Encoding: 33 33 4
Width: 887
Flags: HW
Fore
305 1493 m 1,0,-1
 629 1493 l 1,1,-1
 629 920 l 1,2,-1
 583.1 502 l 1,3,-1
 350.9 502 l 1,4,-1
 305 920 l 1,5,-1
 305 1493 l 1,0,-1
305 356 m 1,6,-1
 629 356 l 1,7,-1
 629 0 l 1,8,-1
 305 0 l 1,9,-1
 305 356 l 1,6,-1
EndSplineSet
EndChar
StartChar: quotedbl
Encoding: 34 34 5
Width: 1013
Flags: HW
Fore
838.15 1493 m 1,0,-1
 838.15 938 l 1,1,-1
 624.85 938 l 1,2,-1
 624.85 1493 l 1,3,-1
 838.15 1493 l 1,0,-1
442.15 1493 m 1,4,-1
 442.15 938 l 1,5,-1
 228.85 938 l 1,6,-1
 228.85 1493 l 1,7,-1
 442.15 1493 l 1,4,-1
EndSplineSet
EndChar
StartChar: numbersign
Encoding: 35 35 6
Width: 1630
Flags: HW
Fore
905.7 1470 m 1,0,-1
 819.3 1085 l 1,1,-1
 1056.9 1085 l 1,2,-1
 1144.2 1470 l 1,3,-1
 1343.1 1470 l 1,4,-1
 1255.8 1085 l 1,5,-1
 1505.1 1085 l 1,6,-1
 1505.1 872 l 1,7,-1
 1208.1 872 l 1,8,-1
 1146 598 l 1,9,-1
 1401.6 598 l 1,10,-1
 1401.6 383 l 1,11,-1
 1099.2 383 l 1,12,-1
 1012.8 0 l 1,13,-1
 813.9 0 l 1,14,-1
 900.3 383 l 1,15,-1
 662.7 383 l 1,16,-1
 576.3 0 l 1,17,-1
 375.6 0 l 1,18,-1
 462 383 l 1,19,-1
 210.9 383 l 1,20,-1
 210.9 598 l 1,21,-1
 506.1 598 l 1,22,-1
 569.1 872 l 1,23,-1
 314.4 872 l 1,24,-1
 314.4 1085 l 1,25,-1
 618.6 1085 l 1,26,-1
 705 1470 l 1,27,-1
 905.7 1470 l 1,0,-1
1007.4 872 m 1,28,-1
 769.8 872 l 1,29,-1
 706.8 598 l 1,30,-1
 944.4 598 l 1,31,-1
 1007.4 872 l 1,28,-1
EndSplineSet
EndChar
StartChar: dollar
Encoding: 36 36 7
Width: 1354
Flags: HW
Fore
787.8 -301 m 1,0,-1
 642 -301 l 1,1,-1
 641.1 0 l 1,2,3
 528.6 5 528.6 5 423.3 28 c 128,-1,4
 318 51 318 51 218.1 92 c 1,5,-1
 218.1 354 l 1,6,7
 321.6 295 321.6 295 427.35 263.5 c 128,-1,8
 533.1 232 533.1 232 642 228 c 1,9,-1
 642 539 l 1,10,-1
 612.3 545 l 2,11,12
 397.2 587 397.2 587 306.75 677 c 128,-1,13
 216.3 767 216.3 767 216.3 936 c 0,14,15
 216.3 1115 216.3 1115 326.55 1215.5 c 128,-1,16
 436.8 1316 436.8 1316 641.1 1325 c 1,17,-1
 642 1556 l 1,18,-1
 787.8 1556 l 1,19,-1
 787.8 1329 l 1,20,21
 877.8 1321 877.8 1321 967.8 1304 c 128,-1,22
 1057.8 1287 1057.8 1287 1148.7 1260 c 1,23,-1
 1148.7 1006 l 1,24,25
 1058.7 1048 1058.7 1048 968.7 1071.5 c 128,-1,26
 878.7 1095 878.7 1095 787.8 1100 c 1,27,-1
 787.8 813 l 1,28,-1
 816.6 807 l 2,29,30
 1045.2 767 1045.2 767 1137.45 673.5 c 128,-1,31
 1229.7 580 1229.7 580 1229.7 397 c 0,32,33
 1229.7 213 1229.7 213 1119.9 114.5 c 128,-1,34
 1010.1 16 1010.1 16 787.8 2 c 1,35,-1
 787.8 -301 l 1,0,-1
642 836 m 1,36,-1
 642 1097 l 1,37,38
 578.1 1093 578.1 1093 539.85 1058.5 c 128,-1,39
 501.6 1024 501.6 1024 501.6 971 c 0,40,41
 501.6 912 501.6 912 536.7 878.5 c 128,-1,42
 571.8 845 571.8 845 642 836 c 1,36,-1
787.8 510 m 1,43,-1
 787.8 232 l 1,44,45
 866.1 233 866.1 233 905.25 266 c 128,-1,46
 944.4 299 944.4 299 944.4 365 c 0,47,48
 944.4 433 944.4 433 908.4 466.5 c 128,-1,49
 872.4 500 872.4 500 787.8 510 c 1,43,-1
EndSplineSet
EndChar
StartChar: percent
Encoding: 37 37 8
Width: 1949
Flags: HW
Fore
1530.95 616 m 0,0,1
 1467.05 616 1467.05 616 1431.95 554.5 c 128,-1,2
 1396.85 493 1396.85 493 1396.85 379 c 0,3,4
 1396.85 264 1396.85 264 1431.5 202.5 c 128,-1,5
 1466.15 141 1466.15 141 1530.95 141 c 0,6,7
 1595.75 141 1595.75 141 1629.95 202.5 c 128,-1,8
 1664.15 264 1664.15 264 1664.15 379 c 0,9,10
 1664.15 493 1664.15 493 1629.5 554.5 c 128,-1,11
 1594.85 616 1594.85 616 1530.95 616 c 0,0,1
1530.95 784 m 0,12,13
 1698.35 784 1698.35 784 1794.65 676 c 128,-1,14
 1890.95 568 1890.95 568 1890.95 379 c 0,15,16
 1890.95 190 1890.95 190 1794.65 80.5 c 128,-1,17
 1698.35 -29 1698.35 -29 1530.95 -29 c 0,18,19
 1363.55 -29 1363.55 -29 1266.8 80.5 c 128,-1,20
 1170.05 190 1170.05 190 1170.05 379 c 0,21,22
 1170.05 567 1170.05 567 1266.8 675.5 c 128,-1,23
 1363.55 784 1363.55 784 1530.95 784 c 0,12,13
705.65 -29 m 1,24,-1
 506.75 -29 l 1,25,-1
 1346.45 1520 l 1,26,-1
 1546.25 1520 l 1,27,-1
 705.65 -29 l 1,24,-1
521.15 1520 m 0,28,29
 688.55 1520 688.55 1520 784.4 1411.5 c 128,-1,30
 880.25 1303 880.25 1303 880.25 1114 c 0,31,32
 880.25 925 880.25 925 784.4 816 c 128,-1,33
 688.55 707 688.55 707 521.15 707 c 0,34,35
 353.75 707 353.75 707 257.9 816 c 128,-1,36
 162.05 925 162.05 925 162.05 1114 c 0,37,38
 162.05 1303 162.05 1303 257.9 1411.5 c 128,-1,39
 353.75 1520 353.75 1520 521.15 1520 c 0,28,29
521.15 1352 m 0,40,41
 456.35 1352 456.35 1352 421.25 1290 c 128,-1,42
 386.15 1228 386.15 1228 386.15 1114 c 0,43,44
 386.15 999 386.15 999 421.25 936.5 c 128,-1,45
 456.35 874 456.35 874 521.15 874 c 0,46,47
 585.95 874 585.95 874 620.6 936.5 c 128,-1,48
 655.25 999 655.25 999 655.25 1114 c 0,49,50
 655.25 1228 655.25 1228 620.15 1290 c 128,-1,51
 585.05 1352 585.05 1352 521.15 1352 c 0,40,41
EndSplineSet
EndChar
StartChar: ampersand
Encoding: 38 38 9
Width: 1698
Flags: HW
Fore
810.25 991 m 2,0,-1
 1178.35 541 l 1,1,2
 1226.05 611 1226.05 611 1250.8 698 c 128,-1,3
 1275.55 785 1275.55 785 1280.05 895 c 1,4,-1
 1559.95 895 l 1,5,6
 1546.45 713 1546.45 713 1496.5 571 c 128,-1,7
 1446.55 429 1446.55 429 1357.45 322 c 1,8,-1
 1621.15 0 l 1,9,-1
 1239.55 0 l 1,10,-1
 1151.35 109 l 1,11,12
 1056.85 39 1056.85 39 952.45 5 c 128,-1,13
 848.05 -29 848.05 -29 731.05 -29 c 0,14,15
 494.35 -29 494.35 -29 348.1 109.5 c 128,-1,16
 201.85 248 201.85 248 201.85 467 c 0,17,18
 201.85 613 201.85 613 266.2 725.5 c 128,-1,19
 330.55 838 330.55 838 476.35 944 c 1,20,21
 438.55 997 438.55 997 420.55 1050 c 128,-1,22
 402.55 1103 402.55 1103 402.55 1161 c 0,23,24
 402.55 1324 402.55 1324 516.85 1422 c 128,-1,25
 631.15 1520 631.15 1520 821.05 1520 c 0,26,27
 902.95 1520 902.95 1520 991.6 1505.5 c 128,-1,28
 1080.25 1491 1080.25 1491 1176.55 1462 c 1,29,-1
 1176.55 1184 l 1,30,31
 1091.95 1232 1091.95 1232 1016.35 1255 c 128,-1,32
 940.75 1278 940.75 1278 868.75 1278 c 0,33,34
 799.45 1278 799.45 1278 761.2 1248.5 c 128,-1,35
 722.95 1219 722.95 1219 722.95 1165 c 0,36,37
 722.95 1131 722.95 1131 745 1087.5 c 128,-1,38
 767.05 1044 767.05 1044 810.25 991 c 2,0,-1
631.15 743 m 1,39,40
 572.65 696 572.65 696 542.95 636.5 c 128,-1,41
 513.25 577 513.25 577 513.25 506 c 0,42,43
 513.25 391 513.25 391 589.75 310 c 128,-1,44
 666.25 229 666.25 229 773.35 229 c 0,45,46
 833.65 229 833.65 229 885.85 249.5 c 128,-1,47
 938.05 270 938.05 270 983.05 311 c 1,48,-1
 631.15 743 l 1,39,40
EndSplineSet
EndChar
StartChar: quotesingle
Encoding: 39 39 10
Width: 595
Flags: HW
Fore
420.15 1493 m 1,0,-1
 420.15 938 l 1,1,-1
 206.85 938 l 1,2,-1
 206.85 1493 l 1,3,-1
 420.15 1493 l 1,0,-1
EndSplineSet
EndChar
StartChar: parenleft
Encoding: 40 40 11
Width: 889
Flags: HW
Fore
742.2 -270 m 1,0,-1
 474.9 -270 l 1,1,2
 337.2 -23 337.2 -23 271.5 199.5 c 128,-1,3
 205.8 422 205.8 422 205.8 641 c 0,4,5
 205.8 860 205.8 860 271.95 1084.5 c 128,-1,6
 338.1 1309 338.1 1309 474.9 1554 c 1,7,-1
 742.2 1554 l 1,8,9
 627 1317 627 1317 569.4 1090.5 c 128,-1,10
 511.8 864 511.8 864 511.8 643 c 0,11,12
 511.8 422 511.8 422 568.95 195 c 128,-1,13
 626.1 -32 626.1 -32 742.2 -270 c 1,0,-1
EndSplineSet
EndChar
StartChar: parenright
Encoding: 41 41 12
Width: 888
Flags: HW
Fore
193.8 -270 m 1,0,1
 309 -32 309 -32 366.6 195 c 128,-1,2
 424.2 422 424.2 422 424.2 643 c 0,3,4
 424.2 864 424.2 864 366.6 1090.5 c 128,-1,5
 309 1317 309 1317 193.8 1554 c 1,6,-1
 461.1 1554 l 1,7,8
 597.9 1309 597.9 1309 664.05 1084.5 c 128,-1,9
 730.2 860 730.2 860 730.2 641 c 0,10,11
 730.2 422 730.2 422 664.5 199.5 c 128,-1,12
 598.8 -23 598.8 -23 461.1 -270 c 1,13,-1
 193.8 -270 l 1,0,1
EndSplineSet
EndChar
StartChar: asterisk
Encoding: 42 42 13
Width: 1017
Flags: HW
Fore
980.55 1217 m 1,0,-1
 683.55 1044 l 1,1,-1
 980.55 870 l 1,2,-1
 912.15 729 l 1,3,-1
 612.45 913 l 1,4,-1
 612.45 569 l 1,5,-1
 459.45 569 l 1,6,-1
 459.45 913 l 1,7,-1
 158.85 729 l 1,8,-1
 90.4502 870 l 1,9,-1
 391.05 1044 l 1,10,-1
 90.4502 1217 l 1,11,-1
 158.85 1358 l 1,12,-1
 459.45 1176 l 1,13,-1
 459.45 1520 l 1,14,-1
 612.45 1520 l 1,15,-1
 612.45 1176 l 1,16,-1
 912.15 1358 l 1,17,-1
 980.55 1217 l 1,0,-1
EndSplineSet
EndChar
StartChar: plus
Encoding: 43 43 14
Width: 1630
Flags: HW
Fore
965.1 1284 m 1,0,-1
 965.1 760 l 1,1,-1
 1434.9 760 l 1,2,-1
 1434.9 524 l 1,3,-1
 965.1 524 l 1,4,-1
 965.1 0 l 1,5,-1
 750.9 0 l 1,6,-1
 750.9 524 l 1,7,-1
 281.1 524 l 1,8,-1
 281.1 760 l 1,9,-1
 750.9 760 l 1,10,-1
 750.9 1284 l 1,11,-1
 965.1 1284 l 1,0,-1
EndSplineSet
EndChar
StartChar: comma
Encoding: 44 44 15
Width: 734
Flags: HW
Fore
222 387 m 1,0,-1
 546 387 l 1,1,-1
 546 82 l 1,2,-1
 323.7 -291 l 1,3,-1
 132 -291 l 1,4,-1
 222 82 l 1,5,-1
 222 387 l 1,0,-1
EndSplineSet
EndChar
StartChar: hyphen
Encoding: 45 45 16
Width: 807
Flags: HW
Fore
142.4 735 m 1,0,-1
 707.6 735 l 1,1,-1
 707.6 444 l 1,2,-1
 142.4 444 l 1,3,-1
 142.4 735 l 1,0,-1
EndSplineSet
KernsSLIF: 356 -301 0 0 221 -301 0 0 376 -301 0 0 89 -301 0 0 88 -167 0 0 87 -92 0 0 86 -149 0 0 84 -301 0 0
EndChar
StartChar: period
Encoding: 46 46 17
Width: 739
Flags: HW
Fore
227 387 m 1,0,-1
 551 387 l 1,1,-1
 551 0 l 1,2,-1
 227 0 l 1,3,-1
 227 387 l 1,0,-1
EndSplineSet
EndChar
StartChar: slash
Encoding: 47 47 18
Width: 710
Flags: HW
Fore
510.8 1493 m 1,0,-1
 710.6 1493 l 1,1,-1
 236.3 -190 l 1,2,-1
 37.4004 -190 l 1,3,-1
 510.8 1493 l 1,0,-1
EndSplineSet
EndChar
StartChar: zero
Encoding: 48 48 19
Width: 1353
Flags: HW
Fore
919.05 748 m 0,0,1
 919.05 1028 919.05 1028 871.8 1142.5 c 128,-1,2
 824.55 1257 824.55 1257 712.95 1257 c 0,3,4
 601.35 1257 601.35 1257 553.65 1142.5 c 128,-1,5
 505.95 1028 505.95 1028 505.95 748 c 0,6,7
 505.95 465 505.95 465 553.65 349 c 128,-1,8
 601.35 233 601.35 233 712.95 233 c 0,9,10
 823.65 233 823.65 233 871.35 349 c 128,-1,11
 919.05 465 919.05 465 919.05 748 c 0,0,1
1265.55 745 m 0,12,13
 1265.55 374 1265.55 374 1121.55 172.5 c 128,-1,14
 977.55 -29 977.55 -29 712.95 -29 c 0,15,16
 447.45 -29 447.45 -29 303.45 172.5 c 128,-1,17
 159.45 374 159.45 374 159.45 745 c 0,18,19
 159.45 1117 159.45 1117 303.45 1318.5 c 128,-1,20
 447.45 1520 447.45 1520 712.95 1520 c 0,21,22
 977.55 1520 977.55 1520 1121.55 1318.5 c 128,-1,23
 1265.55 1117 1265.55 1117 1265.55 745 c 0,12,13
EndSplineSet
EndChar
StartChar: one
Encoding: 49 49 20
Width: 1358
Flags: HW
Fore
291.75 266 m 1,0,-1
 597.75 266 l 1,1,-1
 597.75 1231 l 1,2,-1
 283.65 1159 l 1,3,-1
 283.65 1421 l 1,4,-1
 595.95 1493 l 1,5,-1
 925.35 1493 l 1,6,-1
 925.35 266 l 1,7,-1
 1231.35 266 l 1,8,-1
 1231.35 0 l 1,9,-1
 291.75 0 l 1,10,-1
 291.75 266 l 1,0,-1
EndSplineSet
EndChar
StartChar: two
Encoding: 50 50 21
Width: 1352
Flags: HW
Fore
601.45 283 m 1,0,-1
 1192.75 283 l 1,1,-1
 1192.75 0 l 1,2,-1
 216.25 0 l 1,3,-1
 216.25 283 l 1,4,-1
 706.75 764 l 1,5,6
 772.45 830 772.45 830 803.95 893 c 128,-1,7
 835.45 956 835.45 956 835.45 1024 c 0,8,9
 835.45 1129 835.45 1129 772 1193 c 128,-1,10
 708.55 1257 708.55 1257 603.25 1257 c 0,11,12
 522.25 1257 522.25 1257 425.95 1218.5 c 128,-1,13
 329.65 1180 329.65 1180 219.85 1104 c 1,14,-1
 219.85 1432 l 1,15,16
 336.85 1475 336.85 1475 451.15 1497.5 c 128,-1,17
 565.45 1520 565.45 1520 675.25 1520 c 0,18,19
 916.45 1520 916.45 1520 1050.1 1402 c 128,-1,20
 1183.75 1284 1183.75 1284 1183.75 1073 c 0,21,22
 1183.75 951 1183.75 951 1127.05 845.5 c 128,-1,23
 1070.35 740 1070.35 740 888.55 563 c 2,24,-1
 601.45 283 l 1,0,-1
EndSplineSet
EndChar
StartChar: three
Encoding: 51 51 22
Width: 1352
Flags: HW
Fore
928.55 805 m 1,0,1
 1064.45 766 1064.45 766 1135.1 669.5 c 128,-1,2
 1205.75 573 1205.75 573 1205.75 424 c 0,3,4
 1205.75 202 1205.75 202 1052.75 86.5 c 128,-1,5
 899.75 -29 899.75 -29 606.35 -29 c 0,6,7
 502.85 -29 502.85 -29 398.9 -10.5 c 128,-1,8
 294.95 8 294.95 8 193.25 45 c 1,9,-1
 193.25 342 l 1,10,11
 290.45 288 290.45 288 386.3 260.5 c 128,-1,12
 482.15 233 482.15 233 574.85 233 c 0,13,14
 712.55 233 712.55 233 785.9 286 c 128,-1,15
 859.25 339 859.25 339 859.25 438 c 0,16,17
 859.25 540 859.25 540 784.1 592.5 c 128,-1,18
 708.95 645 708.95 645 562.25 645 c 2,19,-1
 423.65 645 l 1,20,-1
 423.65 893 l 1,21,-1
 569.45 893 l 2,22,23
 699.95 893 699.95 893 763.85 938.5 c 128,-1,24
 827.75 984 827.75 984 827.75 1077 c 0,25,26
 827.75 1163 827.75 1163 765.65 1210 c 128,-1,27
 703.55 1257 703.55 1257 590.15 1257 c 0,28,29
 506.45 1257 506.45 1257 420.95 1236 c 128,-1,30
 335.45 1215 335.45 1215 250.85 1174 c 1,31,-1
 250.85 1456 l 1,32,33
 353.45 1488 353.45 1488 454.25 1504 c 128,-1,34
 555.05 1520 555.05 1520 652.25 1520 c 0,35,36
 914.15 1520 914.15 1520 1044.2 1424.5 c 128,-1,37
 1174.25 1329 1174.25 1329 1174.25 1137 c 0,38,39
 1174.25 1006 1174.25 1006 1112.15 922.5 c 128,-1,40
 1050.05 839 1050.05 839 928.55 805 c 1,0,1
EndSplineSet
EndChar
StartChar: four
Encoding: 52 52 23
Width: 1353
Flags: HW
Fore
749.75 1176 m 1,0,-1
 369.95 551 l 1,1,-1
 749.75 551 l 1,2,-1
 749.75 1176 l 1,0,-1
692.15 1493 m 1,3,-1
 1077.35 1493 l 1,4,-1
 1077.35 551 l 1,5,-1
 1269.05 551 l 1,6,-1
 1269.05 272 l 1,7,-1
 1077.35 272 l 1,8,-1
 1077.35 0 l 1,9,-1
 749.75 0 l 1,10,-1
 749.75 272 l 1,11,-1
 153.95 272 l 1,12,-1
 153.95 602 l 1,13,-1
 692.15 1493 l 1,3,-1
EndSplineSet
EndChar
StartChar: five
Encoding: 53 53 24
Width: 1354
Flags: HW
Fore
267.3 1493 m 1,0,-1
 1128.6 1493 l 1,1,-1
 1128.6 1210 l 1,2,-1
 543.6 1210 l 1,3,-1
 543.6 979 l 1,4,5
 583.2 991 583.2 991 623.25 997.5 c 128,-1,6
 663.3 1004 663.3 1004 706.5 1004 c 0,7,8
 952.2 1004 952.2 1004 1089 867.5 c 128,-1,9
 1225.8 731 1225.8 731 1225.8 487 c 0,10,11
 1225.8 245 1225.8 245 1076.85 108 c 128,-1,12
 927.9 -29 927.9 -29 663.3 -29 c 0,13,14
 549 -29 549 -29 436.95 -4.5 c 128,-1,15
 324.9 20 324.9 20 214.2 70 c 1,16,-1
 214.2 373 l 1,17,18
 324 303 324 303 422.55 268 c 128,-1,19
 521.1 233 521.1 233 608.4 233 c 0,20,21
 734.4 233 734.4 233 806.85 301.5 c 128,-1,22
 879.3 370 879.3 370 879.3 487 c 0,23,24
 879.3 605 879.3 605 806.85 673 c 128,-1,25
 734.4 741 734.4 741 608.4 741 c 0,26,27
 533.7 741 533.7 741 449.1 719.5 c 128,-1,28
 364.5 698 364.5 698 267.3 653 c 1,29,-1
 267.3 1493 l 1,0,-1
EndSplineSet
EndChar
StartChar: six
Encoding: 54 54 25
Width: 1354
Flags: HW
Fore
739 737 m 0,0,1
 648.1 737 648.1 737 602.65 671.5 c 128,-1,2
 557.2 606 557.2 606 557.2 475 c 0,3,4
 557.2 344 557.2 344 602.65 278.5 c 128,-1,5
 648.1 213 648.1 213 739 213 c 0,6,7
 830.8 213 830.8 213 876.25 278.5 c 128,-1,8
 921.7 344 921.7 344 921.7 475 c 0,9,10
 921.7 606 921.7 606 876.25 671.5 c 128,-1,11
 830.8 737 830.8 737 739 737 c 0,0,1
1167.4 1454 m 1,12,-1
 1167.4 1178 l 1,13,14
 1081.9 1223 1081.9 1223 1006.3 1244.5 c 128,-1,15
 930.7 1266 930.7 1266 858.7 1266 c 0,16,17
 703.9 1266 703.9 1266 617.5 1170.5 c 128,-1,18
 531.1 1075 531.1 1075 516.7 887 c 1,19,20
 576.1 936 576.1 936 645.4 960.5 c 128,-1,21
 714.7 985 714.7 985 796.6 985 c 0,22,23
 1002.7 985 1002.7 985 1129.15 851 c 128,-1,24
 1255.6 717 1255.6 717 1255.6 500 c 0,25,26
 1255.6 260 1255.6 260 1114.3 115.5 c 128,-1,27
 973 -29 973 -29 735.4 -29 c 0,28,29
 473.5 -29 473.5 -29 329.95 167.5 c 128,-1,30
 186.4 364 186.4 364 186.4 725 c 0,31,32
 186.4 1095 186.4 1095 354.25 1306.5 c 128,-1,33
 522.1 1518 522.1 1518 814.6 1518 c 0,34,35
 907.3 1518 907.3 1518 994.6 1502 c 128,-1,36
 1081.9 1486 1081.9 1486 1167.4 1454 c 1,12,-1
EndSplineSet
EndChar
StartChar: seven
Encoding: 55 55 26
Width: 1352
Flags: HW
Fore
193.25 1493 m 1,0,-1
 1205.75 1493 l 1,1,-1
 1205.75 1276 l 1,2,-1
 681.95 0 l 1,3,-1
 344.45 0 l 1,4,-1
 840.35 1210 l 1,5,-1
 193.25 1210 l 1,6,-1
 193.25 1493 l 1,0,-1
EndSplineSet
EndChar
StartChar: eight
Encoding: 56 56 27
Width: 1353
Flags: HW
Fore
712.85 668 m 0,0,1
 615.65 668 615.65 668 563.45 609 c 128,-1,2
 511.25 550 511.25 550 511.25 440 c 0,3,4
 511.25 330 511.25 330 563.45 271.5 c 128,-1,5
 615.65 213 615.65 213 712.85 213 c 0,6,7
 809.15 213 809.15 213 860.45 271.5 c 128,-1,8
 911.75 330 911.75 330 911.75 440 c 0,9,10
 911.75 551 911.75 551 860.45 609.5 c 128,-1,11
 809.15 668 809.15 668 712.85 668 c 0,0,1
459.95 795 m 1,12,13
 337.55 836 337.55 836 275.45 921 c 128,-1,14
 213.35 1006 213.35 1006 213.35 1133 c 0,15,16
 213.35 1322 213.35 1322 340.25 1421 c 128,-1,17
 467.15 1520 467.15 1520 712.85 1520 c 0,18,19
 956.75 1520 956.75 1520 1083.65 1421.5 c 128,-1,20
 1210.55 1323 1210.55 1323 1210.55 1133 c 0,21,22
 1210.55 1006 1210.55 1006 1148 921 c 128,-1,23
 1085.45 836 1085.45 836 963.05 795 c 1,24,25
 1099.85 753 1099.85 753 1169.6 658.5 c 128,-1,26
 1239.35 564 1239.35 564 1239.35 420 c 0,27,28
 1239.35 198 1239.35 198 1106.6 84.5 c 128,-1,29
 973.85 -29 973.85 -29 712.85 -29 c 0,30,31
 450.95 -29 450.95 -29 317.3 84.5 c 128,-1,32
 183.65 198 183.65 198 183.65 420 c 0,33,34
 183.65 564 183.65 564 253.4 658.5 c 128,-1,35
 323.15 753 323.15 753 459.95 795 c 1,12,13
540.95 1094 m 0,36,37
 540.95 1005 540.95 1005 585.5 957 c 128,-1,38
 630.05 909 630.05 909 712.85 909 c 0,39,40
 793.85 909 793.85 909 837.95 957 c 128,-1,41
 882.05 1005 882.05 1005 882.05 1094 c 0,42,43
 882.05 1183 882.05 1183 837.95 1230.5 c 128,-1,44
 793.85 1278 793.85 1278 712.85 1278 c 0,45,46
 630.05 1278 630.05 1278 585.5 1230 c 128,-1,47
 540.95 1182 540.95 1182 540.95 1094 c 0,36,37
EndSplineSet
EndChar
StartChar: nine
Encoding: 57 57 28
Width: 1352
Flags: HW
Fore
254.5 33 m 1,0,-1
 254.5 309 l 1,1,2
 337.3 266 337.3 266 412.9 244.5 c 128,-1,3
 488.5 223 488.5 223 562.3 223 c 0,4,5
 717.1 223 717.1 223 803.5 318.5 c 128,-1,6
 889.9 414 889.9 414 905.2 602 c 1,7,8
 844 552 844 552 774.7 527 c 128,-1,9
 705.4 502 705.4 502 624.4 502 c 0,10,11
 418.3 502 418.3 502 291.85 635.5 c 128,-1,12
 165.4 769 165.4 769 165.4 987 c 0,13,14
 165.4 1228 165.4 1228 306.25 1373 c 128,-1,15
 447.1 1518 447.1 1518 683.8 1518 c 0,16,17
 946.6 1518 946.6 1518 1090.6 1321 c 128,-1,18
 1234.6 1124 1234.6 1124 1234.6 764 c 0,19,20
 1234.6 394 1234.6 394 1066.3 182.5 c 128,-1,21
 898 -29 898 -29 604.6 -29 c 0,22,23
 510.1 -29 510.1 -29 423.7 -13.5 c 128,-1,24
 337.3 2 337.3 2 254.5 33 c 1,0,-1
682 752 m 0,25,26
 772.9 752 772.9 752 818.8 817.5 c 128,-1,27
 864.7 883 864.7 883 864.7 1014 c 0,28,29
 864.7 1144 864.7 1144 818.8 1210 c 128,-1,30
 772.9 1276 772.9 1276 682 1276 c 0,31,32
 591.1 1276 591.1 1276 545.2 1210 c 128,-1,33
 499.3 1144 499.3 1144 499.3 1014 c 0,34,35
 499.3 883 499.3 883 545.2 817.5 c 128,-1,36
 591.1 752 591.1 752 682 752 c 0,25,26
EndSplineSet
EndChar
StartChar: colon
Encoding: 58 58 29
Width: 778
Flags: HW
Fore
247.05 1120 m 1,0,-1
 571.95 1120 l 1,1,-1
 571.95 733 l 1,2,-1
 247.05 733 l 1,3,-1
 247.05 1120 l 1,0,-1
247.05 387 m 1,4,-1
 571.95 387 l 1,5,-1
 571.95 0 l 1,6,-1
 247.05 0 l 1,7,-1
 247.05 387 l 1,4,-1
EndSplineSet
EndChar
StartChar: semicolon
Encoding: 59 59 30
Width: 773
Flags: HW
Fore
242.05 387 m 1,0,-1
 566.95 387 l 1,1,-1
 566.95 82 l 1,2,-1
 343.75 -291 l 1,3,-1
 152.05 -291 l 1,4,-1
 242.05 82 l 1,5,-1
 242.05 387 l 1,0,-1
242.05 1120 m 1,6,-1
 566.95 1120 l 1,7,-1
 566.95 733 l 1,8,-1
 242.05 733 l 1,9,-1
 242.05 1120 l 1,6,-1
EndSplineSet
EndChar
StartChar: less
Encoding: 60 60 31
Width: 1630
Flags: HW
Fore
1434.9 973 m 1,0,-1
 567.3 641 l 1,1,-1
 1434.9 311 l 1,2,-1
 1434.9 61 l 1,3,-1
 281.1 524 l 1,4,-1
 281.1 760 l 1,5,-1
 1434.9 1223 l 1,6,-1
 1434.9 973 l 1,0,-1
EndSplineSet
EndChar
StartChar: equal
Encoding: 61 61 32
Width: 1630
Flags: HW
Fore
281.1 987 m 1,0,-1
 1434.9 987 l 1,1,-1
 1434.9 752 l 1,2,-1
 281.1 752 l 1,3,-1
 281.1 987 l 1,0,-1
281.1 532 m 1,4,-1
 1434.9 532 l 1,5,-1
 1434.9 295 l 1,6,-1
 281.1 295 l 1,7,-1
 281.1 532 l 1,4,-1
EndSplineSet
EndChar
StartChar: greater
Encoding: 62 62 33
Width: 1630
Flags: HW
Fore
281.1 973 m 1,0,-1
 281.1 1223 l 1,1,-1
 1434.9 760 l 1,2,-1
 1434.9 524 l 1,3,-1
 281.1 61 l 1,4,-1
 281.1 311 l 1,5,-1
 1149.6 641 l 1,6,-1
 281.1 973 l 1,0,-1
EndSplineSet
EndChar
StartChar: question
Encoding: 63 63 34
Width: 1129
Flags: HW
Fore
697.9 504 m 1,0,-1
 373 504 l 1,1,-1
 373 553 l 2,2,3
 373 635 373 635 402.7 698.5 c 128,-1,4
 432.4 762 432.4 762 527.8 860 c 2,5,-1
 585.4 918 l 2,6,7
 636.7 970 636.7 970 660.55 1016 c 128,-1,8
 684.4 1062 684.4 1062 684.4 1108 c 0,9,10
 684.4 1178 684.4 1178 641.2 1217.5 c 128,-1,11
 598 1257 598 1257 520.6 1257 c 0,12,13
 447.7 1257 447.7 1257 363.1 1223.5 c 128,-1,14
 278.5 1190 278.5 1190 186.7 1124 c 1,15,-1
 186.7 1438 l 1,16,17
 295.6 1480 295.6 1480 385.6 1500 c 128,-1,18
 475.6 1520 475.6 1520 559.3 1520 c 0,19,20
 778.9 1520 778.9 1520 894.1 1420.5 c 128,-1,21
 1009.3 1321 1009.3 1321 1009.3 1130 c 0,22,23
 1009.3 1032 1009.3 1032 974.2 954.5 c 128,-1,24
 939.1 877 939.1 877 854.5 788 c 1,25,-1
 796.9 731 l 2,26,27
 735.7 669 735.7 669 716.8 631.5 c 128,-1,28
 697.9 594 697.9 594 697.9 549 c 2,29,-1
 697.9 504 l 1,0,-1
373 356 m 1,30,-1
 697.9 356 l 1,31,-1
 697.9 0 l 1,32,-1
 373 0 l 1,33,-1
 373 356 l 1,30,-1
EndSplineSet
EndChar
StartChar: at
Encoding: 64 64 35
Width: 1945
Flags: HW
Fore
849.8 539 m 0,0,1
 849.8 416 849.8 416 897.05 345 c 128,-1,2
 944.3 274 944.3 274 1025.3 274 c 0,3,4
 1105.4 274 1105.4 274 1153.1 345.5 c 128,-1,5
 1200.8 417 1200.8 417 1200.8 539 c 0,6,7
 1200.8 660 1200.8 660 1152.65 730.5 c 128,-1,8
 1104.5 801 1104.5 801 1023.5 801 c 0,9,10
 944.3 801 944.3 801 897.05 730.5 c 128,-1,11
 849.8 660 849.8 660 849.8 539 c 0,0,1
1218.8 238 m 1,12,13
 1191.8 167 1191.8 167 1131.95 127.5 c 128,-1,14
 1072.1 88 1072.1 88 992 88 c 0,15,16
 837.2 88 837.2 88 740.45 212.5 c 128,-1,17
 643.7 337 643.7 337 643.7 537 c 0,18,19
 643.7 737 643.7 737 740.9 862 c 128,-1,20
 838.1 987 838.1 987 992 987 c 0,21,22
 1072.1 987 1072.1 987 1131.95 947 c 128,-1,23
 1191.8 907 1191.8 907 1218.8 836 c 1,24,-1
 1218.8 967 l 1,25,-1
 1406.9 967 l 1,26,-1
 1406.9 274 l 1,27,28
 1518.5 293 1518.5 293 1582.4 393.5 c 128,-1,29
 1646.3 494 1646.3 494 1646.3 651 c 0,30,31
 1646.3 751 1646.3 751 1620.2 838.5 c 128,-1,32
 1594.1 926 1594.1 926 1541 999 c 1,33,34
 1455.5 1121 1455.5 1121 1327.25 1187 c 128,-1,35
 1199 1253 1199 1253 1049.6 1253 c 0,36,37
 945.2 1253 945.2 1253 849.8 1222.5 c 128,-1,38
 754.4 1192 754.4 1192 673.4 1133 c 0,39,40
 540.2 1035 540.2 1035 465.95 879.5 c 128,-1,41
 391.7 724 391.7 724 391.7 543 c 0,42,43
 391.7 394 391.7 394 439.85 263.5 c 128,-1,44
 488 133 488 133 578.9 33 c 0,45,46
 668.9 -65 668.9 -65 785.45 -116.5 c 128,-1,47
 902 -168 902 -168 1034.3 -168 c 0,48,49
 1147.7 -168 1147.7 -168 1261.1 -121 c 128,-1,50
 1374.5 -74 1374.5 -74 1454.6 6 c 1,51,-1
 1550.9 -156 l 1,52,53
 1438.4 -253 1438.4 -253 1305.65 -304.5 c 128,-1,54
 1172.9 -356 1172.9 -356 1036.1 -356 c 0,55,56
 869.6 -356 869.6 -356 722 -290.5 c 128,-1,57
 574.4 -225 574.4 -225 459.2 -100 c 0,58,59
 344 25 344 25 283.7 189.5 c 128,-1,60
 223.4 354 223.4 354 223.4 543 c 0,61,62
 223.4 725 223.4 725 284.6 890 c 128,-1,63
 345.8 1055 345.8 1055 459.2 1180 c 0,64,65
 572.6 1304 572.6 1304 723.35 1372 c 128,-1,66
 874.1 1440 874.1 1440 1036.1 1440 c 0,67,68
 1237.7 1440 1237.7 1440 1402.4 1354.5 c 128,-1,69
 1567.1 1269 1567.1 1269 1677.8 1108 c 0,70,71
 1745.3 1010 1745.3 1010 1779.95 895.5 c 128,-1,72
 1814.6 781 1814.6 781 1814.6 655 c 0,73,74
 1814.6 384 1814.6 384 1667.9 234 c 128,-1,75
 1521.2 84 1521.2 84 1253.9 84 c 2,76,-1
 1218.8 84 l 1,77,-1
 1218.8 238 l 1,12,13
EndSplineSet
EndChar
StartChar: A
Encoding: 65 65 36
Width: 1505
Flags: HW
Fore
1063.85 272 m 1,0,-1
 522.05 272 l 1,1,-1
 436.55 0 l 1,2,-1
 88.25 0 l 1,3,-1
 585.95 1493 l 1,4,-1
 999.05 1493 l 1,5,-1
 1496.75 0 l 1,6,-1
 1148.45 0 l 1,7,-1
 1063.85 272 l 1,0,-1
608.45 549 m 1,8,-1
 976.55 549 l 1,9,-1
 792.95 1143 l 1,10,-1
 608.45 549 l 1,8,-1
EndSplineSet
KernsSLIF: 366 -63 0 0 356 -159 0 0 253 -73 0 0 221 -196 0 0 217 -63 0 0 219 -63 0 0 218 -63 0 0 8222 114 0 0 8218 114 0 0 376 -196 0 0 255 -73 0 0 8217 -188 0 0 8221 -188 0 0 220 -63 0 0 121 -73 0 0 118 -73 0 0 89 -196 0 0 87 -92 0 0 86 -139 0 0 85 -63 0 0 84 -159 0 0 59 38 0 0 58 38 0 0 46 38 0 0 44 38 0 0
EndChar
StartChar: B
Encoding: 66 66 37
Width: 1485
Flags: HW
Fore
787.65 915 m 2,0,1
 869.55 915 869.55 915 911.85 955 c 128,-1,2
 954.15 995 954.15 995 954.15 1073 c 0,3,4
 954.15 1150 954.15 1150 911.85 1190.5 c 128,-1,5
 869.55 1231 869.55 1231 787.65 1231 c 2,6,-1
 595.95 1231 l 1,7,-1
 595.95 915 l 1,8,-1
 787.65 915 l 2,0,1
799.35 262 m 2,9,10
 903.75 262 903.75 262 956.4 311 c 128,-1,11
 1009.05 360 1009.05 360 1009.05 459 c 0,12,13
 1009.05 556 1009.05 556 956.85 604.5 c 128,-1,14
 904.65 653 904.65 653 799.35 653 c 2,15,-1
 595.95 653 l 1,16,-1
 595.95 262 l 1,17,-1
 799.35 262 l 2,9,10
1121.55 799 m 1,18,19
 1233.15 763 1233.15 763 1294.35 666 c 128,-1,20
 1355.55 569 1355.55 569 1355.55 428 c 0,21,22
 1355.55 212 1355.55 212 1224.15 106 c 128,-1,23
 1092.75 0 1092.75 0 824.55 0 c 2,24,-1
 249.45 0 l 1,25,-1
 249.45 1493 l 1,26,-1
 769.65 1493 l 2,27,28
 1049.55 1493 1049.55 1493 1175.1 1399 c 128,-1,29
 1300.65 1305 1300.65 1305 1300.65 1098 c 0,30,31
 1300.65 989 1300.65 989 1254.75 912.5 c 128,-1,32
 1208.85 836 1208.85 836 1121.55 799 c 1,18,19
EndSplineSet
KernsSLIF: 221 -112 0 0 376 -112 0 0 89 -112 0 0 87 -112 0 0 86 -83 0 0
EndChar
StartChar: C
Encoding: 67 67 38
Width: 1426
Flags: HW
Fore
1308.5 82 m 1,0,1
 1213.1 27 1213.1 27 1109.6 -1 c 128,-1,2
 1006.1 -29 1006.1 -29 893.6 -29 c 0,3,4
 557.9 -29 557.9 -29 361.7 179.5 c 128,-1,5
 165.5 388 165.5 388 165.5 745 c 0,6,7
 165.5 1103 165.5 1103 361.7 1311.5 c 128,-1,8
 557.9 1520 557.9 1520 893.6 1520 c 0,9,10
 1006.1 1520 1006.1 1520 1109.6 1492 c 128,-1,11
 1213.1 1464 1213.1 1464 1308.5 1409 c 1,12,-1
 1308.5 1100 l 1,13,14
 1212.2 1173 1212.2 1173 1118.6 1207 c 128,-1,15
 1025 1241 1025 1241 921.5 1241 c 0,16,17
 736.1 1241 736.1 1241 629.9 1109 c 128,-1,18
 523.7 977 523.7 977 523.7 745 c 0,19,20
 523.7 514 523.7 514 629.9 382 c 128,-1,21
 736.1 250 736.1 250 921.5 250 c 0,22,23
 1025 250 1025 250 1118.6 284 c 128,-1,24
 1212.2 318 1212.2 318 1308.5 391 c 1,25,-1
 1308.5 82 l 1,0,1
EndSplineSet
KernsSLIF: 350 38 0 0 352 38 0 0 8217 75 0 0 8221 75 0 0 83 38 0 0 45 47 0 0
EndChar
StartChar: D
Encoding: 68 68 39
Width: 1619
Flags: HW
Fore
604.75 1202 m 1,0,-1
 604.75 291 l 1,1,-1
 728.95 291 l 2,2,3
 941.35 291 941.35 291 1053.4 408 c 128,-1,4
 1165.45 525 1165.45 525 1165.45 748 c 0,5,6
 1165.45 970 1165.45 970 1053.85 1086 c 128,-1,7
 942.25 1202 942.25 1202 728.95 1202 c 2,8,-1
 604.75 1202 l 1,0,-1
258.25 1493 m 1,9,-1
 623.65 1493 l 2,10,11
 929.65 1493 929.65 1493 1079.5 1444.5 c 128,-1,12
 1229.35 1396 1229.35 1396 1336.45 1280 c 0,13,14
 1430.95 1179 1430.95 1179 1476.85 1047 c 128,-1,15
 1522.75 915 1522.75 915 1522.75 748 c 0,16,17
 1522.75 579 1522.75 579 1476.85 446.5 c 128,-1,18
 1430.95 314 1430.95 314 1336.45 213 c 0,19,20
 1228.45 97 1228.45 97 1077.25 48.5 c 128,-1,21
 926.05 0 926.05 0 623.65 0 c 2,22,-1
 258.25 0 l 1,23,-1
 258.25 1493 l 1,9,-1
EndSplineSet
KernsSLIF: 221 -149 0 0 8222 -36 0 0 8218 -36 0 0 376 -149 0 0 89 -149 0 0 45 38 0 0
EndChar
StartChar: E
Encoding: 69 69 40
Width: 1330
Flags: HW
Fore
241.05 1493 m 1,0,-1
 1176.15 1493 l 1,1,-1
 1176.15 1202 l 1,2,-1
 587.55 1202 l 1,3,-1
 587.55 924 l 1,4,-1
 1141.05 924 l 1,5,-1
 1141.05 633 l 1,6,-1
 587.55 633 l 1,7,-1
 587.55 291 l 1,8,-1
 1195.95 291 l 1,9,-1
 1195.95 0 l 1,10,-1
 241.05 0 l 1,11,-1
 241.05 1493 l 1,0,-1
EndSplineSet
EndChar
StartChar: F
Encoding: 70 70 41
Width: 1329
Flags: HW
Fore
239.95 1493 m 1,0,-1
 1175.05 1493 l 1,1,-1
 1175.05 1202 l 1,2,-1
 586.45 1202 l 1,3,-1
 586.45 924 l 1,4,-1
 1139.95 924 l 1,5,-1
 1139.95 633 l 1,6,-1
 586.45 633 l 1,7,-1
 586.45 0 l 1,8,-1
 239.95 0 l 1,9,-1
 239.95 1493 l 1,0,-1
EndSplineSet
KernsSLIF: 252 -102 0 0 229 -120 0 0 230 -120 0 0 59 -112 0 0 242 -83 0 0 45 -63 0 0 8222 -339 0 0 367 -102 0 0 245 -83 0 0 235 -83 0 0 249 -102 0 0 44 -329 0 0 224 -120 0 0 195 -235 0 0 234 -83 0 0 341 -131 0 0 232 -83 0 0 196 -235 0 0 193 -235 0 0 8217 38 0 0 251 -102 0 0 253 -112 0 0 8218 -339 0 0 227 -120 0 0 194 -235 0 0 248 -83 0 0 244 -83 0 0 65 -235 0 0 97 -120 0 0 228 -120 0 0 246 -83 0 0 250 -102 0 0 225 -120 0 0 345 -131 0 0 46 -301 0 0 226 -120 0 0 233 -83 0 0 283 -83 0 0 101 -83 0 0 339 -83 0 0 255 -112 0 0 111 -83 0 0 114 -131 0 0 117 -102 0 0 192 -235 0 0 121 -112 0 0 58 -112 0 0 243 -83 0 0
EndChar
StartChar: G
Encoding: 71 71 42
Width: 1594
Flags: HW
Fore
1458.6 111 m 1,0,1
 1329 41 1329 41 1189.5 6 c 128,-1,2
 1050 -29 1050 -29 901.5 -29 c 0,3,4
 565.8 -29 565.8 -29 369.6 179.5 c 128,-1,5
 173.4 388 173.4 388 173.4 745 c 0,6,7
 173.4 1106 173.4 1106 373.2 1313 c 128,-1,8
 573 1520 573 1520 920.4 1520 c 0,9,10
 1054.5 1520 1054.5 1520 1177.35 1492 c 128,-1,11
 1300.2 1464 1300.2 1464 1409.1 1409 c 1,12,-1
 1409.1 1100 l 1,13,14
 1296.6 1171 1296.6 1171 1185.45 1206 c 128,-1,15
 1074.3 1241 1074.3 1241 962.7 1241 c 0,16,17
 755.7 1241 755.7 1241 643.65 1112.5 c 128,-1,18
 531.6 984 531.6 984 531.6 745 c 0,19,20
 531.6 508 531.6 508 639.6 379 c 128,-1,21
 747.6 250 747.6 250 946.5 250 c 0,22,23
 1000.5 250 1000.5 250 1046.85 257.5 c 128,-1,24
 1093.2 265 1093.2 265 1130.1 281 c 1,25,-1
 1130.1 571 l 1,26,-1
 918.6 571 l 1,27,-1
 918.6 829 l 1,28,-1
 1458.6 829 l 1,29,-1
 1458.6 111 l 1,0,1
EndSplineSet
KernsSLIF: 356 -36 0 0 221 -45 0 0 376 -45 0 0 89 -45 0 0 84 -36 0 0
EndChar
StartChar: H
Encoding: 72 72 43
Width: 1628
Flags: HW
Fore
254.9 1493 m 1,0,-1
 601.4 1493 l 1,1,-1
 601.4 924 l 1,2,-1
 1112.6 924 l 1,3,-1
 1112.6 1493 l 1,4,-1
 1459.1 1493 l 1,5,-1
 1459.1 0 l 1,6,-1
 1112.6 0 l 1,7,-1
 1112.6 633 l 1,8,-1
 601.4 633 l 1,9,-1
 601.4 0 l 1,10,-1
 254.9 0 l 1,11,-1
 254.9 1493 l 1,0,-1
EndSplineSet
EndChar
StartChar: I
Encoding: 73 73 44
Width: 723
Flags: HW
Fore
207.25 1493 m 1,0,-1
 553.75 1493 l 1,1,-1
 553.75 0 l 1,2,-1
 207.25 0 l 1,3,-1
 207.25 1493 l 1,0,-1
EndSplineSet
EndChar
StartChar: J
Encoding: 74 74 45
Width: 708
Flags: HW
Fore
192.1 1493 m 1,0,-1
 538.6 1493 l 1,1,-1
 538.6 145 l 2,2,3
 538.6 -134 538.6 -134 402.25 -272 c 128,-1,4
 265.9 -410 265.9 -410 -10.4004 -410 c 2,5,-1
 -80.5996 -410 l 1,6,-1
 -80.5996 -119 l 1,7,-1
 -26.5996 -119 l 2,8,9
 81.4004 -119 81.4004 -119 136.75 -52 c 128,-1,10
 192.1 15 192.1 15 192.1 145 c 2,11,-1
 192.1 1493 l 1,0,-1
EndSplineSet
EndChar
StartChar: K
Encoding: 75 75 46
Width: 1520
Flags: HW
Fore
261.05 1493 m 1,0,-1
 607.55 1493 l 1,1,-1
 607.55 948 l 1,2,-1
 1107.05 1493 l 1,3,-1
 1509.35 1493 l 1,4,-1
 862.25 786 l 1,5,-1
 1575.95 0 l 1,6,-1
 1142.15 0 l 1,7,-1
 607.55 588 l 1,8,-1
 607.55 0 l 1,9,-1
 261.05 0 l 1,10,-1
 261.05 1493 l 1,0,-1
EndSplineSet
KernsSLIF: 367 -36 0 0 366 -36 0 0 283 -36 0 0 268 -92 0 0 262 -92 0 0 253 -131 0 0 217 -36 0 0 219 -36 0 0 218 -36 0 0 210 -92 0 0 212 -92 0 0 211 -92 0 0 8222 38 0 0 8218 38 0 0 255 -131 0 0 339 -36 0 0 338 -102 0 0 213 -92 0 0 248 -36 0 0 216 -55 0 0 252 -36 0 0 251 -36 0 0 249 -36 0 0 250 -36 0 0 245 -36 0 0 246 -36 0 0 244 -36 0 0 242 -36 0 0 243 -36 0 0 235 -36 0 0 234 -36 0 0 232 -36 0 0 233 -36 0 0 220 -36 0 0 214 -92 0 0 199 -92 0 0 121 -131 0 0 117 -36 0 0 111 -36 0 0 101 -36 0 0 85 -36 0 0 79 -92 0 0 67 -92 0 0 45 -178 0 0
EndChar
StartChar: L
Encoding: 76 76 47
Width: 1246
Flags: HW
Fore
241.05 1493 m 1,0,-1
 587.55 1493 l 1,1,-1
 587.55 291 l 1,2,-1
 1195.95 291 l 1,3,-1
 1195.95 0 l 1,4,-1
 241.05 0 l 1,5,-1
 241.05 1493 l 1,0,-1
EndSplineSet
KernsSLIF: 366 -73 0 0 356 -339 0 0 253 -139 0 0 221 -319 0 0 217 -73 0 0 219 -73 0 0 218 -73 0 0 210 -73 0 0 212 -73 0 0 211 -73 0 0 376 -319 0 0 255 -139 0 0 8217 -471 0 0 8221 -491 0 0 338 -73 0 0 213 -73 0 0 216 -73 0 0 220 -73 0 0 214 -73 0 0 121 -139 0 0 89 -319 0 0 87 -159 0 0 86 -282 0 0 85 -73 0 0 84 -339 0 0 79 -73 0 0
EndChar
StartChar: M
Encoding: 77 77 48
Width: 1936
Flags: HW
Fore
271.05 1493 m 1,0,-1
 712.05 1493 l 1,1,-1
 1018.05 694 l 1,2,-1
 1325.85 1493 l 1,3,-1
 1765.95 1493 l 1,4,-1
 1765.95 0 l 1,5,-1
 1438.35 0 l 1,6,-1
 1438.35 1092 l 1,7,-1
 1128.75 287 l 1,8,-1
 909.15 287 l 1,9,-1
 599.55 1092 l 1,10,-1
 599.55 0 l 1,11,-1
 271.05 0 l 1,12,-1
 271.05 1493 l 1,0,-1
EndSplineSet
EndChar
StartChar: N
Encoding: 78 78 49
Width: 1628
Flags: HW
Fore
254.9 1493 m 1,0,-1
 641.9 1493 l 1,1,-1
 1130.6 469 l 1,2,-1
 1130.6 1493 l 1,3,-1
 1459.1 1493 l 1,4,-1
 1459.1 0 l 1,5,-1
 1072.1 0 l 1,6,-1
 583.4 1024 l 1,7,-1
 583.4 0 l 1,8,-1
 254.9 0 l 1,9,-1
 254.9 1493 l 1,0,-1
EndSplineSet
EndChar
StartChar: O
Encoding: 79 79 50
Width: 1653
Flags: HW
Fore
870 1241 m 0,0,1
 711.6 1241 711.6 1241 624.3 1111 c 128,-1,2
 537 981 537 981 537 745 c 0,3,4
 537 510 537 510 624.3 380 c 128,-1,5
 711.6 250 711.6 250 870 250 c 0,6,7
 1029.3 250 1029.3 250 1116.6 380 c 128,-1,8
 1203.9 510 1203.9 510 1203.9 745 c 0,9,10
 1203.9 981 1203.9 981 1116.6 1111 c 128,-1,11
 1029.3 1241 1029.3 1241 870 1241 c 0,0,1
870 1520 m 0,12,13
 1194 1520 1194 1520 1377.6 1314 c 128,-1,14
 1561.2 1108 1561.2 1108 1561.2 745 c 0,15,16
 1561.2 383 1561.2 383 1377.6 177 c 128,-1,17
 1194 -29 1194 -29 870 -29 c 0,18,19
 546.9 -29 546.9 -29 362.85 177 c 128,-1,20
 178.8 383 178.8 383 178.8 745 c 0,21,22
 178.8 1108 178.8 1108 362.85 1314 c 128,-1,23
 546.9 1520 546.9 1520 870 1520 c 0,12,13
EndSplineSet
KernsSLIF: 221 -73 0 0 193 -55 0 0 194 -55 0 0 376 -73 0 0 195 -55 0 0 192 -55 0 0 196 -55 0 0 89 -73 0 0 88 -73 0 0 86 -55 0 0 65 -55 0 0 46 -45 0 0 45 38 0 0 44 -45 0 0
EndChar
StartChar: P
Encoding: 80 80 51
Width: 1431
Flags: HW
Fore
249.45 1493 m 1,0,-1
 824.55 1493 l 2,1,2
 1081.05 1493 1081.05 1493 1218.3 1366.5 c 128,-1,3
 1355.55 1240 1355.55 1240 1355.55 1006 c 0,4,5
 1355.55 771 1355.55 771 1218.3 644.5 c 128,-1,6
 1081.05 518 1081.05 518 824.55 518 c 2,7,-1
 595.95 518 l 1,8,-1
 595.95 0 l 1,9,-1
 249.45 0 l 1,10,-1
 249.45 1493 l 1,0,-1
595.95 1214 m 1,11,-1
 595.95 797 l 1,12,-1
 787.65 797 l 2,13,14
 888.45 797 888.45 797 943.35 851.5 c 128,-1,15
 998.25 906 998.25 906 998.25 1006 c 0,16,17
 998.25 1106 998.25 1106 943.35 1160 c 128,-1,18
 888.45 1214 888.45 1214 787.65 1214 c 2,19,-1
 595.95 1214 l 1,11,-1
EndSplineSet
KernsSLIF: 351 -36 0 0 253 38 0 0 353 -36 0 0 193 -188 0 0 194 -188 0 0 8222 -415 0 0 8218 -415 0 0 255 38 0 0 8217 57 0 0 8221 38 0 0 195 -188 0 0 192 -188 0 0 230 -55 0 0 229 -55 0 0 227 -55 0 0 228 -55 0 0 226 -55 0 0 224 -55 0 0 225 -55 0 0 196 -188 0 0 121 38 0 0 115 -36 0 0 97 -55 0 0 65 -188 0 0 46 -376 0 0 45 -36 0 0 44 -376 0 0
EndChar
StartChar: Q
Encoding: 81 81 52
Width: 1653
Flags: HW
Fore
906.9 -27 m 1,0,-1
 879.9 -27 l 2,1,2
 547.8 -27 547.8 -27 363.3 177 c 128,-1,3
 178.8 381 178.8 381 178.8 745 c 0,4,5
 178.8 1108 178.8 1108 362.85 1314 c 128,-1,6
 546.9 1520 546.9 1520 870 1520 c 0,7,8
 1196.7 1520 1196.7 1520 1378.95 1316 c 128,-1,9
 1561.2 1112 1561.2 1112 1561.2 745 c 0,10,11
 1561.2 493 1561.2 493 1464.45 311 c 128,-1,12
 1367.7 129 1367.7 129 1185.9 37 c 1,13,-1
 1456.8 -299 l 1,14,-1
 1126.5 -299 l 1,15,-1
 906.9 -27 l 1,0,-1
870 1241 m 0,16,17
 711.6 1241 711.6 1241 624.3 1111 c 128,-1,18
 537 981 537 981 537 745 c 0,19,20
 537 505 537 505 622.5 377.5 c 128,-1,21
 708 250 708 250 870 250 c 0,22,23
 1029.3 250 1029.3 250 1116.6 380 c 128,-1,24
 1203.9 510 1203.9 510 1203.9 745 c 0,25,26
 1203.9 981 1203.9 981 1116.6 1111 c 128,-1,27
 1029.3 1241 1029.3 1241 870 1241 c 0,16,17
EndSplineSet
KernsSLIF: 45 38 0 0
EndChar
StartChar: R
Encoding: 82 82 53
Width: 1505
Flags: HW
Fore
747.7 831 m 2,0,1
 856.6 831 856.6 831 903.85 876 c 128,-1,2
 951.1 921 951.1 921 951.1 1024 c 0,3,4
 951.1 1126 951.1 1126 903.85 1170 c 128,-1,5
 856.6 1214 856.6 1214 747.7 1214 c 2,6,-1
 601.9 1214 l 1,7,-1
 601.9 831 l 1,8,-1
 747.7 831 l 2,0,1
601.9 565 m 1,9,-1
 601.9 0 l 1,10,-1
 255.4 0 l 1,11,-1
 255.4 1493 l 1,12,-1
 784.6 1493 l 2,13,14
 1050.1 1493 1050.1 1493 1173.85 1394 c 128,-1,15
 1297.6 1295 1297.6 1295 1297.6 1081 c 0,16,17
 1297.6 933 1297.6 933 1233.25 838 c 128,-1,18
 1168.9 743 1168.9 743 1039.3 698 c 1,19,20
 1110.4 680 1110.4 680 1166.65 616.5 c 128,-1,21
 1222.9 553 1222.9 553 1280.5 424 c 2,22,-1
 1468.6 0 l 1,23,-1
 1099.6 0 l 1,24,-1
 935.8 371 l 2,25,26
 886.3 483 886.3 483 835.45 524 c 128,-1,27
 784.6 565 784.6 565 700 565 c 2,28,-1
 601.9 565 l 1,9,-1
EndSplineSet
KernsSLIF: 356 -92 0 0 253 -92 0 0 221 -112 0 0 376 -112 0 0 255 -92 0 0 121 -92 0 0 89 -112 0 0 84 -92 0 0 46 38 0 0 44 38 0 0
EndChar
StartChar: S
Encoding: 83 83 54
Width: 1401
Flags: HW
Fore
1177.9 1446 m 1,0,-1
 1177.9 1130 l 1,1,2
 1067.2 1185 1067.2 1185 961.9 1213 c 128,-1,3
 856.6 1241 856.6 1241 763 1241 c 0,4,5
 638.8 1241 638.8 1241 579.4 1203 c 128,-1,6
 520 1165 520 1165 520 1085 c 0,7,8
 520 1025 520 1025 560.05 991.5 c 128,-1,9
 600.1 958 600.1 958 705.4 934 c 2,10,-1
 853 901 l 2,11,12
 1077.1 851 1077.1 851 1171.6 749 c 128,-1,13
 1266.1 647 1266.1 647 1266.1 459 c 0,14,15
 1266.1 212 1266.1 212 1134.25 91.5 c 128,-1,16
 1002.4 -29 1002.4 -29 731.5 -29 c 0,17,18
 603.7 -29 603.7 -29 475 -2 c 128,-1,19
 346.3 25 346.3 25 217.6 78 c 1,20,-1
 217.6 403 l 1,21,22
 346.3 327 346.3 327 466.45 288.5 c 128,-1,23
 586.6 250 586.6 250 698.2 250 c 0,24,25
 811.6 250 811.6 250 871.9 292 c 128,-1,26
 932.2 334 932.2 334 932.2 412 c 0,27,28
 932.2 482 932.2 482 891.25 520 c 128,-1,29
 850.3 558 850.3 558 727.9 588 c 2,30,-1
 593.8 621 l 2,31,32
 392.2 669 392.2 669 299.05 774 c 128,-1,33
 205.9 879 205.9 879 205.9 1057 c 0,34,35
 205.9 1280 205.9 1280 335.5 1400 c 128,-1,36
 465.1 1520 465.1 1520 708.1 1520 c 0,37,38
 818.8 1520 818.8 1520 935.8 1501.5 c 128,-1,39
 1052.8 1483 1052.8 1483 1177.9 1446 c 1,0,-1
EndSplineSet
KernsSLIF: 350 -92 0 0 352 -92 0 0 83 -92 0 0
EndChar
StartChar: T
Encoding: 84 84 55
Width: 1327
Flags: HW
Fore
78.7998 1493 m 1,0,-1
 1317.2 1493 l 1,1,-1
 1317.2 1202 l 1,2,-1
 871.7 1202 l 1,3,-1
 871.7 0 l 1,4,-1
 525.2 0 l 1,5,-1
 525.2 1202 l 1,6,-1
 78.7998 1202 l 1,7,-1
 78.7998 1493 l 1,0,-1
EndSplineSet
KernsSLIF: 252 -225 0 0 229 -264 0 0 230 -196 0 0 59 -112 0 0 242 -272 0 0 45 -301 0 0 8222 -264 0 0 367 -225 0 0 245 -272 0 0 235 -272 0 0 249 -225 0 0 58 -112 0 0 224 -264 0 0 195 -159 0 0 234 -272 0 0 231 -272 0 0 341 -225 0 0 232 -272 0 0 196 -159 0 0 193 -159 0 0 269 -272 0 0 345 -225 0 0 251 -225 0 0 253 -243 0 0 8218 -264 0 0 227 -264 0 0 194 -159 0 0 248 -159 0 0 244 -272 0 0 353 -272 0 0 65 -159 0 0 283 -272 0 0 351 -272 0 0 228 -264 0 0 119 -225 0 0 246 -272 0 0 250 -225 0 0 263 -272 0 0 225 -264 0 0 46 -311 0 0 84 47 0 0 226 -264 0 0 233 -272 0 0 97 -264 0 0 99 -272 0 0 101 -272 0 0 339 -159 0 0 255 -243 0 0 111 -272 0 0 115 -272 0 0 114 -225 0 0 117 -225 0 0 192 -159 0 0 121 -243 0 0 44 -292 0 0 243 -272 0 0
EndChar
StartChar: U
Encoding: 85 85 56
Width: 1579
Flags: HW
Fore
252.35 1493 m 1,0,-1
 598.85 1493 l 1,1,-1
 598.85 598 l 2,2,3
 598.85 413 598.85 413 653.3 333.5 c 128,-1,4
 707.75 254 707.75 254 831.05 254 c 0,5,6
 955.25 254 955.25 254 1009.7 333.5 c 128,-1,7
 1064.15 413 1064.15 413 1064.15 598 c 2,8,-1
 1064.15 1493 l 1,9,-1
 1410.65 1493 l 1,10,-1
 1410.65 598 l 2,11,12
 1410.65 281 1410.65 281 1267.55 126 c 128,-1,13
 1124.45 -29 1124.45 -29 831.05 -29 c 0,14,15
 538.55 -29 538.55 -29 395.45 126 c 128,-1,16
 252.35 281 252.35 281 252.35 598 c 2,17,-1
 252.35 1493 l 1,0,-1
EndSplineSet
KernsSLIF: 193 -63 0 0 194 -63 0 0 195 -63 0 0 192 -63 0 0 196 -63 0 0 65 -63 0 0
EndChar
StartChar: V
Encoding: 86 86 57
Width: 1505
Flags: HW
Fore
88.25 1493 m 1,0,-1
 436.55 1493 l 1,1,-1
 792.95 391 l 1,2,-1
 1148.45 1493 l 1,3,-1
 1496.75 1493 l 1,4,-1
 999.05 0 l 1,5,-1
 585.95 0 l 1,6,-1
 88.25 1493 l 1,0,-1
EndSplineSet
KernsSLIF: 367 -73 0 0 283 -112 0 0 210 -36 0 0 212 -36 0 0 211 -36 0 0 193 -139 0 0 194 -139 0 0 8222 -188 0 0 8218 -225 0 0 339 -112 0 0 338 -36 0 0 213 -36 0 0 195 -139 0 0 192 -139 0 0 248 -112 0 0 230 -112 0 0 216 -36 0 0 252 -73 0 0 251 -73 0 0 249 -73 0 0 250 -73 0 0 245 -112 0 0 246 -112 0 0 244 -112 0 0 242 -112 0 0 243 -112 0 0 235 -112 0 0 234 -112 0 0 232 -112 0 0 233 -112 0 0 229 -112 0 0 227 -112 0 0 228 -112 0 0 226 -112 0 0 224 -112 0 0 225 -112 0 0 214 -36 0 0 196 -139 0 0 117 -73 0 0 111 -112 0 0 105 -36 0 0 101 -112 0 0 97 -112 0 0 79 -36 0 0 65 -139 0 0 59 -92 0 0 58 -92 0 0 46 -264 0 0 45 -149 0 0 44 -264 0 0
EndChar
StartChar: W
Encoding: 87 87 58
Width: 2145
Flags: HW
Fore
167.7 1493 m 1,0,-1
 499.8 1493 l 1,1,-1
 732 408 l 1,2,-1
 962.4 1493 l 1,3,-1
 1296.3 1493 l 1,4,-1
 1526.7 408 l 1,5,-1
 1758.9 1493 l 1,6,-1
 2088.3 1493 l 1,7,-1
 1771.5 0 l 1,8,-1
 1371.9 0 l 1,9,-1
 1128 1135 l 1,10,-1
 886.8 0 l 1,11,-1
 487.2 0 l 1,12,-1
 167.7 1493 l 1,0,-1
EndSplineSet
KernsSLIF: 229 -73 0 0 230 -73 0 0 59 -63 0 0 242 -73 0 0 45 -92 0 0 46 -167 0 0 245 -73 0 0 235 -73 0 0 44 -167 0 0 224 -73 0 0 195 -92 0 0 234 -73 0 0 341 -36 0 0 232 -73 0 0 196 -92 0 0 193 -92 0 0 227 -73 0 0 194 -92 0 0 248 -73 0 0 244 -73 0 0 65 -92 0 0 97 -73 0 0 228 -73 0 0 246 -73 0 0 225 -73 0 0 345 -36 0 0 226 -73 0 0 233 -73 0 0 283 -73 0 0 101 -73 0 0 339 -73 0 0 111 -73 0 0 114 -36 0 0 192 -92 0 0 58 -63 0 0 243 -73 0 0
EndChar
StartChar: X
Encoding: 88 88 59
Width: 1499
Flags: HW
Fore
996.85 762 m 1,0,-1
 1463.05 0 l 1,1,-1
 1102.15 0 l 1,2,-1
 788.05 510 l 1,3,-1
 476.65 0 l 1,4,-1
 113.95 0 l 1,5,-1
 580.15 762 l 1,6,-1
 131.95 1493 l 1,7,-1
 493.75 1493 l 1,8,-1
 788.05 1012 l 1,9,-1
 1081.45 1493 l 1,10,-1
 1445.05 1493 l 1,11,-1
 996.85 762 l 1,0,-1
EndSplineSet
KernsSLIF: 283 -55 0 0 268 -73 0 0 262 -73 0 0 210 -73 0 0 212 -73 0 0 211 -73 0 0 8222 38 0 0 8218 38 0 0 338 -73 0 0 213 -73 0 0 216 -73 0 0 235 -55 0 0 234 -55 0 0 232 -55 0 0 233 -55 0 0 214 -73 0 0 199 -73 0 0 101 -55 0 0 79 -73 0 0 67 -73 0 0 45 -167 0 0
EndChar
StartChar: Y
Encoding: 89 89 60
Width: 1408
Flags: HW
Fore
56.1504 1493 m 1,0,-1
 435.05 1493 l 1,1,-1
 741.05 961 l 1,2,-1
 1047.05 1493 l 1,3,-1
 1426.85 1493 l 1,4,-1
 914.75 629 l 1,5,-1
 914.75 0 l 1,6,-1
 568.25 0 l 1,7,-1
 568.25 629 l 1,8,-1
 56.1504 1493 l 1,0,-1
EndSplineSet
KernsSLIF: 367 -149 0 0 283 -188 0 0 268 -73 0 0 262 -73 0 0 210 -73 0 0 212 -73 0 0 211 -73 0 0 193 -196 0 0 194 -196 0 0 8222 -301 0 0 8218 -376 0 0 339 -188 0 0 338 -92 0 0 213 -73 0 0 195 -196 0 0 192 -196 0 0 248 -188 0 0 230 -188 0 0 216 -36 0 0 252 -149 0 0 251 -149 0 0 249 -149 0 0 250 -149 0 0 245 -188 0 0 246 -188 0 0 244 -188 0 0 242 -188 0 0 243 -188 0 0 235 -188 0 0 234 -188 0 0 232 -188 0 0 233 -188 0 0 229 -188 0 0 227 -188 0 0 228 -188 0 0 226 -188 0 0 224 -188 0 0 225 -188 0 0 214 -73 0 0 199 -73 0 0 196 -196 0 0 117 -149 0 0 111 -188 0 0 101 -188 0 0 97 -188 0 0 79 -73 0 0 67 -73 0 0 65 -196 0 0 59 -178 0 0 58 -178 0 0 46 -339 0 0 45 -301 0 0 44 -339 0 0
EndChar
StartChar: Z
Encoding: 90 90 61
Width: 1410
Flags: HW
Fore
177.75 1493 m 1,0,-1
 1307.25 1493 l 1,1,-1
 1307.25 1260 l 1,2,-1
 586.35 291 l 1,3,-1
 1327.95 291 l 1,4,-1
 1327.95 0 l 1,5,-1
 157.05 0 l 1,6,-1
 157.05 233 l 1,7,-1
 877.95 1202 l 1,8,-1
 177.75 1202 l 1,9,-1
 177.75 1493 l 1,0,-1
EndSplineSet
KernsSLIF: 45 -36 0 0
EndChar
StartChar: bracketleft
Encoding: 91 91 62
Width: 891
Flags: HW
Fore
207.05 1556 m 1,0,-1
 765.95 1556 l 1,1,-1
 765.95 1331 l 1,2,-1
 513.05 1331 l 1,3,-1
 513.05 -45 l 1,4,-1
 765.95 -45 l 1,5,-1
 765.95 -270 l 1,6,-1
 207.05 -270 l 1,7,-1
 207.05 1556 l 1,0,-1
EndSplineSet
EndChar
StartChar: backslash
Encoding: 92 92 63
Width: 710
Flags: HW
Fore
510.8 -190 m 1,0,-1
 37.4004 1493 l 1,1,-1
 236.3 1493 l 1,2,-1
 710.6 -190 l 1,3,-1
 510.8 -190 l 1,0,-1
EndSplineSet
EndChar
StartChar: bracketright
Encoding: 93 93 64
Width: 887
Flags: HW
Fore
728.95 -270 m 1,0,-1
 170.05 -270 l 1,1,-1
 170.05 -45 l 1,2,-1
 422.95 -45 l 1,3,-1
 422.95 1331 l 1,4,-1
 170.05 1331 l 1,5,-1
 170.05 1556 l 1,6,-1
 728.95 1556 l 1,7,-1
 728.95 -270 l 1,0,-1
EndSplineSet
EndChar
StartChar: asciicircum
Encoding: 94 94 65
Width: 1630
Flags: HW
Fore
968.7 1493 m 1,0,-1
 1443.9 936 l 1,1,-1
 1227 936 l 1,2,-1
 858 1237 l 1,3,-1
 489.9 936 l 1,4,-1
 272.1 936 l 1,5,-1
 747.3 1493 l 1,6,-1
 968.7 1493 l 1,0,-1
EndSplineSet
EndChar
StartChar: underscore
Encoding: 95 95 66
Width: 972
Flags: HW
Fore
972.8 -293 m 1,0,-1
 972.8 -483 l 1,1,-1
 51.2002 -483 l 1,2,-1
 51.2002 -293 l 1,3,-1
 972.8 -293 l 1,0,-1
EndSplineSet
EndChar
StartChar: grave
Encoding: 96 96 67
Width: 959
Flags: HW
Fore
376.95 1638 m 1,0,-1
 630.75 1262 l 1,1,-1
 454.35 1262 l 1,2,-1
 122.25 1638 l 1,3,-1
 376.95 1638 l 1,0,-1
EndSplineSet
EndChar
StartChar: a
Encoding: 97 97 68
Width: 1309
Flags: HW
Fore
672.05 504 m 2,0,1
 571.25 504 571.25 504 520.4 466 c 128,-1,2
 469.55 428 469.55 428 469.55 354 c 0,3,4
 469.55 286 469.55 286 510.5 247.5 c 128,-1,5
 551.45 209 551.45 209 624.35 209 c 0,6,7
 715.25 209 715.25 209 777.35 281.5 c 128,-1,8
 839.45 354 839.45 354 839.45 463 c 2,9,-1
 839.45 504 l 1,10,-1
 672.05 504 l 2,0,1
1164.35 639 m 2,11,-1
 1164.35 0 l 1,12,-1
 839.45 0 l 1,13,-1
 839.45 166 l 1,14,15
 774.65 64 774.65 64 693.65 17.5 c 128,-1,16
 612.65 -29 612.65 -29 496.55 -29 c 0,17,18
 339.95 -29 339.95 -29 242.3 72.5 c 128,-1,19
 144.65 174 144.65 174 144.65 336 c 0,20,21
 144.65 533 144.65 533 266.6 625 c 128,-1,22
 388.55 717 388.55 717 649.55 717 c 2,23,-1
 839.45 717 l 1,24,-1
 839.45 745 l 2,25,26
 839.45 830 839.45 830 779.15 869.5 c 128,-1,27
 718.85 909 718.85 909 591.05 909 c 0,28,29
 487.55 909 487.55 909 398.45 886 c 128,-1,30
 309.35 863 309.35 863 232.85 817 c 1,31,-1
 232.85 1090 l 1,32,33
 336.35 1118 336.35 1118 440.75 1132.5 c 128,-1,34
 545.15 1147 545.15 1147 649.55 1147 c 0,35,36
 922.25 1147 922.25 1147 1043.3 1027.5 c 128,-1,37
 1164.35 908 1164.35 908 1164.35 639 c 2,11,-1
EndSplineSet
KernsSLIF: 253 -63 0 0 255 -63 0 0 121 -63 0 0
EndChar
StartChar: b
Encoding: 98 98 69
Width: 1396
Flags: HW
Fore
768.5 231 m 0,0,1
 872 231 872 231 926.45 315 c 128,-1,2
 980.9 399 980.9 399 980.9 559 c 0,3,4
 980.9 719 980.9 719 926.45 803 c 128,-1,5
 872 887 872 887 768.5 887 c 0,6,7
 665 887 665 887 609.65 802.5 c 128,-1,8
 554.3 718 554.3 718 554.3 559 c 0,9,10
 554.3 400 554.3 400 609.65 315.5 c 128,-1,11
 665 231 665 231 768.5 231 c 0,0,1
554.3 956 m 1,12,13
 620.9 1054 620.9 1054 701.9 1100.5 c 128,-1,14
 782.9 1147 782.9 1147 888.2 1147 c 0,15,16
 1074.5 1147 1074.5 1147 1194.2 982.5 c 128,-1,17
 1313.9 818 1313.9 818 1313.9 559 c 0,18,19
 1313.9 300 1313.9 300 1194.2 135.5 c 128,-1,20
 1074.5 -29 1074.5 -29 888.2 -29 c 0,21,22
 782.9 -29 782.9 -29 701.9 17.5 c 128,-1,23
 620.9 64 620.9 64 554.3 162 c 1,24,-1
 554.3 0 l 1,25,-1
 232.1 0 l 1,26,-1
 232.1 1556 l 1,27,-1
 554.3 1556 l 1,28,-1
 554.3 956 l 1,12,13
EndSplineSet
EndChar
StartChar: c
Encoding: 99 99 70
Width: 1150
Flags: HW
Fore
1027.55 1085 m 1,0,-1
 1027.55 793 l 1,1,2
 961.85 843 961.85 843 895.7 867 c 128,-1,3
 829.55 891 829.55 891 758.45 891 c 0,4,5
 623.45 891 623.45 891 548.3 803.5 c 128,-1,6
 473.15 716 473.15 716 473.15 559 c 0,7,8
 473.15 402 473.15 402 548.3 314.5 c 128,-1,9
 623.45 227 623.45 227 758.45 227 c 0,10,11
 834.05 227 834.05 227 902 252 c 128,-1,12
 969.95 277 969.95 277 1027.55 326 c 1,13,-1
 1027.55 33 l 1,14,15
 951.95 2 951.95 2 874.1 -13.5 c 128,-1,16
 796.25 -29 796.25 -29 717.95 -29 c 0,17,18
 445.25 -29 445.25 -29 291.35 126.5 c 128,-1,19
 137.45 282 137.45 282 137.45 559 c 0,20,21
 137.45 836 137.45 836 291.35 991.5 c 128,-1,22
 445.25 1147 445.25 1147 717.95 1147 c 0,23,24
 797.15 1147 797.15 1147 874.1 1131.5 c 128,-1,25
 951.05 1116 951.05 1116 1027.55 1085 c 1,0,-1
EndSplineSet
EndChar
StartChar: d
Encoding: 100 100 71
Width: 1388
Flags: HW
Fore
909.9 956 m 1,0,-1
 909.9 1556 l 1,1,-1
 1233.9 1556 l 1,2,-1
 1233.9 0 l 1,3,-1
 909.9 0 l 1,4,-1
 909.9 162 l 1,5,6
 843.3 63 843.3 63 763.2 17 c 128,-1,7
 683.1 -29 683.1 -29 577.8 -29 c 0,8,9
 391.5 -29 391.5 -29 271.8 135.5 c 128,-1,10
 152.1 300 152.1 300 152.1 559 c 0,11,12
 152.1 818 152.1 818 271.8 982.5 c 128,-1,13
 391.5 1147 391.5 1147 577.8 1147 c 0,14,15
 682.2 1147 682.2 1147 762.75 1100.5 c 128,-1,16
 843.3 1054 843.3 1054 909.9 956 c 1,0,-1
697.5 231 m 0,17,18
 801 231 801 231 855.45 315 c 128,-1,19
 909.9 399 909.9 399 909.9 559 c 0,20,21
 909.9 719 909.9 719 855.45 803 c 128,-1,22
 801 887 801 887 697.5 887 c 0,23,24
 594.9 887 594.9 887 540.45 803 c 128,-1,25
 486 719 486 719 486 559 c 0,26,27
 486 399 486 399 540.45 315 c 128,-1,28
 594.9 231 594.9 231 697.5 231 c 0,17,18
EndSplineSet
EndChar
StartChar: e
Encoding: 101 101 72
Width: 1319
Flags: HW
Fore
1229.9 563 m 2,0,-1
 1229.9 461 l 1,1,-1
 476.6 461 l 1,2,3
 488.3 335 488.3 335 558.5 272 c 128,-1,4
 628.7 209 628.7 209 754.7 209 c 0,5,6
 856.4 209 856.4 209 963.05 242.5 c 128,-1,7
 1069.7 276 1069.7 276 1182.2 344 c 1,8,-1
 1182.2 68 l 1,9,10
 1067.9 20 1067.9 20 953.6 -4.5 c 128,-1,11
 839.3 -29 839.3 -29 725 -29 c 0,12,13
 451.4 -29 451.4 -29 299.75 125.5 c 128,-1,14
 148.1 280 148.1 280 148.1 559 c 0,15,16
 148.1 833 148.1 833 297.05 990 c 128,-1,17
 446 1147 446 1147 707 1147 c 0,18,19
 944.6 1147 944.6 1147 1087.25 988 c 128,-1,20
 1229.9 829 1229.9 829 1229.9 563 c 2,0,-1
898.7 682 m 1,21,22
 898.7 784 898.7 784 845.15 846.5 c 128,-1,23
 791.6 909 791.6 909 705.2 909 c 0,24,25
 611.6 909 611.6 909 553.1 850.5 c 128,-1,26
 494.6 792 494.6 792 480.2 682 c 1,27,-1
 898.7 682 l 1,21,22
EndSplineSet
EndChar
StartChar: f
Encoding: 102 102 73
Width: 849
Flags: HW
Fore
865.5 1556 m 1,0,-1
 865.5 1321 l 1,1,-1
 687.3 1321 l 2,2,3
 618.9 1321 618.9 1321 591.9 1293.5 c 128,-1,4
 564.9 1266 564.9 1266 564.9 1198 c 2,5,-1
 564.9 1120 l 1,6,-1
 840.3 1120 l 1,7,-1
 840.3 864 l 1,8,-1
 564.9 864 l 1,9,-1
 564.9 0 l 1,10,-1
 242.7 0 l 1,11,-1
 242.7 864 l 1,12,-1
 82.5 864 l 1,13,-1
 82.5 1120 l 1,14,-1
 242.7 1120 l 1,15,-1
 242.7 1198 l 2,16,17
 242.7 1381 242.7 1381 334.5 1468.5 c 128,-1,18
 426.3 1556 426.3 1556 618.9 1556 c 2,19,-1
 865.5 1556 l 1,0,-1
EndSplineSet
KernsSLIF: 8217 141 0 0 8221 86 0 0 46 -112 0 0 45 -36 0 0 44 -112 0 0
EndChar
StartChar: g
Encoding: 103 103 74
Width: 1388
Flags: HW
Fore
909.9 190 m 1,0,1
 843.3 92 843.3 92 763.2 46 c 128,-1,2
 683.1 0 683.1 0 577.8 0 c 0,3,4
 393.3 0 393.3 0 272.7 161.5 c 128,-1,5
 152.1 323 152.1 323 152.1 573 c 0,6,7
 152.1 824 152.1 824 272.7 984.5 c 128,-1,8
 393.3 1145 393.3 1145 577.8 1145 c 0,9,10
 683.1 1145 683.1 1145 763.2 1099 c 128,-1,11
 843.3 1053 843.3 1053 909.9 954 c 1,12,-1
 909.9 1120 l 1,13,-1
 1233.9 1120 l 1,14,-1
 1233.9 113 l 2,15,16
 1233.9 -157 1233.9 -157 1080.45 -299.5 c 128,-1,17
 927 -442 927 -442 635.4 -442 c 0,18,19
 540.9 -442 540.9 -442 452.7 -426 c 128,-1,20
 364.5 -410 364.5 -410 275.4 -377 c 1,21,-1
 275.4 -98 l 1,22,23
 360 -152 360 -152 441 -178.5 c 128,-1,24
 522 -205 522 -205 603.9 -205 c 0,25,26
 762.3 -205 762.3 -205 836.1 -128 c 128,-1,27
 909.9 -51 909.9 -51 909.9 113 c 2,28,-1
 909.9 190 l 1,0,1
697.5 887 m 0,29,30
 597.6 887 597.6 887 541.8 805 c 128,-1,31
 486 723 486 723 486 573 c 0,32,33
 486 419 486 419 540 339.5 c 128,-1,34
 594 260 594 260 697.5 260 c 0,35,36
 798.3 260 798.3 260 854.1 342 c 128,-1,37
 909.9 424 909.9 424 909.9 573 c 0,38,39
 909.9 723 909.9 723 854.1 805 c 128,-1,40
 798.3 887 798.3 887 697.5 887 c 0,29,30
EndSplineSet
EndChar
StartChar: h
Encoding: 104 104 75
Width: 1385
Flags: HW
Fore
1241.7 682 m 2,0,-1
 1241.7 0 l 1,1,-1
 917.7 0 l 1,2,-1
 917.7 111 l 1,3,-1
 917.7 520 l 2,4,5
 917.7 667 917.7 667 911.85 722 c 128,-1,6
 906 777 906 777 891.6 803 c 0,7,8
 872.7 838 872.7 838 840.3 857.5 c 128,-1,9
 807.9 877 807.9 877 766.5 877 c 0,10,11
 665.7 877 665.7 877 608.1 790.5 c 128,-1,12
 550.5 704 550.5 704 550.5 551 c 2,13,-1
 550.5 0 l 1,14,-1
 228.3 0 l 1,15,-1
 228.3 1556 l 1,16,-1
 550.5 1556 l 1,17,-1
 550.5 956 l 1,18,19
 623.4 1054 623.4 1054 705.3 1100.5 c 128,-1,20
 787.2 1147 787.2 1147 886.2 1147 c 0,21,22
 1060.8 1147 1060.8 1147 1151.25 1028 c 128,-1,23
 1241.7 909 1241.7 909 1241.7 682 c 2,0,-1
EndSplineSet
EndChar
StartChar: i
Encoding: 105 105 76
Width: 666
Flags: HW
Fore
189.9 1120 m 1,0,-1
 512.1 1120 l 1,1,-1
 512.1 0 l 1,2,-1
 189.9 0 l 1,3,-1
 189.9 1120 l 1,0,-1
189.9 1556 m 1,4,-1
 512.1 1556 l 1,5,-1
 512.1 1264 l 1,6,-1
 189.9 1264 l 1,7,-1
 189.9 1556 l 1,4,-1
EndSplineSet
EndChar
StartChar: j
Encoding: 106 106 77
Width: 654
Flags: HW
Fore
177.9 1120 m 1,0,-1
 500.1 1120 l 1,1,-1
 500.1 20 l 2,2,3
 500.1 -205 500.1 -205 402.9 -323.5 c 128,-1,4
 305.7 -442 305.7 -442 121.2 -442 c 2,5,-1
 -38.0996 -442 l 1,6,-1
 -38.0996 -207 l 1,7,-1
 17.7002 -207 l 2,8,9
 109.5 -207 109.5 -207 143.7 -161 c 128,-1,10
 177.9 -115 177.9 -115 177.9 20 c 2,11,-1
 177.9 1120 l 1,0,-1
177.9 1556 m 1,12,-1
 500.1 1556 l 1,13,-1
 500.1 1264 l 1,14,-1
 177.9 1264 l 1,15,-1
 177.9 1556 l 1,12,-1
EndSplineSet
EndChar
StartChar: k
Encoding: 107 107 78
Width: 1304
Flags: HW
Fore
233.45 1556 m 1,0,-1
 555.65 1556 l 1,1,-1
 555.65 709 l 1,2,-1
 926.45 1120 l 1,3,-1
 1300.85 1120 l 1,4,-1
 808.55 606 l 1,5,-1
 1339.55 0 l 1,6,-1
 948.95 0 l 1,7,-1
 555.65 467 l 1,8,-1
 555.65 0 l 1,9,-1
 233.45 0 l 1,10,-1
 233.45 1556 l 1,0,-1
EndSplineSet
KernsSLIF: 283 -55 0 0 339 -55 0 0 248 -45 0 0 245 -55 0 0 246 -55 0 0 244 -55 0 0 242 -55 0 0 243 -55 0 0 235 -55 0 0 234 -55 0 0 232 -55 0 0 233 -55 0 0 111 -55 0 0 101 -55 0 0
EndChar
StartChar: l
Encoding: 108 108 79
Width: 666
Flags: HW
Fore
189.9 1556 m 1,0,-1
 512.1 1556 l 1,1,-1
 512.1 0 l 1,2,-1
 189.9 0 l 1,3,-1
 189.9 1556 l 1,0,-1
EndSplineSet
EndChar
StartChar: m
Encoding: 109 109 80
Width: 2027
Flags: HW
Fore
1196.1 934 m 1,0,1
 1257.3 1038 1257.3 1038 1341.45 1092.5 c 128,-1,2
 1425.6 1147 1425.6 1147 1526.4 1147 c 0,3,4
 1700.1 1147 1700.1 1147 1791 1028 c 128,-1,5
 1881.9 909 1881.9 909 1881.9 682 c 2,6,-1
 1881.9 0 l 1,7,-1
 1557.9 0 l 1,8,-1
 1557.9 584 l 1,9,10
 1558.8 597 1558.8 597 1559.25 611 c 128,-1,11
 1559.7 625 1559.7 625 1559.7 651 c 0,12,13
 1559.7 770 1559.7 770 1528.2 823.5 c 128,-1,14
 1496.7 877 1496.7 877 1426.5 877 c 0,15,16
 1334.7 877 1334.7 877 1284.75 793 c 128,-1,17
 1234.8 709 1234.8 709 1233 550 c 1,18,-1
 1233 0 l 1,19,-1
 909 0 l 1,20,-1
 909 584 l 2,21,22
 909 770 909 770 880.2 823.5 c 128,-1,23
 851.4 877 851.4 877 777.6 877 c 0,24,25
 684.9 877 684.9 877 634.5 792.5 c 128,-1,26
 584.1 708 584.1 708 584.1 551 c 2,27,-1
 584.1 0 l 1,28,-1
 260.1 0 l 1,29,-1
 260.1 1120 l 1,30,-1
 584.1 1120 l 1,31,-1
 584.1 956 l 1,32,33
 643.5 1051 643.5 1051 720.45 1099 c 128,-1,34
 797.4 1147 797.4 1147 890.1 1147 c 0,35,36
 994.5 1147 994.5 1147 1074.6 1091 c 128,-1,37
 1154.7 1035 1154.7 1035 1196.1 934 c 1,0,1
EndSplineSet
EndChar
StartChar: n
Encoding: 110 110 81
Width: 1385
Flags: HW
Fore
1241.7 682 m 2,0,-1
 1241.7 0 l 1,1,-1
 917.7 0 l 1,2,-1
 917.7 111 l 1,3,-1
 917.7 522 l 2,4,5
 917.7 667 917.7 667 911.85 722 c 128,-1,6
 906 777 906 777 891.6 803 c 0,7,8
 872.7 838 872.7 838 840.3 857.5 c 128,-1,9
 807.9 877 807.9 877 766.5 877 c 0,10,11
 665.7 877 665.7 877 608.1 790.5 c 128,-1,12
 550.5 704 550.5 704 550.5 551 c 2,13,-1
 550.5 0 l 1,14,-1
 228.3 0 l 1,15,-1
 228.3 1120 l 1,16,-1
 550.5 1120 l 1,17,-1
 550.5 956 l 1,18,19
 623.4 1054 623.4 1054 705.3 1100.5 c 128,-1,20
 787.2 1147 787.2 1147 886.2 1147 c 0,21,22
 1060.8 1147 1060.8 1147 1151.25 1028 c 128,-1,23
 1241.7 909 1241.7 909 1241.7 682 c 2,0,-1
EndSplineSet
EndChar
StartChar: o
Encoding: 111 111 82
Width: 1336
Flags: HW
Fore
704.85 891 m 0,0,1
 597.75 891 597.75 891 541.5 805.5 c 128,-1,2
 485.25 720 485.25 720 485.25 559 c 0,3,4
 485.25 398 485.25 398 541.5 312.5 c 128,-1,5
 597.75 227 597.75 227 704.85 227 c 0,6,7
 810.15 227 810.15 227 865.95 312.5 c 128,-1,8
 921.75 398 921.75 398 921.75 559 c 0,9,10
 921.75 720 921.75 720 865.95 805.5 c 128,-1,11
 810.15 891 810.15 891 704.85 891 c 0,0,1
704.85 1147 m 0,12,13
 964.95 1147 964.95 1147 1111.2 991 c 128,-1,14
 1257.45 835 1257.45 835 1257.45 559 c 0,15,16
 1257.45 283 1257.45 283 1111.2 127 c 128,-1,17
 964.95 -29 964.95 -29 704.85 -29 c 0,18,19
 443.85 -29 443.85 -29 296.7 127 c 128,-1,20
 149.55 283 149.55 283 149.55 559 c 0,21,22
 149.55 835 149.55 835 296.7 991 c 128,-1,23
 443.85 1147 443.85 1147 704.85 1147 c 0,12,13
EndSplineSet
EndChar
StartChar: p
Encoding: 112 112 83
Width: 1396
Flags: HW
Fore
554.3 162 m 1,0,-1
 554.3 -426 l 1,1,-1
 232.1 -426 l 1,2,-1
 232.1 1120 l 1,3,-1
 554.3 1120 l 1,4,-1
 554.3 956 l 1,5,6
 620.9 1054 620.9 1054 701.9 1100.5 c 128,-1,7
 782.9 1147 782.9 1147 888.2 1147 c 0,8,9
 1074.5 1147 1074.5 1147 1194.2 982.5 c 128,-1,10
 1313.9 818 1313.9 818 1313.9 559 c 0,11,12
 1313.9 300 1313.9 300 1194.2 135.5 c 128,-1,13
 1074.5 -29 1074.5 -29 888.2 -29 c 0,14,15
 782.9 -29 782.9 -29 701.9 17.5 c 128,-1,16
 620.9 64 620.9 64 554.3 162 c 1,0,-1
768.5 887 m 0,17,18
 665 887 665 887 609.65 802.5 c 128,-1,19
 554.3 718 554.3 718 554.3 559 c 0,20,21
 554.3 400 554.3 400 609.65 315.5 c 128,-1,22
 665 231 665 231 768.5 231 c 0,23,24
 872 231 872 231 926.45 315 c 128,-1,25
 980.9 399 980.9 399 980.9 559 c 0,26,27
 980.9 719 980.9 719 926.45 803 c 128,-1,28
 872 887 872 887 768.5 887 c 0,17,18
EndSplineSet
EndChar
StartChar: q
Encoding: 113 113 84
Width: 1388
Flags: HW
Fore
697.5 887 m 0,0,1
 594.9 887 594.9 887 540.45 803 c 128,-1,2
 486 719 486 719 486 559 c 0,3,4
 486 399 486 399 540.45 315 c 128,-1,5
 594.9 231 594.9 231 697.5 231 c 0,6,7
 801 231 801 231 855.45 315 c 128,-1,8
 909.9 399 909.9 399 909.9 559 c 0,9,10
 909.9 719 909.9 719 855.45 803 c 128,-1,11
 801 887 801 887 697.5 887 c 0,0,1
909.9 162 m 1,12,13
 843.3 63 843.3 63 763.2 17 c 128,-1,14
 683.1 -29 683.1 -29 577.8 -29 c 0,15,16
 391.5 -29 391.5 -29 271.8 135.5 c 128,-1,17
 152.1 300 152.1 300 152.1 559 c 0,18,19
 152.1 818 152.1 818 271.8 981.5 c 128,-1,20
 391.5 1145 391.5 1145 577.8 1145 c 0,21,22
 683.1 1145 683.1 1145 763.2 1099 c 128,-1,23
 843.3 1053 843.3 1053 909.9 954 c 1,24,-1
 909.9 1120 l 1,25,-1
 1233.9 1120 l 1,26,-1
 1233.9 -426 l 1,27,-1
 909.9 -426 l 1,28,-1
 909.9 162 l 1,12,13
EndSplineSet
EndChar
StartChar: r
Encoding: 114 114 85
Width: 967
Flags: HW
Fore
962.4 815 m 1,0,1
 920.1 837 920.1 837 878.25 847.5 c 128,-1,2
 836.4 858 836.4 858 794.1 858 c 0,3,4
 669.9 858 669.9 858 602.85 769.5 c 128,-1,5
 535.8 681 535.8 681 535.8 516 c 2,6,-1
 535.8 0 l 1,7,-1
 213.6 0 l 1,8,-1
 213.6 1120 l 1,9,-1
 535.8 1120 l 1,10,-1
 535.8 936 l 1,11,12
 597.9 1046 597.9 1046 678.45 1096.5 c 128,-1,13
 759 1147 759 1147 871.5 1147 c 0,14,15
 887.7 1147 887.7 1147 906.6 1145.5 c 128,-1,16
 925.5 1144 925.5 1144 961.5 1139 c 1,17,-1
 962.4 815 l 1,0,1
EndSplineSet
KernsSLIF: 8217 86 0 0 8221 38 0 0 46 -292 0 0 44 -301 0 0
EndChar
StartChar: s
Encoding: 115 115 86
Width: 1158
Flags: HW
Fore
1003.7 1085 m 1,0,-1
 1003.7 813 l 1,1,2
 900.2 861 900.2 861 803.9 885 c 128,-1,3
 707.6 909 707.6 909 622.1 909 c 0,4,5
 530.3 909 530.3 909 485.75 883.5 c 128,-1,6
 441.2 858 441.2 858 441.2 805 c 0,7,8
 441.2 762 441.2 762 474.95 739 c 128,-1,9
 508.7 716 508.7 716 596 705 c 1,10,-1
 652.7 696 l 2,11,12
 900.2 661 900.2 661 985.7 581 c 128,-1,13
 1071.2 501 1071.2 501 1071.2 330 c 0,14,15
 1071.2 151 1071.2 151 952.4 61 c 128,-1,16
 833.6 -29 833.6 -29 597.8 -29 c 0,17,18
 497.9 -29 497.9 -29 391.25 -11.5 c 128,-1,19
 284.6 6 284.6 6 172.1 41 c 1,20,-1
 172.1 313 l 1,21,22
 268.4 261 268.4 261 369.65 235 c 128,-1,23
 470.9 209 470.9 209 575.3 209 c 0,24,25
 669.8 209 669.8 209 717.5 238 c 128,-1,26
 765.2 267 765.2 267 765.2 324 c 0,27,28
 765.2 372 765.2 372 732.35 395.5 c 128,-1,29
 699.5 419 699.5 419 601.4 432 c 2,30,-1
 544.7 440 l 2,31,32
 329.6 470 329.6 470 243.2 551 c 128,-1,33
 156.8 632 156.8 632 156.8 797 c 0,34,35
 156.8 975 156.8 975 266.6 1061 c 128,-1,36
 376.4 1147 376.4 1147 603.2 1147 c 0,37,38
 692.3 1147 692.3 1147 790.4 1132 c 128,-1,39
 888.5 1117 888.5 1117 1003.7 1085 c 1,0,-1
EndSplineSet
EndChar
StartChar: t
Encoding: 116 116 87
Width: 929
Flags: HW
Fore
554.65 1438 m 1,0,-1
 554.65 1120 l 1,1,-1
 886.75 1120 l 1,2,-1
 886.75 864 l 1,3,-1
 554.65 864 l 1,4,-1
 554.65 389 l 2,5,6
 554.65 311 554.65 311 582.55 283.5 c 128,-1,7
 610.45 256 610.45 256 693.25 256 c 2,8,-1
 858.85 256 l 1,9,-1
 858.85 0 l 1,10,-1
 582.55 0 l 2,11,12
 391.75 0 391.75 0 312.1 88.5 c 128,-1,13
 232.45 177 232.45 177 232.45 389 c 2,14,-1
 232.45 864 l 1,15,-1
 72.25 864 l 1,16,-1
 72.25 1120 l 1,17,-1
 232.45 1120 l 1,18,-1
 232.45 1438 l 1,19,-1
 554.65 1438 l 1,0,-1
EndSplineSet
EndChar
StartChar: u
Encoding: 117 117 88
Width: 1384
Flags: HW
Fore
216.3 436 m 2,0,-1
 216.3 1120 l 1,1,-1
 540.3 1120 l 1,2,-1
 540.3 1008 l 2,3,4
 540.3 917 540.3 917 539.4 779.5 c 128,-1,5
 538.5 642 538.5 642 538.5 596 c 0,6,7
 538.5 461 538.5 461 544.8 401.5 c 128,-1,8
 551.1 342 551.1 342 566.4 315 c 0,9,10
 586.2 280 586.2 280 618.15 261 c 128,-1,11
 650.1 242 650.1 242 691.5 242 c 0,12,13
 792.3 242 792.3 242 849.9 328 c 128,-1,14
 907.5 414 907.5 414 907.5 567 c 2,15,-1
 907.5 1120 l 1,16,-1
 1229.7 1120 l 1,17,-1
 1229.7 0 l 1,18,-1
 907.5 0 l 1,19,-1
 907.5 162 l 1,20,21
 834.6 64 834.6 64 753.15 17.5 c 128,-1,22
 671.7 -29 671.7 -29 573.6 -29 c 0,23,24
 399 -29 399 -29 307.65 90 c 128,-1,25
 216.3 209 216.3 209 216.3 436 c 2,0,-1
EndSplineSet
EndChar
StartChar: v
Encoding: 118 118 89
Width: 1268
Flags: HW
Fore
94.7002 1120 m 1,0,-1
 416.9 1120 l 1,1,-1
 668 346 l 1,2,-1
 918.2 1120 l 1,3,-1
 1241.3 1120 l 1,4,-1
 844.4 0 l 1,5,-1
 490.7 0 l 1,6,-1
 94.7002 1120 l 1,0,-1
EndSplineSet
KernsSLIF: 46 -167 0 0 44 -167 0 0
EndChar
StartChar: w
Encoding: 119 119 90
Width: 1797
Flags: HW
Fore
159.45 1120 m 1,0,-1
 472.65 1120 l 1,1,-1
 641.85 348 l 1,2,-1
 811.95 1120 l 1,3,-1
 1081.05 1120 l 1,4,-1
 1250.25 356 l 1,5,-1
 1420.35 1120 l 1,6,-1
 1733.55 1120 l 1,7,-1
 1468.05 0 l 1,8,-1
 1116.15 0 l 1,9,-1
 946.05 770 l 1,10,-1
 776.85 0 l 1,11,-1
 424.95 0 l 1,12,-1
 159.45 1120 l 1,0,-1
EndSplineSet
KernsSLIF: 46 -131 0 0 44 -131 0 0
EndChar
StartChar: x
Encoding: 120 120 91
Width: 1254
Flags: HW
Fore
475.55 573 m 1,0,-1
 111.95 1120 l 1,1,-1
 453.05 1120 l 1,2,-1
 659.15 788 l 1,3,-1
 867.95 1120 l 1,4,-1
 1209.05 1120 l 1,5,-1
 845.45 575 l 1,6,-1
 1227.05 0 l 1,7,-1
 885.95 0 l 1,8,-1
 659.15 354 l 1,9,-1
 435.05 0 l 1,10,-1
 93.9502 0 l 1,11,-1
 475.55 573 l 1,0,-1
EndSplineSet
EndChar
StartChar: y
Encoding: 121 121 92
Width: 1267
Flags: HW
Fore
88.6504 1120 m 1,0,-1
 410.85 1120 l 1,1,-1
 681.75 360 l 1,2,-1
 912.15 1120 l 1,3,-1
 1234.35 1120 l 1,4,-1
 810.45 -106 l 1,5,6
 746.55 -293 746.55 -293 661.5 -367.5 c 128,-1,7
 576.45 -442 576.45 -442 436.95 -442 c 2,8,-1
 250.65 -442 l 1,9,-1
 250.65 -207 l 1,10,-1
 351.45 -207 l 2,11,12
 433.35 -207 433.35 -207 470.7 -178 c 128,-1,13
 508.05 -149 508.05 -149 528.75 -74 c 1,14,-1
 537.75 -43 l 1,15,-1
 88.6504 1120 l 1,0,-1
EndSplineSet
KernsSLIF: 46 -188 0 0 44 -159 0 0
EndChar
StartChar: z
Encoding: 122 122 93
Width: 1132
Flags: HW
Fore
164.6 1120 m 1,0,-1
 1043.9 1120 l 1,1,-1
 1043.9 870 l 1,2,-1
 512.9 256 l 1,3,-1
 1043.9 256 l 1,4,-1
 1043.9 0 l 1,5,-1
 142.1 0 l 1,6,-1
 142.1 250 l 1,7,-1
 673.1 864 l 1,8,-1
 164.6 864 l 1,9,-1
 164.6 1120 l 1,0,-1
EndSplineSet
EndChar
StartChar: braceleft
Encoding: 123 123 94
Width: 1385
Flags: HW
Fore
1154.7 -109 m 1,0,-1
 1154.7 -334 l 1,1,-1
 959.4 -334 l 2,2,3
 763.2 -334 763.2 -334 673.2 -246 c 128,-1,4
 583.2 -158 583.2 -158 583.2 35 c 2,5,-1
 583.2 227 l 2,6,7
 583.2 377 583.2 377 534.6 435.5 c 128,-1,8
 486 494 486 494 358.2 494 c 2,9,-1
 303.3 494 l 1,10,-1
 303.3 717 l 1,11,-1
 358.2 717 l 2,12,13
 486 717 486 717 534.6 775 c 128,-1,14
 583.2 833 583.2 833 583.2 983 c 2,15,-1
 583.2 1188 l 2,16,17
 583.2 1381 583.2 1381 673.2 1468.5 c 128,-1,18
 763.2 1556 763.2 1556 959.4 1556 c 2,19,-1
 1154.7 1556 l 1,20,-1
 1154.7 1331 l 1,21,-1
 1092.6 1331 l 2,22,23
 965.7 1331 965.7 1331 927.45 1287.5 c 128,-1,24
 889.2 1244 889.2 1244 889.2 1102 c 2,25,-1
 889.2 936 l 2,26,27
 889.2 779 889.2 779 848.7 708 c 128,-1,28
 808.2 637 808.2 637 709.2 612 c 1,29,30
 809.1 585 809.1 585 849.15 514 c 128,-1,31
 889.2 443 889.2 443 889.2 287 c 2,32,-1
 889.2 121 l 2,33,34
 889.2 -22 889.2 -22 927.45 -65.5 c 128,-1,35
 965.7 -109 965.7 -109 1092.6 -109 c 2,36,-1
 1154.7 -109 l 1,0,-1
EndSplineSet
EndChar
StartChar: bar
Encoding: 124 124 95
Width: 710
Flags: HW
Fore
475.65 1565 m 1,0,-1
 475.65 -483 l 1,1,-1
 271.35 -483 l 1,2,-1
 271.35 1565 l 1,3,-1
 475.65 1565 l 1,0,-1
EndSplineSet
EndChar
StartChar: braceright
Encoding: 125 125 96
Width: 1385
Flags: HW
Fore
303.3 -109 m 1,0,-1
 366.3 -109 l 2,1,2
 492.3 -109 492.3 -109 530.55 -65.5 c 128,-1,3
 568.8 -22 568.8 -22 568.8 121 c 2,4,-1
 568.8 287 l 2,5,6
 568.8 443 568.8 443 609.3 514 c 128,-1,7
 649.8 585 649.8 585 749.7 612 c 1,8,9
 649.8 637 649.8 637 609.3 708 c 128,-1,10
 568.8 779 568.8 779 568.8 936 c 2,11,-1
 568.8 1102 l 2,12,13
 568.8 1244 568.8 1244 530.55 1287.5 c 128,-1,14
 492.3 1331 492.3 1331 366.3 1331 c 2,15,-1
 303.3 1331 l 1,16,-1
 303.3 1556 l 1,17,-1
 498.6 1556 l 2,18,19
 694.8 1556 694.8 1556 784.8 1468.5 c 128,-1,20
 874.8 1381 874.8 1381 874.8 1188 c 2,21,-1
 874.8 983 l 2,22,23
 874.8 833 874.8 833 923.4 775 c 128,-1,24
 972 717 972 717 1099.8 717 c 2,25,-1
 1154.7 717 l 1,26,-1
 1154.7 494 l 1,27,-1
 1099.8 494 l 2,28,29
 972 494 972 494 923.4 435.5 c 128,-1,30
 874.8 377 874.8 377 874.8 227 c 2,31,-1
 874.8 35 l 2,32,33
 874.8 -158 874.8 -158 784.8 -246 c 128,-1,34
 694.8 -334 694.8 -334 498.6 -334 c 2,35,-1
 303.3 -334 l 1,36,-1
 303.3 -109 l 1,0,-1
EndSplineSet
EndChar
StartChar: asciitilde
Encoding: 126 126 97
Width: 1630
Flags: HW
Fore
1434.9 850 m 1,0,-1
 1434.9 606 l 1,1,2
 1339.5 526 1339.5 526 1258.95 491.5 c 128,-1,3
 1178.4 457 1178.4 457 1092 457 c 0,4,5
 995.7 457 995.7 457 867 515 c 0,6,7
 854.4 521 854.4 521 847.2 524 c 0,8,9
 840.9 527 840.9 527 827.4 533 c 0,10,11
 687.9 594 687.9 594 603.3 594 c 0,12,13
 524.1 594 524.1 594 446.7 555.5 c 128,-1,14
 369.3 517 369.3 517 281.1 434 c 1,15,-1
 281.1 678 l 1,16,17
 377.4 758 377.4 758 457.5 792.5 c 128,-1,18
 537.6 827 537.6 827 624 827 c 0,19,20
 720.3 827 720.3 827 849 769 c 0,21,22
 862.5 763 862.5 763 868.8 760 c 0,23,24
 875.1 757 875.1 757 888.6 751 c 0,25,26
 1028.1 690 1028.1 690 1112.7 690 c 0,27,28
 1190.1 690 1190.1 690 1266.15 727.5 c 128,-1,29
 1342.2 765 1342.2 765 1434.9 850 c 1,0,-1
EndSplineSet
EndChar
StartChar: exclamdown
Encoding: 161 161 163
Width: 887
Flags: HW
Fore
305 0 m 1,0,-1
 305 573 l 1,1,-1
 350.9 991 l 1,2,-1
 583.1 991 l 1,3,-1
 629 573 l 1,4,-1
 629 0 l 1,5,-1
 305 0 l 1,0,-1
305 1137 m 1,6,-1
 305 1493 l 1,7,-1
 629 1493 l 1,8,-1
 629 1137 l 1,9,-1
 305 1137 l 1,6,-1
EndSplineSet
EndChar
StartChar: cent
Encoding: 162 162 132
Width: 1349
Flags: HW
Fore
698.55 858 m 1,0,1
 628.35 814 628.35 814 593.7 740.5 c 128,-1,2
 559.05 667 559.05 667 559.05 559 c 0,3,4
 559.05 450 559.05 450 593.7 376 c 128,-1,5
 628.35 302 628.35 302 698.55 260 c 1,6,-1
 698.55 858 l 1,0,1
1111.65 1085 m 1,7,-1
 1111.65 793 l 1,8,9
 1045.05 841 1045.05 841 980.7 866 c 128,-1,10
 916.35 891 916.35 891 857.85 891 c 2,11,-1
 844.35 891 l 1,12,-1
 844.35 228 l 1,13,14
 924.45 229 924.45 229 992.4 254 c 128,-1,15
 1060.35 279 1060.35 279 1111.65 326 c 1,16,-1
 1111.65 33 l 1,17,18
 1036.95 3 1036.95 3 971.25 -13 c 128,-1,19
 905.55 -29 905.55 -29 853.35 -29 c 2,20,-1
 844.35 -29 l 1,21,-1
 844.35 -313 l 1,22,-1
 698.55 -313 l 1,23,-1
 698.55 -25 l 1,24,25
 462.75 15 462.75 15 343.05 166 c 128,-1,26
 223.35 317 223.35 317 223.35 575 c 0,27,28
 223.35 819 223.35 819 344.85 964.5 c 128,-1,29
 466.35 1110 466.35 1110 698.55 1145 c 1,30,-1
 698.55 1432 l 1,31,-1
 844.35 1432 l 1,32,-1
 845.25 1145 l 1,33,34
 909.15 1142 909.15 1142 975.3 1127.5 c 128,-1,35
 1041.45 1113 1041.45 1113 1111.65 1085 c 1,7,-1
EndSplineSet
EndChar
StartChar: sterling
Encoding: 163 163 133
Width: 1351
Flags: HW
Fore
1187.7 1466 m 1,0,-1
 1187.7 1180 l 1,1,2
 1124.7 1219 1124.7 1219 1058.1 1238 c 128,-1,3
 991.5 1257 991.5 1257 922.2 1257 c 0,4,5
 816 1257 816 1257 765.15 1194.5 c 128,-1,6
 714.3 1132 714.3 1132 714.3 1001 c 2,7,-1
 714.3 831 l 1,8,-1
 1050 831 l 1,9,-1
 1050 592 l 1,10,-1
 714.3 592 l 1,11,-1
 714.3 266 l 1,12,-1
 1198.5 266 l 1,13,-1
 1198.5 0 l 1,14,-1
 181.5 0 l 1,15,-1
 181.5 266 l 1,16,-1
 385.8 266 l 1,17,-1
 385.8 592 l 1,18,-1
 211.2 592 l 1,19,-1
 211.2 831 l 1,20,-1
 385.8 831 l 1,21,-1
 385.8 1001 l 2,22,23
 385.8 1272 385.8 1272 500.1 1396 c 128,-1,24
 614.4 1520 614.4 1520 861.9 1520 c 0,25,26
 944.7 1520 944.7 1520 1026.15 1506.5 c 128,-1,27
 1107.6 1493 1107.6 1493 1187.7 1466 c 1,0,-1
EndSplineSet
EndChar
StartChar: currency
Encoding: 164 164 189
Width: 1237
Flags: HW
Fore
455.85 268 m 1,0,-1
 269.55 61 l 1,1,-1
 131.85 215 l 1,2,-1
 318.15 422 l 1,3,4
 292.95 471 292.95 471 280.35 524.5 c 128,-1,5
 267.75 578 267.75 578 267.75 641 c 0,6,7
 267.75 704 267.75 704 281.25 758 c 128,-1,8
 294.75 812 294.75 812 321.75 858 c 1,9,-1
 133.65 1063 l 1,10,-1
 271.35 1217 l 1,11,-1
 457.65 1010 l 1,12,13
 500.85 1040 500.85 1040 549.45 1054.5 c 128,-1,14
 598.05 1069 598.05 1069 652.95 1069 c 0,15,16
 701.55 1069 701.55 1069 750.15 1055.5 c 128,-1,17
 798.75 1042 798.75 1042 850.05 1014 c 1,18,-1
 1036.35 1221 l 1,19,-1
 1173.15 1067 l 1,20,-1
 986.85 860 l 1,21,22
 1012.95 805 1012.95 805 1025.55 750 c 128,-1,23
 1038.15 695 1038.15 695 1038.15 641 c 0,24,25
 1038.15 578 1038.15 578 1025.1 525.5 c 128,-1,26
 1012.05 473 1012.05 473 985.05 426 c 1,27,-1
 1171.35 219 l 1,28,-1
 1032.75 66 l 1,29,-1
 846.45 272 l 1,30,31
 805.05 242 805.05 242 757.35 227.5 c 128,-1,32
 709.65 213 709.65 213 652.95 213 c 0,33,34
 600.75 213 600.75 213 552.15 226.5 c 128,-1,35
 503.55 240 503.55 240 455.85 268 c 1,0,-1
652.95 422 m 0,36,37
 734.85 422 734.85 422 792.45 485.5 c 128,-1,38
 850.05 549 850.05 549 850.05 641 c 0,39,40
 850.05 733 850.05 733 792.9 796.5 c 128,-1,41
 735.75 860 735.75 860 652.95 860 c 0,42,43
 571.05 860 571.05 860 513.45 796.5 c 128,-1,44
 455.85 733 455.85 733 455.85 641 c 0,45,46
 455.85 548 455.85 548 512.55 485 c 128,-1,47
 569.25 422 569.25 422 652.95 422 c 0,36,37
EndSplineSet
EndChar
StartChar: yen
Encoding: 165 165 150
Width: 1353
Flags: HW
Fore
1293.5 416 m 1,0,-1
 884 416 l 1,1,-1
 884 0 l 1,2,-1
 541.1 0 l 1,3,-1
 541.1 416 l 1,4,-1
 132.5 416 l 1,5,-1
 132.5 610 l 1,6,-1
 541.1 610 l 1,7,-1
 541.1 676 l 1,8,-1
 497 762 l 1,9,-1
 132.5 762 l 1,10,-1
 132.5 954 l 1,11,-1
 395.3 954 l 1,12,-1
 93.7998 1493 l 1,13,-1
 452.9 1493 l 1,14,-1
 713 1032 l 1,15,-1
 972.2 1493 l 1,16,-1
 1332.2 1493 l 1,17,-1
 1029.8 954 l 1,18,-1
 1293.5 954 l 1,19,-1
 1293.5 762 l 1,20,-1
 928.1 762 l 1,21,-1
 884 676 l 1,22,-1
 884 610 l 1,23,-1
 1293.5 610 l 1,24,-1
 1293.5 416 l 1,0,-1
EndSplineSet
EndChar
StartChar: brokenbar
Encoding: 166 166 231
Width: 710
Flags: HW
Fore
475.65 1432 m 1,0,-1
 475.65 674 l 1,1,-1
 271.35 674 l 1,2,-1
 271.35 1432 l 1,3,-1
 475.65 1432 l 1,0,-1
475.65 408 m 1,4,-1
 475.65 -350 l 1,5,-1
 271.35 -350 l 1,6,-1
 271.35 408 l 1,7,-1
 475.65 408 l 1,4,-1
EndSplineSet
EndChar
StartChar: section
Encoding: 167 167 134
Width: 973
Flags: HW
Fore
848 1462 m 1,0,-1
 848 1235 l 1,1,2
 758.9 1274 758.9 1274 687.8 1293.5 c 128,-1,3
 616.7 1313 616.7 1313 565.4 1313 c 0,4,5
 497.9 1313 497.9 1313 463.7 1288.5 c 128,-1,6
 429.5 1264 429.5 1264 429.5 1217 c 0,7,8
 429.5 1150 429.5 1150 598.7 1071 c 0,9,10
 622.1 1060 622.1 1060 633.8 1055 c 0,11,12
 822.8 966 822.8 966 894.35 879.5 c 128,-1,13
 965.9 793 965.9 793 965.9 668 c 0,14,15
 965.9 551 965.9 551 915.05 471.5 c 128,-1,16
 864.2 392 864.2 392 758.9 344 c 1,17,18
 828.2 303 828.2 303 861.95 246.5 c 128,-1,19
 895.7 190 895.7 190 895.7 117 c 0,20,21
 895.7 -28 895.7 -28 786.8 -111.5 c 128,-1,22
 677.9 -195 677.9 -195 486.2 -195 c 0,23,24
 409.7 -195 409.7 -195 328.25 -180.5 c 128,-1,25
 246.8 -166 246.8 -166 155 -137 c 1,26,-1
 155 100 l 1,27,28
 258.5 59 258.5 59 340.4 37.5 c 128,-1,29
 422.3 16 422.3 16 473.6 16 c 0,30,31
 532.1 16 532.1 16 567.2 41 c 128,-1,32
 602.3 66 602.3 66 602.3 106 c 0,33,34
 602.3 176 602.3 176 440.3 250 c 0,35,36
 407.9 264 407.9 264 390.8 272 c 0,37,38
 208.1 359 208.1 359 136.1 448.5 c 128,-1,39
 64.0996 538 64.0996 538 64.0996 668 c 0,40,41
 64.0996 772 64.0996 772 114.05 849 c 128,-1,42
 164 926 164 926 265.7 977 c 1,43,44
 198.2 1028 198.2 1028 168.95 1083.5 c 128,-1,45
 139.7 1139 139.7 1139 139.7 1214 c 0,46,47
 139.7 1358 139.7 1358 242.75 1439 c 128,-1,48
 345.8 1520 345.8 1520 526.7 1520 c 0,49,50
 602.3 1520 602.3 1520 683.3 1505.5 c 128,-1,51
 764.3 1491 764.3 1491 848 1462 c 1,0,-1
442.1 856 m 1,52,53
 380.9 828 380.9 828 350.75 790 c 128,-1,54
 320.6 752 320.6 752 320.6 702 c 0,55,56
 320.6 635 320.6 635 375.95 586 c 128,-1,57
 431.3 537 431.3 537 595.1 471 c 1,58,59
 653.6 494 653.6 494 685.1 533.5 c 128,-1,60
 716.6 573 716.6 573 716.6 625 c 0,61,62
 716.6 692 716.6 692 654.5 745 c 128,-1,63
 592.4 798 592.4 798 442.1 856 c 1,52,53
EndSplineSet
EndChar
StartChar: dieresis
Encoding: 168 168 142
Width: 972
Flags: HW
Fore
228.5 1585 m 1,0,-1
 440 1585 l 1,1,-1
 440 1339 l 1,2,-1
 228.5 1339 l 1,3,-1
 228.5 1585 l 1,0,-1
584 1585 m 1,4,-1
 795.5 1585 l 1,5,-1
 795.5 1339 l 1,6,-1
 584 1339 l 1,7,-1
 584 1585 l 1,4,-1
EndSplineSet
Ligature: 0 1 'liga' space uni0308
EndChar
StartChar: copyright
Encoding: 169 169 139
Width: 1945
Flags: HW
Fore
1293.1 1126 m 1,0,-1
 1293.1 911 l 1,1,2
 1241.8 948 1241.8 948 1191.85 965.5 c 128,-1,3
 1141.9 983 1141.9 983 1090.6 983 c 0,4,5
 988.9 983 988.9 983 931.75 919 c 128,-1,6
 874.6 855 874.6 855 874.6 741 c 0,7,8
 874.6 626 874.6 626 931.3 563 c 128,-1,9
 988 500 988 500 1090.6 500 c 0,10,11
 1148.2 500 1148.2 500 1199.95 518 c 128,-1,12
 1251.7 536 1251.7 536 1293.1 571 c 1,13,-1
 1293.1 358 l 1,14,15
 1234.6 336 1234.6 336 1175.65 324.5 c 128,-1,16
 1116.7 313 1116.7 313 1060.9 313 c 0,17,18
 871 313 871 313 756.7 430 c 128,-1,19
 642.4 547 642.4 547 642.4 741 c 0,20,21
 642.4 936 642.4 936 756.7 1052.5 c 128,-1,22
 871 1169 871 1169 1060.9 1169 c 0,23,24
 1123 1169 1123 1169 1180.6 1158.5 c 128,-1,25
 1238.2 1148 1238.2 1148 1293.1 1126 c 1,0,-1
1024 1331 m 0,26,27
 915.1 1331 915.1 1331 821.5 1287.5 c 128,-1,28
 727.9 1244 727.9 1244 649.6 1157 c 0,29,30
 571.3 1070 571.3 1070 532.15 966.5 c 128,-1,31
 493 863 493 863 493 741 c 0,32,33
 493 620 493 620 532.15 516.5 c 128,-1,34
 571.3 413 571.3 413 649.6 326 c 0,35,36
 727 240 727 240 821.05 197 c 128,-1,37
 915.1 154 915.1 154 1024 154 c 0,38,39
 1134.7 154 1134.7 154 1227.4 196.5 c 128,-1,40
 1320.1 239 1320.1 239 1398.4 326 c 0,41,42
 1476.7 413 1476.7 413 1515.85 516.5 c 128,-1,43
 1555 620 1555 620 1555 741 c 0,44,45
 1555 863 1555 863 1515.85 966.5 c 128,-1,46
 1476.7 1070 1476.7 1070 1398.4 1157 c 0,47,48
 1319.2 1245 1319.2 1245 1226.05 1288 c 128,-1,49
 1132.9 1331 1132.9 1331 1024 1331 c 0,26,27
1024 1485 m 0,50,51
 1160.8 1485 1160.8 1485 1279.15 1430 c 128,-1,52
 1397.5 1375 1397.5 1375 1495.6 1266 c 0,53,54
 1593.7 1157 1593.7 1157 1642.3 1026 c 128,-1,55
 1690.9 895 1690.9 895 1690.9 741 c 0,56,57
 1690.9 589 1690.9 589 1642.3 458.5 c 128,-1,58
 1593.7 328 1593.7 328 1495.6 219 c 0,59,60
 1397.5 110 1397.5 110 1279.15 55 c 128,-1,61
 1160.8 0 1160.8 0 1024 0 c 0,62,63
 887.2 0 887.2 0 768.85 55 c 128,-1,64
 650.5 110 650.5 110 552.4 219 c 0,65,66
 454.3 328 454.3 328 405.7 458.5 c 128,-1,67
 357.1 589 357.1 589 357.1 741 c 0,68,69
 357.1 895 357.1 895 405.7 1026 c 128,-1,70
 454.3 1157 454.3 1157 552.4 1266 c 0,71,72
 650.5 1375 650.5 1375 768.85 1430 c 128,-1,73
 887.2 1485 887.2 1485 1024 1485 c 0,50,51
EndSplineSet
EndChar
StartChar: ordfeminine
Encoding: 170 170 157
Width: 1097
Flags: HW
Fore
216.35 573 m 1,0,-1
 948.05 573 l 1,1,-1
 948.05 373 l 1,2,-1
 216.35 373 l 1,3,-1
 216.35 573 l 1,0,-1
636.65 1081 m 2,4,5
 516.95 1081 516.95 1081 470.15 1055 c 128,-1,6
 423.35 1029 423.35 1029 423.35 967 c 0,7,8
 423.35 916 423.35 916 453.05 887 c 128,-1,9
 482.75 858 482.75 858 534.95 858 c 0,10,11
 615.05 858 615.05 858 666.35 915 c 128,-1,12
 717.65 972 717.65 972 717.65 1059 c 2,13,-1
 717.65 1081 l 1,14,-1
 636.65 1081 l 2,4,5
958.85 1165 m 2,15,-1
 958.85 717 l 1,16,-1
 738.35 717 l 1,17,-1
 738.35 844 l 1,18,19
 688.85 768 688.85 768 625.85 732 c 128,-1,20
 562.85 696 562.85 696 478.25 696 c 0,21,22
 347.75 696 347.75 696 273.95 763 c 128,-1,23
 200.15 830 200.15 830 200.15 946 c 0,24,25
 200.15 1087 200.15 1087 294.65 1153 c 128,-1,26
 389.15 1219 389.15 1219 592.55 1219 c 2,27,-1
 715.85 1219 l 1,28,-1
 715.85 1239 l 2,29,30
 715.85 1295 715.85 1295 675.8 1324.5 c 128,-1,31
 635.75 1354 635.75 1354 559.25 1354 c 0,32,33
 480.95 1354 480.95 1354 406.25 1336.5 c 128,-1,34
 331.55 1319 331.55 1319 260.45 1284 c 1,35,-1
 260.45 1464 l 1,36,37
 343.25 1492 343.25 1492 419.3 1506 c 128,-1,38
 495.35 1520 495.35 1520 562.85 1520 c 0,39,40
 764.45 1520 764.45 1520 861.65 1432.5 c 128,-1,41
 958.85 1345 958.85 1345 958.85 1165 c 2,15,-1
EndSplineSet
EndChar
StartChar: guillemotleft
Encoding: 171 171 169
Width: 1255
Flags: HW
Fore
650.3 1063 m 1,0,-1
 650.3 821 l 1,1,-1
 386.6 600 l 1,2,-1
 650.3 379 l 1,3,-1
 650.3 137 l 1,4,-1
 206.6 506 l 1,5,-1
 206.6 692 l 1,6,-1
 650.3 1063 l 1,0,-1
1081.4 1063 m 1,7,-1
 1081.4 821 l 1,8,-1
 818.6 600 l 1,9,-1
 1081.4 379 l 1,10,-1
 1081.4 137 l 1,11,-1
 637.7 506 l 1,12,-1
 637.7 692 l 1,13,-1
 1081.4 1063 l 1,7,-1
EndSplineSet
EndChar
StartChar: logicalnot
Encoding: 172 172 164
Width: 1630
Flags: HW
Fore
281.1 909 m 1,0,-1
 1434.9 909 l 1,1,-1
 1434.9 287 l 1,2,-1
 1223.4 287 l 1,3,-1
 1223.4 672 l 1,4,-1
 281.1 672 l 1,5,-1
 281.1 909 l 1,0,-1
EndSplineSet
EndChar
StartChar: sfthyphen
Encoding: 173 173 256
Width: 807
Flags: HW
Fore
142.4 735 m 1,0,-1
 707.6 735 l 1,1,-1
 707.6 444 l 1,2,-1
 142.4 444 l 1,3,-1
 142.4 735 l 1,0,-1
EndSplineSet
EndChar
StartChar: registered
Encoding: 174 174 138
Width: 1945
Flags: HW
Fore
1024 1331 m 0,0,1
 915.1 1331 915.1 1331 821.5 1287.5 c 128,-1,2
 727.9 1244 727.9 1244 649.6 1157 c 0,3,4
 571.3 1070 571.3 1070 532.15 966.5 c 128,-1,5
 493 863 493 863 493 741 c 0,6,7
 493 620 493 620 532.15 516.5 c 128,-1,8
 571.3 413 571.3 413 649.6 326 c 0,9,10
 727 240 727 240 821.05 197 c 128,-1,11
 915.1 154 915.1 154 1024 154 c 0,12,13
 1134.7 154 1134.7 154 1227.4 196.5 c 128,-1,14
 1320.1 239 1320.1 239 1398.4 326 c 0,15,16
 1476.7 413 1476.7 413 1515.85 516.5 c 128,-1,17
 1555 620 1555 620 1555 741 c 0,18,19
 1555 863 1555 863 1515.85 966.5 c 128,-1,20
 1476.7 1070 1476.7 1070 1398.4 1157 c 0,21,22
 1319.2 1245 1319.2 1245 1226.05 1288 c 128,-1,23
 1132.9 1331 1132.9 1331 1024 1331 c 0,0,1
972.7 1036 m 2,24,-1
 941.2 1036 l 1,25,-1
 941.2 829 l 1,26,-1
 972.7 829 l 2,27,28
 1042.9 829 1042.9 829 1078.45 855.5 c 128,-1,29
 1114 882 1114 882 1114 934 c 0,30,31
 1114 986 1114 986 1079.35 1011 c 128,-1,32
 1044.7 1036 1044.7 1036 972.7 1036 c 2,24,-1
1006 1174 m 2,33,34
 1164.4 1174 1164.4 1174 1242.7 1114.5 c 128,-1,35
 1321 1055 1321 1055 1321 934 c 0,36,37
 1321 848 1321 848 1273.75 792 c 128,-1,38
 1226.5 736 1226.5 736 1140.1 719 c 1,39,40
 1177 697 1177 697 1208.95 657 c 128,-1,41
 1240.9 617 1240.9 617 1267 559 c 2,42,-1
 1366.9 338 l 1,43,-1
 1160.8 338 l 1,44,-1
 1064.5 551 l 1,45,46
 1030.3 629 1030.3 629 1004.2 661.5 c 128,-1,47
 978.1 694 978.1 694 952 694 c 2,48,-1
 941.2 694 l 1,49,-1
 941.2 338 l 1,50,-1
 749.5 338 l 1,51,-1
 749.5 1174 l 1,52,-1
 1006 1174 l 2,33,34
1024 1485 m 0,53,54
 1160.8 1485 1160.8 1485 1279.15 1430 c 128,-1,55
 1397.5 1375 1397.5 1375 1495.6 1266 c 0,56,57
 1593.7 1157 1593.7 1157 1642.3 1026 c 128,-1,58
 1690.9 895 1690.9 895 1690.9 741 c 0,59,60
 1690.9 589 1690.9 589 1642.3 458.5 c 128,-1,61
 1593.7 328 1593.7 328 1495.6 219 c 0,62,63
 1397.5 110 1397.5 110 1279.15 55 c 128,-1,64
 1160.8 0 1160.8 0 1024 0 c 0,65,66
 887.2 0 887.2 0 768.85 55 c 128,-1,67
 650.5 110 650.5 110 552.4 219 c 0,68,69
 454.3 328 454.3 328 405.7 458.5 c 128,-1,70
 357.1 589 357.1 589 357.1 741 c 0,71,72
 357.1 895 357.1 895 405.7 1026 c 128,-1,73
 454.3 1157 454.3 1157 552.4 1266 c 0,74,75
 650.5 1375 650.5 1375 768.85 1430 c 128,-1,76
 887.2 1485 887.2 1485 1024 1485 c 0,53,54
EndSplineSet
EndChar
StartChar: macron
Encoding: 175 175 217
Width: 972
Flags: HW
Fore
228.5 1556 m 1,0,-1
 795.5 1556 l 1,1,-1
 795.5 1368 l 1,2,-1
 228.5 1368 l 1,3,-1
 228.5 1556 l 1,0,-1
EndSplineSet
Ligature: 0 1 'liga' space uni0304
EndChar
StartChar: degree
Encoding: 176 176 131
Width: 972
Flags: HW
Fore
511.9 1372 m 0,0,1
 447.1 1372 447.1 1372 402.1 1322 c 128,-1,2
 357.1 1272 357.1 1272 357.1 1200 c 0,3,4
 357.1 1128 357.1 1128 401.65 1079 c 128,-1,5
 446.2 1030 446.2 1030 511.9 1030 c 0,6,7
 576.7 1030 576.7 1030 621.7 1079.5 c 128,-1,8
 666.7 1129 666.7 1129 666.7 1200 c 0,9,10
 666.7 1272 666.7 1272 621.25 1322 c 128,-1,11
 575.8 1372 575.8 1372 511.9 1372 c 0,0,1
511.9 1534 m 0,12,13
 571.3 1534 571.3 1534 626.2 1508.5 c 128,-1,14
 681.1 1483 681.1 1483 724.3 1436 c 1,15,16
 766.6 1388 766.6 1388 788.65 1328 c 128,-1,17
 810.7 1268 810.7 1268 810.7 1200 c 0,18,19
 810.7 1133 810.7 1133 788.65 1072.5 c 128,-1,20
 766.6 1012 766.6 1012 726.1 967 c 0,21,22
 682.9 919 682.9 919 627.1 893.5 c 128,-1,23
 571.3 868 571.3 868 510.1 868 c 0,24,25
 383.2 868 383.2 868 297.25 963.5 c 128,-1,26
 211.3 1059 211.3 1059 211.3 1200 c 0,27,28
 211.3 1341 211.3 1341 298.15 1437.5 c 128,-1,29
 385 1534 385 1534 511.9 1534 c 0,12,13
EndSplineSet
EndChar
StartChar: plusminus
Encoding: 177 177 147
Width: 1630
Flags: HW
Fore
965.1 1284 m 1,0,-1
 965.1 930 l 1,1,-1
 1434.9 930 l 1,2,-1
 1434.9 694 l 1,3,-1
 965.1 694 l 1,4,-1
 965.1 340 l 1,5,-1
 750.9 340 l 1,6,-1
 750.9 694 l 1,7,-1
 281.1 694 l 1,8,-1
 281.1 930 l 1,9,-1
 750.9 930 l 1,10,-1
 750.9 1284 l 1,11,-1
 965.1 1284 l 1,0,-1
281.1 238 m 1,12,-1
 1434.9 238 l 1,13,-1
 1434.9 0 l 1,14,-1
 281.1 0 l 1,15,-1
 281.1 238 l 1,12,-1
EndSplineSet
EndChar
StartChar: twosuperior
Encoding: 178 178 241
Width: 851
Flags: HW
Fore
415.35 836 m 1,0,-1
 748.35 836 l 1,1,-1
 748.35 668 l 1,2,-1
 142.65 668 l 1,3,-1
 142.65 821 l 1,4,-1
 424.35 1087 l 2,5,6
 479.25 1140 479.25 1140 502.65 1180 c 128,-1,7
 526.05 1220 526.05 1220 526.05 1260 c 0,8,9
 526.05 1310 526.05 1310 493.2 1341 c 128,-1,10
 460.35 1372 460.35 1372 407.25 1372 c 0,11,12
 351.45 1372 351.45 1372 287.55 1349.5 c 128,-1,13
 223.65 1327 223.65 1327 148.05 1280 c 1,14,-1
 148.05 1466 l 1,15,16
 226.35 1493 226.35 1493 299.7 1506.5 c 128,-1,17
 373.05 1520 373.05 1520 440.55 1520 c 0,18,19
 582.75 1520 582.75 1520 663.75 1455.5 c 128,-1,20
 744.75 1391 744.75 1391 744.75 1280 c 0,21,22
 744.75 1208 744.75 1208 712.8 1147.5 c 128,-1,23
 680.85 1087 680.85 1087 589.95 1001 c 2,24,-1
 415.35 836 l 1,0,-1
EndSplineSet
EndChar
StartChar: threesuperior
Encoding: 179 179 242
Width: 851
Flags: HW
Fore
576.6 1120 m 1,0,1
 659.4 1102 659.4 1102 705.3 1047 c 128,-1,2
 751.2 992 751.2 992 751.2 911 c 0,3,4
 751.2 782 751.2 782 662.1 717.5 c 128,-1,5
 573 653 573 653 392.1 653 c 0,6,7
 319.2 653 319.2 653 252.6 664.5 c 128,-1,8
 186 676 186 676 124.8 698 c 1,9,-1
 124.8 872 l 1,10,11
 184.2 836 184.2 836 241.8 817.5 c 128,-1,12
 299.4 799 299.4 799 353.4 799 c 0,13,14
 438.9 799 438.9 799 485.7 831 c 128,-1,15
 532.5 863 532.5 863 532.5 922 c 0,16,17
 532.5 986 532.5 986 484.35 1016.5 c 128,-1,18
 436.2 1047 436.2 1047 333.6 1047 c 2,19,-1
 267 1047 l 1,20,-1
 267 1184 l 1,21,-1
 342.6 1184 l 2,22,23
 430.8 1184 430.8 1184 471.3 1207.5 c 128,-1,24
 511.8 1231 511.8 1231 511.8 1282 c 0,25,26
 511.8 1327 511.8 1327 476.7 1349.5 c 128,-1,27
 441.6 1372 441.6 1372 369.6 1372 c 0,28,29
 322.8 1372 322.8 1372 267.45 1359 c 128,-1,30
 212.1 1346 212.1 1346 149.1 1319 c 1,31,-1
 149.1 1485 l 1,32,33
 207.6 1502 207.6 1502 275.55 1511 c 128,-1,34
 343.5 1520 343.5 1520 421.8 1520 c 0,35,36
 572.1 1520 572.1 1520 651.75 1464 c 128,-1,37
 731.4 1408 731.4 1408 731.4 1303 c 0,38,39
 731.4 1234 731.4 1234 690.9 1186 c 128,-1,40
 650.4 1138 650.4 1138 576.6 1120 c 1,0,1
EndSplineSet
EndChar
StartChar: acute
Encoding: 180 180 141
Width: 986
Flags: HW
Fore
647.05 1638 m 1,0,-1
 901.75 1638 l 1,1,-1
 569.65 1262 l 1,2,-1
 393.25 1262 l 1,3,-1
 647.05 1638 l 1,0,-1
EndSplineSet
LCarets: 0 65535 '    ' 1 0 
Ligature: 0 1 'liga' space acutecomb
EndChar
StartChar: mu
Encoding: 181 181 151
Width: 1437
Flags: HW
Fore
237.4 -428 m 1,0,-1
 237.4 1120 l 1,1,-1
 562.3 1120 l 1,2,-1
 562.3 469 l 2,3,4
 562.3 353 562.3 353 607.3 296.5 c 128,-1,5
 652.3 240 652.3 240 744.1 240 c 0,6,7
 836.8 240 836.8 240 881.8 296.5 c 128,-1,8
 926.8 353 926.8 353 926.8 469 c 2,9,-1
 926.8 1120 l 1,10,-1
 1250.8 1120 l 1,11,-1
 1250.8 371 l 2,12,13
 1250.8 300 1250.8 300 1265.65 272 c 128,-1,14
 1280.5 244 1280.5 244 1315.6 244 c 0,15,16
 1331.8 244 1331.8 244 1346.65 249 c 128,-1,17
 1361.5 254 1361.5 254 1378.6 266 c 1,18,-1
 1378.6 16 l 1,19,20
 1330.9 -7 1330.9 -7 1289.05 -18 c 128,-1,21
 1247.2 -29 1247.2 -29 1206.7 -29 c 0,22,23
 1126.6 -29 1126.6 -29 1075.75 8.5 c 128,-1,24
 1024.9 46 1024.9 46 993.4 129 c 1,25,26
 951.1 50 951.1 50 890.35 10.5 c 128,-1,27
 829.6 -29 829.6 -29 749.5 -29 c 0,28,29
 682.9 -29 682.9 -29 636.1 -5.5 c 128,-1,30
 589.3 18 589.3 18 562.3 66 c 1,31,-1
 562.3 -428 l 1,32,-1
 237.4 -428 l 1,0,-1
EndSplineSet
EndChar
StartChar: paragraph
Encoding: 182 182 136
Width: 1235
Flags: HW
Fore
606.25 1493 m 2,0,-1
 1074.25 1493 l 1,1,-1
 1074.25 -197 l 1,2,-1
 903.25 -197 l 1,3,-1
 903.25 1346 l 1,4,-1
 733.15 1346 l 1,5,-1
 733.15 -197 l 1,6,-1
 562.15 -197 l 1,7,-1
 562.15 649 l 1,8,9
 378.55 674 378.55 674 278.65 783.5 c 128,-1,10
 178.75 893 178.75 893 178.75 1071 c 0,11,12
 178.75 1261 178.75 1261 295.75 1377 c 128,-1,13
 412.75 1493 412.75 1493 606.25 1493 c 2,0,-1
EndSplineSet
EndChar
StartChar: periodcentered
Encoding: 183 183 195
Width: 739
Flags: HW
Fore
227 905 m 1,0,-1
 551 905 l 1,1,-1
 551 518 l 1,2,-1
 227 518 l 1,3,-1
 227 905 l 1,0,-1
EndSplineSet
EndChar
StartChar: cedilla
Encoding: 184 184 221
Width: 970
Flags: HW
Fore
590.65 0 m 1,0,1
 642.85 -62 642.85 -62 667.6 -115 c 128,-1,2
 692.35 -168 692.35 -168 692.35 -215 c 0,3,4
 692.35 -310 692.35 -310 637 -355.5 c 128,-1,5
 581.65 -401 581.65 -401 467.35 -401 c 0,6,7
 424.15 -401 424.15 -401 378.25 -394.5 c 128,-1,8
 332.35 -388 332.35 -388 285.55 -375 c 1,9,-1
 284.65 -223 l 1,10,11
 329.65 -239 329.65 -239 367 -246.5 c 128,-1,12
 404.35 -254 404.35 -254 434.05 -254 c 0,13,14
 486.25 -254 486.25 -254 515.5 -231 c 128,-1,15
 544.75 -208 544.75 -208 544.75 -168 c 0,16,17
 544.75 -142 544.75 -142 525.4 -101 c 128,-1,18
 506.05 -60 506.05 -60 465.55 0 c 1,19,-1
 590.65 0 l 1,0,1
EndSplineSet
Ligature: 0 1 'liga' space uni0327
EndChar
StartChar: onesuperior
Encoding: 185 185 240
Width: 852
Flags: HW
Fore
172.15 825 m 1,0,-1
 358.45 825 l 1,1,-1
 358.45 1346 l 1,2,-1
 155.95 1294 l 1,3,-1
 155.95 1454 l 1,4,-1
 362.05 1503 l 1,5,-1
 565.45 1503 l 1,6,-1
 565.45 825 l 1,7,-1
 749.05 825 l 1,8,-1
 749.05 668 l 1,9,-1
 172.15 668 l 1,10,-1
 172.15 825 l 1,0,-1
EndSplineSet
EndChar
StartChar: ordmasculine
Encoding: 186 186 158
Width: 1097
Flags: HW
Fore
577.95 1520 m 0,0,1
 769.65 1520 769.65 1520 880.8 1409 c 128,-1,2
 991.95 1298 991.95 1298 991.95 1108 c 0,3,4
 991.95 918 991.95 918 881.25 808 c 128,-1,5
 770.55 698 770.55 698 577.95 698 c 0,6,7
 385.35 698 385.35 698 274.2 808 c 128,-1,8
 163.05 918 163.05 918 163.05 1108 c 0,9,10
 163.05 1298 163.05 1298 274.2 1409 c 128,-1,11
 385.35 1520 385.35 1520 577.95 1520 c 0,0,1
207.15 573 m 1,12,-1
 947.85 573 l 1,13,-1
 947.85 373 l 1,14,-1
 207.15 373 l 1,15,-1
 207.15 573 l 1,12,-1
577.95 1350 m 0,16,17
 502.35 1350 502.35 1350 461.4 1287 c 128,-1,18
 420.45 1224 420.45 1224 420.45 1108 c 0,19,20
 420.45 992 420.45 992 461.4 930 c 128,-1,21
 502.35 868 502.35 868 577.95 868 c 0,22,23
 652.65 868 652.65 868 693.6 930 c 128,-1,24
 734.55 992 734.55 992 734.55 1108 c 0,25,26
 734.55 1224 734.55 1224 693.6 1287 c 128,-1,27
 652.65 1350 652.65 1350 577.95 1350 c 0,16,17
EndSplineSet
EndChar
StartChar: guillemotright
Encoding: 187 187 170
Width: 1258
Flags: HW
Fore
672.7 1063 m 1,0,-1
 1116.4 692 l 1,1,-1
 1116.4 506 l 1,2,-1
 672.7 137 l 1,3,-1
 672.7 379 l 1,4,-1
 936.4 600 l 1,5,-1
 672.7 821 l 1,6,-1
 672.7 1063 l 1,0,-1
241.6 1063 m 1,7,-1
 683.5 692 l 1,8,-1
 683.5 506 l 1,9,-1
 241.6 137 l 1,10,-1
 241.6 379 l 1,11,-1
 504.4 600 l 1,12,-1
 241.6 821 l 1,13,-1
 241.6 1063 l 1,7,-1
EndSplineSet
EndChar
StartChar: onequarter
Encoding: 188 188 243
Width: 2011
Flags: HW
Fore
1536.7 641 m 1,0,-1
 1321.6 317 l 1,1,-1
 1536.7 317 l 1,2,-1
 1536.7 641 l 1,0,-1
1520.5 836 m 1,3,-1
 1743.7 836 l 1,4,-1
 1743.7 317 l 1,5,-1
 1867 317 l 1,6,-1
 1867 162 l 1,7,-1
 1743.7 162 l 1,8,-1
 1743.7 0 l 1,9,-1
 1536.7 0 l 1,10,-1
 1536.7 162 l 1,11,-1
 1184.8 162 l 1,12,-1
 1184.8 330 l 1,13,-1
 1520.5 836 l 1,3,-1
762.7 -29 m 1,14,-1
 562 -29 l 1,15,-1
 1402.6 1520 l 1,16,-1
 1603.3 1520 l 1,17,-1
 762.7 -29 l 1,14,-1
210.1 825 m 1,18,-1
 394.6 825 l 1,19,-1
 394.6 1346 l 1,20,-1
 193 1294 l 1,21,-1
 193 1454 l 1,22,-1
 400 1503 l 1,23,-1
 600.7 1503 l 1,24,-1
 600.7 825 l 1,25,-1
 785.2 825 l 1,26,-1
 785.2 668 l 1,27,-1
 210.1 668 l 1,28,-1
 210.1 825 l 1,18,-1
EndSplineSet
Ligature: 0 1 'frac' one slash four
Ligature: 0 1 'frac' one fraction four
EndChar
StartChar: onehalf
Encoding: 189 189 244
Width: 2014
Flags: HW
Fore
1590.15 168 m 1,0,-1
 1924.95 168 l 1,1,-1
 1924.95 0 l 1,2,-1
 1317.45 0 l 1,3,-1
 1317.45 154 l 1,4,-1
 1600.95 422 l 2,5,6
 1656.75 475 1656.75 475 1679.7 514 c 128,-1,7
 1702.65 553 1702.65 553 1702.65 592 c 0,8,9
 1702.65 642 1702.65 642 1669.35 673.5 c 128,-1,10
 1636.05 705 1636.05 705 1582.05 705 c 0,11,12
 1526.25 705 1526.25 705 1463.7 682.5 c 128,-1,13
 1401.15 660 1401.15 660 1324.65 612 c 1,14,-1
 1324.65 799 l 1,15,16
 1403.85 826 1403.85 826 1476.3 839 c 128,-1,17
 1548.75 852 1548.75 852 1615.35 852 c 0,18,19
 1758.45 852 1758.45 852 1839 788.5 c 128,-1,20
 1919.55 725 1919.55 725 1919.55 614 c 0,21,22
 1919.55 542 1919.55 542 1886.7 480 c 128,-1,23
 1853.85 418 1853.85 418 1764.75 334 c 2,24,-1
 1590.15 168 l 1,0,-1
765.75 -29 m 1,25,-1
 565.05 -29 l 1,26,-1
 1405.65 1520 l 1,27,-1
 1606.35 1520 l 1,28,-1
 765.75 -29 l 1,25,-1
213.15 825 m 1,29,-1
 397.65 825 l 1,30,-1
 397.65 1346 l 1,31,-1
 196.05 1294 l 1,32,-1
 196.05 1454 l 1,33,-1
 403.05 1503 l 1,34,-1
 603.75 1503 l 1,35,-1
 603.75 825 l 1,36,-1
 788.25 825 l 1,37,-1
 788.25 668 l 1,38,-1
 213.15 668 l 1,39,-1
 213.15 825 l 1,29,-1
EndSplineSet
Ligature: 0 1 'frac' one slash two
Ligature: 0 1 'frac' one fraction two
EndChar
StartChar: threequarters
Encoding: 190 190 245
Width: 2011
Flags: HW
Fore
1520.7 836 m 1,0,-1
 1743.9 836 l 1,1,-1
 1743.9 317 l 1,2,-1
 1867.2 317 l 1,3,-1
 1867.2 162 l 1,4,-1
 1743.9 162 l 1,5,-1
 1743.9 0 l 1,6,-1
 1536.9 0 l 1,7,-1
 1536.9 162 l 1,8,-1
 1185 162 l 1,9,-1
 1185 330 l 1,10,-1
 1520.7 836 l 1,0,-1
1536.9 641 m 1,11,-1
 1321.8 317 l 1,12,-1
 1536.9 317 l 1,13,-1
 1536.9 641 l 1,11,-1
648.6 1120 m 1,14,15
 732.3 1102 732.3 1102 778.2 1047 c 128,-1,16
 824.1 992 824.1 992 824.1 911 c 0,17,18
 824.1 782 824.1 782 734.55 717.5 c 128,-1,19
 645 653 645 653 464.1 653 c 0,20,21
 391.2 653 391.2 653 324.6 664.5 c 128,-1,22
 258 676 258 676 196.8 698 c 1,23,-1
 196.8 872 l 1,24,25
 256.2 836 256.2 836 313.8 817.5 c 128,-1,26
 371.4 799 371.4 799 425.4 799 c 0,27,28
 510.9 799 510.9 799 557.7 831 c 128,-1,29
 604.5 863 604.5 863 604.5 922 c 0,30,31
 604.5 986 604.5 986 556.8 1016.5 c 128,-1,32
 509.1 1047 509.1 1047 405.6 1047 c 2,33,-1
 339 1047 l 1,34,-1
 339 1184 l 1,35,-1
 414.6 1184 l 2,36,37
 502.8 1184 502.8 1184 543.75 1207.5 c 128,-1,38
 584.7 1231 584.7 1231 584.7 1282 c 0,39,40
 584.7 1327 584.7 1327 549.15 1349.5 c 128,-1,41
 513.6 1372 513.6 1372 442.5 1372 c 0,42,43
 394.8 1372 394.8 1372 339.9 1359 c 128,-1,44
 285 1346 285 1346 221.1 1319 c 1,45,-1
 221.1 1485 l 1,46,47
 279.6 1502 279.6 1502 348 1511 c 128,-1,48
 416.4 1520 416.4 1520 493.8 1520 c 0,49,50
 644.1 1520 644.1 1520 723.75 1464 c 128,-1,51
 803.4 1408 803.4 1408 803.4 1303 c 0,52,53
 803.4 1234 803.4 1234 762.9 1186 c 128,-1,54
 722.4 1138 722.4 1138 648.6 1120 c 1,14,15
762.9 -29 m 1,55,-1
 562.2 -29 l 1,56,-1
 1402.8 1520 l 1,57,-1
 1603.5 1520 l 1,58,-1
 762.9 -29 l 1,55,-1
EndSplineSet
Ligature: 0 1 'frac' three slash four
Ligature: 0 1 'frac' three fraction four
EndChar
StartChar: questiondown
Encoding: 191 191 162
Width: 1129
Flags: HW
Fore
498.1 987 m 1,0,-1
 823 987 l 1,1,-1
 823 938 l 2,2,3
 823 857 823 857 793.75 794 c 128,-1,4
 764.5 731 764.5 731 666.4 631 c 2,5,-1
 608.8 573 l 2,6,7
 558.4 522 558.4 522 535 476 c 128,-1,8
 511.6 430 511.6 430 511.6 383 c 0,9,10
 511.6 313 511.6 313 554.8 273 c 128,-1,11
 598 233 598 233 675.4 233 c 0,12,13
 748.3 233 748.3 233 833.35 267 c 128,-1,14
 918.4 301 918.4 301 1009.3 367 c 1,15,-1
 1009.3 53 l 1,16,17
 902.2 11 902.2 11 810.85 -9 c 128,-1,18
 719.5 -29 719.5 -29 636.7 -29 c 0,19,20
 417.1 -29 417.1 -29 301.9 70.5 c 128,-1,21
 186.7 170 186.7 170 186.7 360 c 0,22,23
 186.7 459 186.7 459 221.8 536.5 c 128,-1,24
 256.9 614 256.9 614 341.5 702 c 1,25,-1
 399.1 760 l 2,26,27
 460.3 821 460.3 821 479.2 859 c 128,-1,28
 498.1 897 498.1 897 498.1 942 c 2,29,-1
 498.1 987 l 1,0,-1
823 1137 m 1,30,-1
 498.1 1137 l 1,31,-1
 498.1 1493 l 1,32,-1
 823 1493 l 1,33,-1
 823 1137 l 1,30,-1
EndSplineSet
EndChar
StartChar: Aring
Encoding: 197 197 99
Width: 1505
Flags: HW
Fore
1008.05 1464 m 1,0,-1
 1496.75 0 l 1,1,-1
 1148.45 0 l 1,2,-1
 1063.85 272 l 1,3,-1
 522.05 272 l 1,4,-1
 436.55 0 l 1,5,-1
 88.25 0 l 1,6,-1
 576.95 1464 l 1,7,8
 556.25 1498 556.25 1498 546.35 1535.5 c 128,-1,9
 536.45 1573 536.45 1573 536.45 1616 c 0,10,11
 536.45 1733 536.45 1733 611.6 1817 c 128,-1,12
 686.75 1901 686.75 1901 792.95 1901 c 0,13,14
 897.35 1901 897.35 1901 972.95 1817 c 128,-1,15
 1048.55 1733 1048.55 1733 1048.55 1616 c 0,16,17
 1048.55 1569 1048.55 1569 1038.65 1531 c 128,-1,18
 1028.75 1493 1028.75 1493 1008.05 1464 c 1,0,-1
675.05 1616 m 0,19,20
 675.05 1562 675.05 1562 709.7 1523.5 c 128,-1,21
 744.35 1485 744.35 1485 792.95 1485 c 0,22,23
 841.55 1485 841.55 1485 876.2 1523.5 c 128,-1,24
 910.85 1562 910.85 1562 910.85 1616 c 0,25,26
 910.85 1670 910.85 1670 875.75 1708.5 c 128,-1,27
 840.65 1747 840.65 1747 792.95 1747 c 0,28,29
 744.35 1747 744.35 1747 709.7 1708.5 c 128,-1,30
 675.05 1670 675.05 1670 675.05 1616 c 0,19,20
608.45 549 m 1,31,-1
 976.55 549 l 1,32,-1
 792.95 1143 l 1,33,-1
 608.45 549 l 1,31,-1
EndSplineSet
Ligature: 0 0 'liga' A uni030A
EndChar
StartChar: AE
Encoding: 198 198 144
Width: 2103
Flags: HW
Fore
905.55 1237 m 1,0,-1
 675.15 627 l 1,1,-1
 1014.45 627 l 1,2,-1
 1014.45 1237 l 1,3,-1
 905.55 1237 l 1,0,-1
666.15 1493 m 1,4,-1
 1948.65 1493 l 1,5,-1
 1948.65 1202 l 1,6,-1
 1360.95 1202 l 1,7,-1
 1360.95 924 l 1,8,-1
 1913.55 924 l 1,9,-1
 1913.55 633 l 1,10,-1
 1360.95 633 l 1,11,-1
 1360.95 291 l 1,12,-1
 1969.35 291 l 1,13,-1
 1969.35 0 l 1,14,-1
 1014.45 0 l 1,15,-1
 1014.45 350 l 1,16,-1
 569.85 350 l 1,17,-1
 437.55 0 l 1,18,-1
 103.65 0 l 1,19,-1
 666.15 1493 l 1,4,-1
EndSplineSet
KernsSLIF: 45 -36 0 0
EndChar
StartChar: Eth
Encoding: 208 208 232
Width: 1626
Flags: HW
Fore
615.05 1202 m 1,0,-1
 615.05 881 l 1,1,-1
 826.55 881 l 1,2,-1
 826.55 621 l 1,3,-1
 615.05 621 l 1,4,-1
 615.05 291 l 1,5,-1
 738.35 291 l 2,6,7
 950.75 291 950.75 291 1062.8 408 c 128,-1,8
 1174.85 525 1174.85 525 1174.85 748 c 0,9,10
 1174.85 970 1174.85 970 1063.25 1086 c 128,-1,11
 951.65 1202 951.65 1202 738.35 1202 c 2,12,-1
 615.05 1202 l 1,0,-1
268.55 1493 m 1,13,-1
 633.05 1493 l 2,14,15
 939.95 1493 939.95 1493 1089.35 1444.5 c 128,-1,16
 1238.75 1396 1238.75 1396 1346.75 1280 c 0,17,18
 1440.35 1179 1440.35 1179 1486.7 1047 c 128,-1,19
 1533.05 915 1533.05 915 1533.05 748 c 0,20,21
 1533.05 579 1533.05 579 1486.7 446.5 c 128,-1,22
 1440.35 314 1440.35 314 1346.75 213 c 0,23,24
 1237.85 97 1237.85 97 1086.65 48.5 c 128,-1,25
 935.45 0 935.45 0 633.05 0 c 2,26,-1
 268.55 0 l 1,27,-1
 268.55 621 l 1,28,-1
 111.95 621 l 1,29,-1
 111.95 881 l 1,30,-1
 268.55 881 l 1,31,-1
 268.55 1493 l 1,13,-1
EndSplineSet
KernsSLIF: 221 -149 0 0 8222 -36 0 0 8218 -36 0 0 376 -149 0 0 89 -149 0 0 45 38 0 0
EndChar
StartChar: multiply
Encoding: 215 215 239
Width: 1630
Flags: HW
Fore
1399.8 1075 m 1,0,-1
 1009.2 641 l 1,1,-1
 1399.8 209 l 1,2,-1
 1248.6 41 l 1,3,-1
 858 473 l 1,4,-1
 467.4 41 l 1,5,-1
 316.2 209 l 1,6,-1
 706.8 641 l 1,7,-1
 316.2 1075 l 1,8,-1
 467.4 1243 l 1,9,-1
 858 809 l 1,10,-1
 1248.6 1243 l 1,11,-1
 1399.8 1075 l 1,0,-1
EndSplineSet
EndChar
StartChar: Oslash
Encoding: 216 216 145
Width: 1653
Flags: HW
Fore
630.15 371 m 1,0,1
 676.95 309 676.95 309 735.9 279.5 c 128,-1,2
 794.85 250 794.85 250 869.55 250 c 0,3,4
 1028.85 250 1028.85 250 1116.15 380 c 128,-1,5
 1203.45 510 1203.45 510 1203.45 745 c 0,6,7
 1203.45 813 1203.45 813 1196.7 871.5 c 128,-1,8
 1189.95 930 1189.95 930 1175.55 979 c 1,9,-1
 630.15 371 l 1,0,1
1106.25 1126 m 1,10,11
 1060.35 1184 1060.35 1184 1001.85 1212.5 c 128,-1,12
 943.35 1241 943.35 1241 869.55 1241 c 0,13,14
 711.15 1241 711.15 1241 623.85 1111 c 128,-1,15
 536.55 981 536.55 981 536.55 745 c 0,16,17
 536.55 681 536.55 681 542.85 624.5 c 128,-1,18
 549.15 568 549.15 568 561.75 522 c 1,19,-1
 1106.25 1126 l 1,10,11
311.55 244 m 1,20,21
 244.95 344 244.95 344 211.65 469 c 128,-1,22
 178.35 594 178.35 594 178.35 745 c 0,23,24
 178.35 1108 178.35 1108 362.4 1314 c 128,-1,25
 546.45 1520 546.45 1520 869.55 1520 c 0,26,27
 1008.15 1520 1008.15 1520 1119.75 1482.5 c 128,-1,28
 1231.35 1445 1231.35 1445 1323.15 1368 c 1,29,-1
 1502.25 1567 l 1,30,-1
 1603.95 1452 l 1,31,-1
 1423.05 1253 l 1,32,33
 1492.35 1154 1492.35 1154 1526.55 1026.5 c 128,-1,34
 1560.75 899 1560.75 899 1560.75 745 c 0,35,36
 1560.75 383 1560.75 383 1377.15 177 c 128,-1,37
 1193.55 -29 1193.55 -29 869.55 -29 c 0,38,39
 731.85 -29 731.85 -29 617.1 10.5 c 128,-1,40
 502.35 50 502.35 50 410.55 129 c 1,41,-1
 228.75 -74 l 1,42,-1
 127.05 39 l 1,43,-1
 311.55 244 l 1,20,21
EndSplineSet
KernsSLIF: 221 -36 0 0 193 -36 0 0 194 -36 0 0 376 -36 0 0 195 -36 0 0 192 -36 0 0 196 -36 0 0 89 -36 0 0 88 -73 0 0 86 -36 0 0 65 -36 0 0 46 -45 0 0 45 38 0 0 44 -45 0 0
EndChar
StartChar: Thorn
Encoding: 222 222 236
Width: 1440
Flags: HW
Fore
595.95 258 m 1,0,-1
 595.95 0 l 1,1,-1
 249.45 0 l 1,2,-1
 249.45 1493 l 1,3,-1
 595.95 1493 l 1,4,-1
 595.95 1233 l 1,5,-1
 824.55 1233 l 2,6,7
 1081.05 1233 1081.05 1233 1218.3 1106.5 c 128,-1,8
 1355.55 980 1355.55 980 1355.55 745 c 0,9,10
 1355.55 511 1355.55 511 1218.3 384.5 c 128,-1,11
 1081.05 258 1081.05 258 824.55 258 c 2,12,-1
 595.95 258 l 1,0,-1
595.95 956 m 1,13,-1
 595.95 537 l 1,14,-1
 787.65 537 l 2,15,16
 888.45 537 888.45 537 943.35 591.5 c 128,-1,17
 998.25 646 998.25 646 998.25 745 c 0,18,19
 998.25 846 998.25 846 943.35 901 c 128,-1,20
 888.45 956 888.45 956 787.65 956 c 2,21,-1
 595.95 956 l 1,13,-1
EndSplineSet
EndChar
StartChar: germandbls
Encoding: 223 223 137
Width: 1403
Flags: HW
Fore
232.6 1114 m 2,0,1
 232.6 1336 232.6 1336 354.1 1446 c 128,-1,2
 475.6 1556 475.6 1556 721.3 1556 c 0,3,4
 957.1 1556 957.1 1556 1077.7 1444 c 128,-1,5
 1198.3 1332 1198.3 1332 1198.3 1114 c 2,6,-1
 1198.3 1043 l 1,7,8
 1062.4 1033 1062.4 1033 997.6 994 c 128,-1,9
 932.8 955 932.8 955 932.8 881 c 0,10,11
 932.8 844 932.8 844 954.85 815.5 c 128,-1,12
 976.9 787 976.9 787 1060.6 735 c 2,13,-1
 1122.7 698 l 2,14,15
 1227.1 634 1227.1 634 1275.25 549.5 c 128,-1,16
 1323.4 465 1323.4 465 1323.4 348 c 0,17,18
 1323.4 159 1323.4 159 1220.35 65 c 128,-1,19
 1117.3 -29 1117.3 -29 909.4 -29 c 0,20,21
 850.9 -29 850.9 -29 788.8 -16.5 c 128,-1,22
 726.7 -4 726.7 -4 660.1 20 c 1,23,-1
 660.1 264 l 1,24,25
 710.5 237 710.5 237 762.25 223 c 128,-1,26
 814 209 814 209 862.6 209 c 0,27,28
 927.4 209 927.4 209 967 245 c 128,-1,29
 1006.6 281 1006.6 281 1006.6 338 c 0,30,31
 1006.6 385 1006.6 385 981.85 419 c 128,-1,32
 957.1 453 957.1 453 868.9 508 c 2,33,-1
 805.9 547 l 2,34,35
 726.7 596 726.7 596 688.9 663.5 c 128,-1,36
 651.1 731 651.1 731 651.1 821 c 0,37,38
 651.1 937 651.1 937 713.65 1016 c 128,-1,39
 776.2 1095 776.2 1095 906.7 1145 c 1,40,41
 905.8 1230 905.8 1230 862.6 1274.5 c 128,-1,42
 819.4 1319 819.4 1319 737.5 1319 c 0,43,44
 646.6 1319 646.6 1319 600.7 1264 c 128,-1,45
 554.8 1209 554.8 1209 554.8 1100 c 2,46,-1
 554.8 0 l 1,47,-1
 232.6 0 l 1,48,-1
 232.6 1114 l 2,0,1
EndSplineSet
EndChar
StartChar: ae
Encoding: 230 230 160
Width: 2038
Flags: HW
Fore
1617.9 682 m 1,0,1
 1617.9 784 1617.9 784 1564.35 846.5 c 128,-1,2
 1510.8 909 1510.8 909 1424.4 909 c 0,3,4
 1331.7 909 1331.7 909 1274.1 850.5 c 128,-1,5
 1216.5 792 1216.5 792 1202.1 682 c 1,6,-1
 1617.9 682 l 1,0,1
713.4 504 m 2,7,8
 612.6 504 612.6 504 561.75 466 c 128,-1,9
 510.9 428 510.9 428 510.9 354 c 0,10,11
 510.9 286 510.9 286 551.85 247.5 c 128,-1,12
 592.8 209 592.8 209 665.7 209 c 0,13,14
 756.6 209 756.6 209 818.7 281.5 c 128,-1,15
 880.8 354 880.8 354 880.8 463 c 2,16,-1
 880.8 504 l 1,17,-1
 713.4 504 l 2,7,8
274.2 1090 m 1,18,19
 381.3 1118 381.3 1118 481.65 1132.5 c 128,-1,20
 582 1147 582 1147 669.3 1147 c 0,21,22
 804.3 1147 804.3 1147 901.95 1108.5 c 128,-1,23
 999.6 1070 999.6 1070 1063.5 991 c 1,24,25
 1132.8 1068 1132.8 1068 1224.6 1107.5 c 128,-1,26
 1316.4 1147 1316.4 1147 1426.2 1147 c 0,27,28
 1664.7 1147 1664.7 1147 1807.35 988 c 128,-1,29
 1950 829 1950 829 1950 563 c 2,30,-1
 1950 461 l 1,31,-1
 1195.8 461 l 1,32,33
 1208.4 335 1208.4 335 1278.15 272 c 128,-1,34
 1347.9 209 1347.9 209 1474.8 209 c 0,35,36
 1576.5 209 1576.5 209 1683.15 242.5 c 128,-1,37
 1789.8 276 1789.8 276 1902.3 344 c 1,38,-1
 1902.3 68 l 1,39,40
 1788 20 1788 20 1673.25 -4.5 c 128,-1,41
 1558.5 -29 1558.5 -29 1445.1 -29 c 0,42,43
 1284 -29 1284 -29 1164.75 24.5 c 128,-1,44
 1045.5 78 1045.5 78 980.7 178 c 1,45,46
 889.8 71 889.8 71 789.45 21 c 128,-1,47
 689.1 -29 689.1 -29 564 -29 c 0,48,49
 389.4 -29 389.4 -29 287.7 69.5 c 128,-1,50
 186 168 186 168 186 336 c 0,51,52
 186 533 186 533 307.95 625 c 128,-1,53
 429.9 717 429.9 717 690.9 717 c 2,54,-1
 880.8 717 l 1,55,-1
 880.8 745 l 2,56,57
 880.8 830 880.8 830 820.5 869.5 c 128,-1,58
 760.2 909 760.2 909 632.4 909 c 0,59,60
 528.9 909 528.9 909 439.8 886 c 128,-1,61
 350.7 863 350.7 863 274.2 817 c 1,62,-1
 274.2 1090 l 1,18,19
EndSplineSet
EndChar
StartChar: eth
Encoding: 240 240 233
Width: 1336
Flags: HW
Fore
898.35 743 m 1,0,1
 848.85 770 848.85 770 800.25 783.5 c 128,-1,2
 751.65 797 751.65 797 704.85 797 c 0,3,4
 599.55 797 599.55 797 542.4 730.5 c 128,-1,5
 485.25 664 485.25 664 485.25 543 c 0,6,7
 485.25 395 485.25 395 543.75 311 c 128,-1,8
 602.25 227 602.25 227 704.85 227 c 0,9,10
 810.15 227 810.15 227 865.95 312.5 c 128,-1,11
 921.75 398 921.75 398 921.75 559 c 0,12,13
 921.75 604 921.75 604 915.9 650 c 128,-1,14
 910.05 696 910.05 696 898.35 743 c 1,0,1
1056.75 1100 m 1,15,16
 1162.05 964 1162.05 964 1209.75 835.5 c 128,-1,17
 1257.45 707 1257.45 707 1257.45 559 c 0,18,19
 1257.45 283 1257.45 283 1111.2 127 c 128,-1,20
 964.95 -29 964.95 -29 704.85 -29 c 0,21,22
 443.85 -29 443.85 -29 296.7 127 c 128,-1,23
 149.55 283 149.55 283 149.55 559 c 0,24,25
 149.55 790 149.55 790 285 922.5 c 128,-1,26
 420.45 1055 420.45 1055 658.05 1055 c 0,27,28
 699.45 1055 699.45 1055 734.55 1048.5 c 128,-1,29
 769.65 1042 769.65 1042 802.05 1028 c 1,30,-1
 631.05 1247 l 1,31,-1
 295.35 1128 l 1,32,-1
 262.05 1257 l 1,33,-1
 538.35 1354 l 1,34,-1
 369.15 1556 l 1,35,-1
 685.95 1556 l 1,36,-1
 785.85 1440 l 1,37,-1
 1124.25 1554 l 1,38,-1
 1155.75 1425 l 1,39,-1
 872.25 1329 l 1,40,-1
 1056.75 1100 l 1,15,16
EndSplineSet
EndChar
StartChar: divide
Encoding: 247 247 184
Width: 1630
Flags: HW
Fore
720.3 395 m 1,0,-1
 996.6 395 l 1,1,-1
 996.6 86 l 1,2,-1
 720.3 86 l 1,3,-1
 720.3 395 l 1,0,-1
720.3 1198 m 1,4,-1
 996.6 1198 l 1,5,-1
 996.6 889 l 1,6,-1
 720.3 889 l 1,7,-1
 720.3 1198 l 1,4,-1
281.1 760 m 1,8,-1
 1434.9 760 l 1,9,-1
 1434.9 524 l 1,10,-1
 281.1 524 l 1,11,-1
 281.1 760 l 1,8,-1
EndSplineSet
EndChar
StartChar: oslash
Encoding: 248 248 161
Width: 1336
Flags: HW
Fore
840.35 836 m 1,0,1
 814.25 864 814.25 864 780.5 877.5 c 128,-1,2
 746.75 891 746.75 891 704.45 891 c 0,3,4
 597.35 891 597.35 891 541.1 805.5 c 128,-1,5
 484.85 720 484.85 720 484.85 559 c 0,6,7
 484.85 518 484.85 518 488 485.5 c 128,-1,8
 491.15 453 491.15 453 497.45 426 c 1,9,-1
 840.35 836 l 1,0,1
562.25 287 m 1,10,11
 590.15 257 590.15 257 625.7 242 c 128,-1,12
 661.25 227 661.25 227 704.45 227 c 0,13,14
 809.75 227 809.75 227 865.55 312.5 c 128,-1,15
 921.35 398 921.35 398 921.35 559 c 0,16,17
 921.35 602 921.35 602 918.2 635.5 c 128,-1,18
 915.05 669 915.05 669 908.75 698 c 1,19,-1
 562.25 287 l 1,10,11
270.65 158 m 1,20,21
 210.35 236 210.35 236 179.75 336 c 128,-1,22
 149.15 436 149.15 436 149.15 559 c 0,23,24
 149.15 835 149.15 835 296.3 991 c 128,-1,25
 443.45 1147 443.45 1147 704.45 1147 c 0,26,27
 799.85 1147 799.85 1147 880.4 1125 c 128,-1,28
 960.95 1103 960.95 1103 1028.45 1059 c 1,29,-1
 1160.75 1217 l 1,30,-1
 1258.85 1116 l 1,31,-1
 1131.95 967 l 1,32,33
 1194.95 887 1194.95 887 1226 786 c 128,-1,34
 1257.05 685 1257.05 685 1257.05 559 c 0,35,36
 1257.05 283 1257.05 283 1110.8 127 c 128,-1,37
 964.55 -29 964.55 -29 704.45 -29 c 0,38,39
 607.25 -29 607.25 -29 525.35 -6.5 c 128,-1,40
 443.45 16 443.45 16 374.15 61 c 1,41,-1
 240.95 -94 l 1,42,-1
 140.15 0 l 1,43,-1
 270.65 158 l 1,20,21
EndSplineSet
EndChar
StartChar: thorn
Encoding: 254 254 237
Width: 1396
Flags: HW
Fore
554.3 162 m 1,0,-1
 554.3 -426 l 1,1,-1
 232.1 -426 l 1,2,-1
 232.1 1556 l 1,3,-1
 554.3 1556 l 1,4,-1
 554.3 956 l 1,5,6
 620.9 1054 620.9 1054 701.9 1100.5 c 128,-1,7
 782.9 1147 782.9 1147 888.2 1147 c 0,8,9
 1074.5 1147 1074.5 1147 1194.2 982.5 c 128,-1,10
 1313.9 818 1313.9 818 1313.9 559 c 0,11,12
 1313.9 300 1313.9 300 1194.2 135.5 c 128,-1,13
 1074.5 -29 1074.5 -29 888.2 -29 c 0,14,15
 782.9 -29 782.9 -29 701.9 17.5 c 128,-1,16
 620.9 64 620.9 64 554.3 162 c 1,0,-1
768.5 887 m 0,17,18
 665 887 665 887 609.65 802.5 c 128,-1,19
 554.3 718 554.3 718 554.3 559 c 0,20,21
 554.3 400 554.3 400 609.65 315.5 c 128,-1,22
 665 231 665 231 768.5 231 c 0,23,24
 872 231 872 231 926.45 315 c 128,-1,25
 980.9 399 980.9 399 980.9 559 c 0,26,27
 980.9 719 980.9 719 926.45 803 c 128,-1,28
 872 887 872 887 768.5 887 c 0,17,18
EndSplineSet
EndChar
StartChar: Dcroat
Encoding: 272 272 257
Width: 1626
Flags: HW
Fore
615.05 1202 m 1,0,-1
 615.05 881 l 1,1,-1
 826.55 881 l 1,2,-1
 826.55 621 l 1,3,-1
 615.05 621 l 1,4,-1
 615.05 291 l 1,5,-1
 738.35 291 l 2,6,7
 950.75 291 950.75 291 1062.8 408 c 128,-1,8
 1174.85 525 1174.85 525 1174.85 748 c 0,9,10
 1174.85 970 1174.85 970 1063.25 1086 c 128,-1,11
 951.65 1202 951.65 1202 738.35 1202 c 2,12,-1
 615.05 1202 l 1,0,-1
268.55 1493 m 1,13,-1
 633.05 1493 l 2,14,15
 939.95 1493 939.95 1493 1089.35 1444.5 c 128,-1,16
 1238.75 1396 1238.75 1396 1346.75 1280 c 0,17,18
 1440.35 1179 1440.35 1179 1486.7 1047 c 128,-1,19
 1533.05 915 1533.05 915 1533.05 748 c 0,20,21
 1533.05 579 1533.05 579 1486.7 446.5 c 128,-1,22
 1440.35 314 1440.35 314 1346.75 213 c 0,23,24
 1237.85 97 1237.85 97 1086.65 48.5 c 128,-1,25
 935.45 0 935.45 0 633.05 0 c 2,26,-1
 268.55 0 l 1,27,-1
 268.55 621 l 1,28,-1
 111.95 621 l 1,29,-1
 111.95 881 l 1,30,-1
 268.55 881 l 1,31,-1
 268.55 1493 l 1,13,-1
EndSplineSet
EndChar
StartChar: dcroat
Encoding: 273 273 255
Width: 1396
Flags: HW
Fore
917.6 956 m 1,0,-1
 917.6 1237 l 1,1,-1
 624.2 1237 l 1,2,-1
 624.2 1442 l 1,3,-1
 917.6 1442 l 1,4,-1
 917.6 1556 l 1,5,-1
 1241.6 1556 l 1,6,-1
 1241.6 1442 l 1,7,-1
 1380.2 1442 l 1,8,-1
 1380.2 1237 l 1,9,-1
 1241.6 1237 l 1,10,-1
 1241.6 0 l 1,11,-1
 917.6 0 l 1,12,-1
 917.6 162 l 1,13,14
 851 63 851 63 770.9 17 c 128,-1,15
 690.8 -29 690.8 -29 585.5 -29 c 0,16,17
 399.2 -29 399.2 -29 279.5 135.5 c 128,-1,18
 159.8 300 159.8 300 159.8 559 c 0,19,20
 159.8 818 159.8 818 279.5 982.5 c 128,-1,21
 399.2 1147 399.2 1147 585.5 1147 c 0,22,23
 689.9 1147 689.9 1147 770.45 1100.5 c 128,-1,24
 851 1054 851 1054 917.6 956 c 1,0,-1
705.2 231 m 0,25,26
 808.7 231 808.7 231 863.15 315 c 128,-1,27
 917.6 399 917.6 399 917.6 559 c 0,28,29
 917.6 719 917.6 719 863.15 803 c 128,-1,30
 808.7 887 808.7 887 705.2 887 c 0,31,32
 602.6 887 602.6 887 548.15 803 c 128,-1,33
 493.7 719 493.7 719 493.7 559 c 0,34,35
 493.7 399 493.7 399 548.15 315 c 128,-1,36
 602.6 231 602.6 231 705.2 231 c 0,25,26
EndSplineSet
EndChar
StartChar: dotlessi
Encoding: 305 305 214
Width: 666
Flags: HW
Fore
189.9 1120 m 1,0,-1
 512.1 1120 l 1,1,-1
 512.1 0 l 1,2,-1
 189.9 0 l 1,3,-1
 189.9 1120 l 1,0,-1
EndSplineSet
EndChar
StartChar: Lslash
Encoding: 321 321 225
Width: 1241
Flags: HW
Fore
237.5 1493 m 1,0,-1
 584 1493 l 1,1,-1
 584 1077 l 1,2,-1
 812.6 1262 l 1,3,-1
 941.3 1069 l 1,4,-1
 584 797 l 1,5,-1
 584 291 l 1,6,-1
 1192.4 291 l 1,7,-1
 1192.4 0 l 1,8,-1
 237.5 0 l 1,9,-1
 237.5 524 l 1,10,-1
 104.3 418 l 1,11,-1
 -24.4004 608 l 1,12,-1
 237.5 805 l 1,13,-1
 237.5 1493 l 1,0,-1
EndSplineSet
KernsSLIF: 366 -73 0 0 356 -339 0 0 253 -139 0 0 221 -319 0 0 217 -73 0 0 219 -73 0 0 218 -73 0 0 210 -73 0 0 212 -73 0 0 211 -73 0 0 376 -319 0 0 255 -139 0 0 8217 -339 0 0 8221 -376 0 0 338 -73 0 0 213 -73 0 0 216 -73 0 0 220 -73 0 0 214 -73 0 0 121 -139 0 0 89 -319 0 0 87 -159 0 0 86 -282 0 0 85 -73 0 0 84 -339 0 0 79 -73 0 0
EndChar
StartChar: lslash
Encoding: 322 322 226
Width: 722
Flags: HW
Fore
217.2 1556 m 1,0,-1
 541.2 1556 l 1,1,-1
 541.2 1055 l 1,2,-1
 657.3 1143 l 1,3,-1
 757.2 989 l 1,4,-1
 541.2 825 l 1,5,-1
 541.2 0 l 1,6,-1
 217.2 0 l 1,7,-1
 217.2 641 l 1,8,-1
 104.7 555 l 1,9,-1
 4.7998 709 l 1,10,-1
 217.2 872 l 1,11,-1
 217.2 1556 l 1,0,-1
EndSplineSet
EndChar
StartChar: OE
Encoding: 338 338 176
Width: 2268
Flags: HW
Fore
1179.15 1202 m 1,0,-1
 1084.65 1202 l 2,1,2
 824.55 1202 824.55 1202 695.85 1089 c 128,-1,3
 567.15 976 567.15 976 567.15 748 c 0,4,5
 567.15 519 567.15 519 696.3 405 c 128,-1,6
 825.45 291 825.45 291 1084.65 291 c 2,7,-1
 1179.15 291 l 1,8,-1
 1179.15 1202 l 1,0,-1
1098.15 1493 m 2,9,-1
 2113.35 1493 l 1,10,-1
 2113.35 1202 l 1,11,-1
 1525.65 1202 l 1,12,-1
 1525.65 924 l 1,13,-1
 2078.25 924 l 1,14,-1
 2078.25 633 l 1,15,-1
 1525.65 633 l 1,16,-1
 1525.65 291 l 1,17,-1
 2134.05 291 l 1,18,-1
 2134.05 0 l 1,19,-1
 1098.15 0 l 2,20,21
 1086.45 0 1086.45 0 1065.3 -1 c 128,-1,22
 1044.15 -2 1044.15 -2 1033.35 -2 c 0,23,24
 635.55 -2 635.55 -2 422.25 192.5 c 128,-1,25
 208.95 387 208.95 387 208.95 748 c 0,26,27
 208.95 1108 208.95 1108 422.25 1301.5 c 128,-1,28
 635.55 1495 635.55 1495 1033.35 1495 c 0,29,30
 1043.25 1495 1043.25 1495 1064.85 1494 c 128,-1,31
 1086.45 1493 1086.45 1493 1098.15 1493 c 2,9,-1
EndSplineSet
EndChar
StartChar: oe
Encoding: 339 339 177
Width: 2128
Flags: HW
Fore
1708.1 682 m 1,0,1
 1708.1 784 1708.1 784 1654.55 846.5 c 128,-1,2
 1601 909 1601 909 1514.6 909 c 0,3,4
 1421 909 1421 909 1362.5 850.5 c 128,-1,5
 1304 792 1304 792 1289.6 682 c 1,6,-1
 1708.1 682 l 1,0,1
2039.3 563 m 2,7,-1
 2039.3 461 l 1,8,-1
 1286 461 l 1,9,10
 1297.7 335 1297.7 335 1367.9 272 c 128,-1,11
 1438.1 209 1438.1 209 1564.1 209 c 0,12,13
 1665.8 209 1665.8 209 1772.45 242.5 c 128,-1,14
 1879.1 276 1879.1 276 1991.6 344 c 1,15,-1
 1991.6 68 l 1,16,17
 1878.2 20 1878.2 20 1763 -4.5 c 128,-1,18
 1647.8 -29 1647.8 -29 1534.4 -29 c 0,19,20
 1385.9 -29 1385.9 -29 1289.6 11.5 c 128,-1,21
 1193.3 52 1193.3 52 1128.5 139 c 1,22,23
 1054.7 55 1054.7 55 958.85 13 c 128,-1,24
 863 -29 863 -29 746 -29 c 0,25,26
 485 -29 485 -29 337.85 127 c 128,-1,27
 190.7 283 190.7 283 190.7 559 c 0,28,29
 190.7 835 190.7 835 337.85 991 c 128,-1,30
 485 1147 485 1147 746 1147 c 0,31,32
 866.6 1147 866.6 1147 959.3 1106 c 128,-1,33
 1052 1065 1052 1065 1124.9 979 c 1,34,35
 1198.7 1066 1198.7 1066 1288.25 1106.5 c 128,-1,36
 1377.8 1147 1377.8 1147 1499.3 1147 c 0,37,38
 1749.5 1147 1749.5 1147 1894.4 990 c 128,-1,39
 2039.3 833 2039.3 833 2039.3 563 c 2,7,-1
746 891 m 0,40,41
 638.9 891 638.9 891 582.65 805.5 c 128,-1,42
 526.4 720 526.4 720 526.4 559 c 0,43,44
 526.4 398 526.4 398 582.65 312.5 c 128,-1,45
 638.9 227 638.9 227 746 227 c 0,46,47
 851.3 227 851.3 227 907.1 312.5 c 128,-1,48
 962.9 398 962.9 398 962.9 559 c 0,49,50
 962.9 720 962.9 720 907.1 805.5 c 128,-1,51
 851.3 891 851.3 891 746 891 c 0,40,41
EndSplineSet
EndChar
StartChar: florin
Encoding: 402 402 166
Width: 1349
Flags: HW
Fore
1268.55 1516 m 1,0,-1
 1268.55 1262 l 1,1,2
 1227.15 1291 1227.15 1291 1189.35 1305 c 128,-1,3
 1151.55 1319 1151.55 1319 1113.75 1319 c 0,4,5
 1032.75 1319 1032.75 1319 987.75 1261.5 c 128,-1,6
 942.75 1204 942.75 1204 918.45 1063 c 1,7,-1
 888.75 895 l 1,8,-1
 1145.25 895 l 1,9,-1
 1145.25 657 l 1,10,-1
 846.45 657 l 1,11,-1
 726.75 -16 l 1,12,13
 689.85 -222 689.85 -222 586.8 -324 c 128,-1,14
 483.75 -426 483.75 -426 311.85 -426 c 0,15,16
 253.35 -426 253.35 -426 193.5 -416 c 128,-1,17
 133.65 -406 133.65 -406 72.4502 -385 c 1,18,-1
 72.4502 -131 l 1,19,20
 113.85 -160 113.85 -160 152.1 -174 c 128,-1,21
 190.35 -188 190.35 -188 227.25 -188 c 0,22,23
 307.35 -188 307.35 -188 351.9 -130.5 c 128,-1,24
 396.45 -73 396.45 -73 422.55 68 c 1,25,-1
 527.85 657 l 1,26,-1
 310.05 657 l 1,27,-1
 310.05 895 l 1,28,-1
 570.15 895 l 1,29,-1
 616.05 1147 l 2,30,31
 653.85 1353 653.85 1353 756 1454.5 c 128,-1,32
 858.15 1556 858.15 1556 1029.15 1556 c 0,33,34
 1088.55 1556 1088.55 1556 1147.95 1546 c 128,-1,35
 1207.35 1536 1207.35 1536 1268.55 1516 c 1,0,-1
EndSplineSet
EndChar
StartChar: uni0237
Encoding: 567 567 218
Width: 654
Flags: HW
Fore
177.9 1120 m 1,0,-1
 500.1 1120 l 1,1,-1
 500.1 20 l 2,2,3
 500.1 -205 500.1 -205 402.9 -323.5 c 128,-1,4
 305.7 -442 305.7 -442 121.2 -442 c 2,5,-1
 -38.0996 -442 l 1,6,-1
 -38.0996 -207 l 1,7,-1
 17.7002 -207 l 2,8,9
 109.5 -207 109.5 -207 143.7 -161 c 128,-1,10
 177.9 -115 177.9 -115 177.9 20 c 2,11,-1
 177.9 1120 l 1,0,-1
EndSplineSet
EndChar
StartChar: uni02BB
Encoding: 699 699 173
Width: 743
Flags: HW
Fore
539 856 m 1,0,-1
 233 856 l 1,1,-1
 233 1141 l 1,2,-1
 437.3 1493 l 1,3,-1
 629 1493 l 1,4,-1
 539 1141 l 1,5,-1
 539 856 l 1,0,-1
EndSplineSet
KernsSLIF: 221 75 0 0 193 -235 0 0 194 -235 0 0 376 75 0 0 195 -235 0 0 192 -235 0 0 198 -264 0 0 196 -235 0 0 89 75 0 0 86 38 0 0 74 -92 0 0 65 -235 0 0
EndChar
StartChar: circumflex
Encoding: 710 710 215
Width: 972
Flags: HW
Fore
403.1 1638 m 1,0,-1
 620.9 1638 l 1,1,-1
 851.3 1262 l 1,2,-1
 691.1 1262 l 1,3,-1
 512 1487 l 1,4,-1
 332.9 1262 l 1,5,-1
 172.7 1262 l 1,6,-1
 403.1 1638 l 1,0,-1
EndSplineSet
EndChar
StartChar: caron
Encoding: 711 711 224
Width: 972
Flags: HW
Fore
403.1 1262 m 1,0,-1
 172.7 1638 l 1,1,-1
 332.9 1638 l 1,2,-1
 512 1411 l 1,3,-1
 691.1 1638 l 1,4,-1
 851.3 1638 l 1,5,-1
 620.9 1262 l 1,6,-1
 403.1 1262 l 1,0,-1
EndSplineSet
EndChar
StartChar: breve
Encoding: 728 728 218
Width: 972
Flags: HW
Fore
209.6 1606 m 1,0,-1
 338.3 1606 l 1,1,2
 348.2 1536 348.2 1536 392.75 1499 c 128,-1,3
 437.3 1462 437.3 1462 512 1462 c 0,4,5
 586.7 1462 586.7 1462 631.25 1499 c 128,-1,6
 675.8 1536 675.8 1536 685.7 1606 c 1,7,-1
 814.4 1606 l 1,8,9
 809 1462 809 1462 730.7 1385.5 c 128,-1,10
 652.4 1309 652.4 1309 512 1309 c 0,11,12
 371.6 1309 371.6 1309 293.3 1385.5 c 128,-1,13
 215 1462 215 1462 209.6 1606 c 1,0,-1
EndSplineSet
Ligature: 0 1 'liga' space uni0306
EndChar
StartChar: dotaccent
Encoding: 729 729 219
Width: 972
Flags: HW
Fore
388.7 1585 m 1,0,-1
 635.3 1585 l 1,1,-1
 635.3 1339 l 1,2,-1
 388.7 1339 l 1,3,-1
 388.7 1585 l 1,0,-1
EndSplineSet
Ligature: 0 1 'liga' space uni0307
EndChar
StartChar: ring
Encoding: 730 730 220
Width: 972
Flags: HW
Fore
394.1 1534 m 0,0,1
 394.1 1479 394.1 1479 428.75 1441 c 128,-1,2
 463.4 1403 463.4 1403 512 1403 c 0,3,4
 561.5 1403 561.5 1403 595.7 1441.5 c 128,-1,5
 629.9 1480 629.9 1480 629.9 1534 c 0,6,7
 629.9 1588 629.9 1588 595.25 1626.5 c 128,-1,8
 560.6 1665 560.6 1665 512 1665 c 0,9,10
 462.5 1665 462.5 1665 428.3 1626.5 c 128,-1,11
 394.1 1588 394.1 1588 394.1 1534 c 0,0,1
255.5 1534 m 0,12,13
 255.5 1652 255.5 1652 330.65 1735.5 c 128,-1,14
 405.8 1819 405.8 1819 512 1819 c 0,15,16
 618.2 1819 618.2 1819 693.35 1735.5 c 128,-1,17
 768.5 1652 768.5 1652 768.5 1534 c 0,18,19
 768.5 1416 768.5 1416 693.35 1332.5 c 128,-1,20
 618.2 1249 618.2 1249 512 1249 c 0,21,22
 405.8 1249 405.8 1249 330.65 1332.5 c 128,-1,23
 255.5 1416 255.5 1416 255.5 1534 c 0,12,13
EndSplineSet
LCarets: 0 65535 '    ' 1 0 
Ligature: 0 1 'liga' space uni030A
EndChar
StartChar: ogonek
Encoding: 731 731 223
Width: 977
Flags: HW
Fore
463.3 0 m 1,0,-1
 590.2 0 l 1,1,2
 545.2 -67 545.2 -67 528.1 -103.5 c 128,-1,3
 511 -140 511 -140 511 -166 c 0,4,5
 511 -205 511 -205 537.55 -229.5 c 128,-1,6
 564.1 -254 564.1 -254 608.2 -254 c 0,7,8
 643.3 -254 643.3 -254 677.95 -246.5 c 128,-1,9
 712.6 -239 712.6 -239 748.6 -223 c 1,10,-1
 748.6 -379 l 1,11,12
 699.1 -390 699.1 -390 656.8 -395.5 c 128,-1,13
 614.5 -401 614.5 -401 577.6 -401 c 0,14,15
 474.1 -401 474.1 -401 418.75 -355 c 128,-1,16
 363.4 -309 363.4 -309 363.4 -223 c 0,17,18
 363.4 -170 363.4 -170 387.7 -115.5 c 128,-1,19
 412 -61 412 -61 463.3 0 c 1,0,-1
EndSplineSet
Ligature: 0 1 'liga' space uni0328
EndChar
StartChar: tilde
Encoding: 732 732 216
Width: 972
Flags: HW
Fore
513.8 1364 m 2,0,-1
 464.3 1401 l 2,1,2
 460.7 1403 460.7 1403 455.3 1407 c 0,3,4
 413 1438 413 1438 390.5 1438 c 0,5,6
 358.1 1438 358.1 1438 341 1407 c 128,-1,7
 323.9 1376 323.9 1376 323.9 1317 c 2,8,-1
 323.9 1309 l 1,9,-1
 198.8 1309 l 1,10,11
 198.8 1445 198.8 1445 245.15 1519 c 128,-1,12
 291.5 1593 291.5 1593 375.2 1593 c 0,13,14
 407.6 1593 407.6 1593 440.45 1579.5 c 128,-1,15
 473.3 1566 473.3 1566 510.2 1536 c 2,16,-1
 565.1 1493 l 2,17,18
 584.9 1478 584.9 1478 601.55 1470 c 128,-1,19
 618.2 1462 618.2 1462 631.7 1462 c 0,20,21
 664.1 1462 664.1 1462 682.1 1494 c 128,-1,22
 700.1 1526 700.1 1526 700.1 1583 c 2,23,-1
 700.1 1591 l 1,24,-1
 825.2 1591 l 1,25,26
 825.2 1455 825.2 1455 778.85 1381 c 128,-1,27
 732.5 1307 732.5 1307 648.8 1307 c 0,28,29
 616.4 1307 616.4 1307 586.25 1319 c 128,-1,30
 556.1 1331 556.1 1331 513.8 1364 c 2,0,-1
EndSplineSet
Ligature: 0 1 'liga' space tildecomb
EndChar
StartChar: hungarumlaut
Encoding: 733 733 222
Width: 980
Flags: HW
Fore
407 1638 m 1,0,-1
 602.3 1638 l 1,1,-1
 379.1 1262 l 1,2,-1
 232.4 1262 l 1,3,-1
 407 1638 l 1,0,-1
733.7 1638 m 1,4,-1
 941.6 1638 l 1,5,-1
 696.8 1262 l 1,6,-1
 540.2 1262 l 1,7,-1
 733.7 1638 l 1,4,-1
EndSplineSet
Ligature: 0 1 'liga' space uni030B
EndChar
StartChar: uni0326
Encoding: 806 806 223
Width: 977
Flags: HW
Fore
454.7 -182 m 1,5,-1
 746.3 -182 l 1,2,-1
 546.5 -480 l 1,3,-1
 373.7 -480 l 1,4,-1
 454.7 -182 l 1,5,-1
EndSplineSet
EndChar
StartChar: Omega
Encoding: 937 937 159
Width: 1496
Flags: HW
Fore
1182.95 256 m 1,0,-1
 1444.85 256 l 1,1,-1
 1444.85 0 l 1,2,-1
 896.75 0 l 1,3,-1
 896.75 291 l 1,4,5
 1010.15 377 1010.15 377 1069.55 508.5 c 128,-1,6
 1128.95 640 1128.95 640 1128.95 805 c 0,7,8
 1128.95 1008 1128.95 1008 1037.6 1124.5 c 128,-1,9
 946.25 1241 946.25 1241 786.05 1241 c 0,10,11
 626.75 1241 626.75 1241 535.4 1124.5 c 128,-1,12
 444.05 1008 444.05 1008 444.05 805 c 0,13,14
 444.05 641 444.05 641 503.45 508.5 c 128,-1,15
 562.85 376 562.85 376 676.25 291 c 1,16,-1
 676.25 0 l 1,17,-1
 128.15 0 l 1,18,-1
 128.15 256 l 1,19,-1
 390.05 256 l 1,20,21
 276.65 377 276.65 377 221.75 516 c 128,-1,22
 166.85 655 166.85 655 166.85 819 c 0,23,24
 166.85 1132 166.85 1132 336.05 1320.5 c 128,-1,25
 505.25 1509 505.25 1509 786.05 1509 c 0,26,27
 1067.75 1509 1067.75 1509 1236.95 1320.5 c 128,-1,28
 1406.15 1132 1406.15 1132 1406.15 819 c 0,29,30
 1406.15 655 1406.15 655 1351.25 516 c 128,-1,31
 1296.35 377 1296.35 377 1182.95 256 c 1,0,-1
EndSplineSet
EndChar
StartChar: pi
Encoding: 960 960 155
Width: 1253
Flags: HW
Fore
1284.55 1092 m 1,0,-1
 1249.45 868 l 1,1,-1
 1091.05 868 l 1,2,-1
 952.45 0 l 1,3,-1
 694.15 0 l 1,4,-1
 830.95 868 l 1,5,-1
 616.75 868 l 1,6,-1
 480.85 0 l 1,7,-1
 222.55 0 l 1,8,-1
 359.35 868 l 1,9,-1
 336.85 868 l 2,10,11
 287.35 868 287.35 868 261.25 837 c 128,-1,12
 235.15 806 235.15 806 226.15 738 c 1,13,-1
 34.4502 737 l 1,14,15
 60.5498 936 60.5498 936 145.15 1014 c 128,-1,16
 229.75 1092 229.75 1092 425.05 1092 c 2,17,-1
 1284.55 1092 l 1,0,-1
EndSplineSet
EndChar
StartChar: afii10051
Encoding: 1026 1026 158
Width: 1571
Flags: HW
Fore
1096.4 386 m 2,0,1
 1096.4 464 1096.4 464 1091.9 484 c 0,2,3
 1083.8 519 1083.8 519 1055.9 555 c 0,4,5
 995.6 633 995.6 633 914.6 637 c 2,6,-1
 913.7 637 l 2,7,8
 906.5 637 906.5 637 904.7 637 c 2,9,-1
 587 637 l 1,10,-1
 587 0 l 1,11,-1
 240.5 0 l 1,12,-1
 242.3 1202 l 1,13,-1
 -18.7002 1202 l 1,14,-1
 -18.7002 1493 l 1,15,-1
 1034.3 1493 l 1,16,-1
 1034.3 1202 l 1,17,-1
 587 1202 l 1,18,-1
 587 946 l 1,19,-1
 851.6 946 l 2,20,21
 978.5 946 978.5 946 1114.4 906 c 2,22,-1
 1116.2 905 l 2,23,24
 1226.9 872 1226.9 872 1271.9 825 c 0,25,26
 1392.5 698 1392.5 698 1427.6 548 c 0,27,28
 1444.7 475 1444.7 475 1444.7 392 c 2,29,-1
 1444.7 142 l 2,30,31
 1444.7 -156 1444.7 -156 1288.1 -293 c 0,32,33
 1129.7 -432 1129.7 -432 955.1 -432 c 2,34,-1
 880.4 -432 l 1,35,-1
 880.4 -113 l 1,36,-1
 946.1 -113 l 2,37,38
 990.2 -113 990.2 -113 1028 -76 c 2,39,-1
 1028.9 -76 l 1,40,-1
 1029.8 -75 l 2,41,42
 1035.2 -70 1035.2 -70 1038.8 -65 c 0,43,44
 1094.6 5 1094.6 5 1096.4 132 c 0,45,-1
 1096.4 142 l 2,46,-1
 1096.4 386 l 2,0,1
EndSplineSet
EndChar
StartChar: afii10053
Encoding: 1028 1028 160
Width: 1388
Flags: HW
Fore
532.7 618 m 1,0,1
 539 499 539 499 624.5 388 c 0,2,-1
 629.9 382 l 0,3,4
 736.1 250 736.1 250 921.5 250 c 0,5,6
 1025 250 1025 250 1118.6 284 c 0,7,8
 1212.2 318 1212.2 318 1308.5 391 c 1,9,-1
 1308.5 82 l 1,10,11
 1213.1 27 1213.1 27 1109.6 -1 c 0,12,13
 1006.1 -29 1006.1 -29 893.6 -29 c 0,14,15
 557.9 -29 557.9 -29 361.7 180 c 0,16,17
 165.5 388 165.5 388 165.5 745 c 0,18,19
 165.5 1103 165.5 1103 361.7 1312 c 0,20,21
 557.9 1520 557.9 1520 893.6 1520 c 0,22,23
 1006.1 1520 1006.1 1520 1109.6 1492 c 0,24,25
 1213.1 1464 1213.1 1464 1308.5 1409 c 1,26,-1
 1308.5 1100 l 1,27,28
 1212.2 1173 1212.2 1173 1118.6 1207 c 0,29,30
 1025 1241 1025 1241 921.5 1241 c 0,31,32
 736.1 1241 736.1 1241 629.9 1109 c 0,33,34
 542.6 1000 542.6 1000 539 907 c 1,35,-1
 1014.2 907 l 1,36,-1
 1014.2 618 l 1,37,-1
 532.7 618 l 1,0,1
EndSplineSet
EndChar
StartChar: afii10054
Encoding: 1029 1029 161
Width: 1401
Flags: HW
Fore
1177.9 1446 m 1,0,-1
 1177.9 1130 l 1,1,2
 1067.2 1185 1067.2 1185 961.9 1213 c 0,3,4
 856.6 1241 856.6 1241 763 1241 c 0,5,6
 638.8 1241 638.8 1241 579.4 1203 c 0,7,8
 520 1165 520 1165 520 1085 c 0,9,10
 520 1025 520 1025 559.6 992 c 0,11,12
 600.1 958 600.1 958 705.4 934 c 2,13,-1
 853 901 l 2,14,15
 1077.1 851 1077.1 851 1171.6 749 c 0,16,17
 1266.1 647 1266.1 647 1266.1 459 c 0,18,19
 1266.1 212 1266.1 212 1133.8 92 c 0,20,21
 1002.4 -29 1002.4 -29 731.5 -29 c 0,22,23
 603.7 -29 603.7 -29 475 -2 c 0,24,25
 346.3 25 346.3 25 217.6 78 c 1,26,-1
 217.6 403 l 1,27,28
 346.3 327 346.3 327 466 288 c 0,29,30
 586.6 250 586.6 250 698.2 250 c 0,31,32
 811.6 250 811.6 250 871.9 292 c 0,33,34
 932.2 334 932.2 334 932.2 412 c 0,35,36
 932.2 482 932.2 482 890.8 520 c 0,37,38
 850.3 558 850.3 558 727.9 588 c 2,39,-1
 593.8 621 l 2,40,41
 392.2 669 392.2 669 298.6 774 c 0,42,43
 205.9 879 205.9 879 205.9 1057 c 0,44,45
 205.9 1280 205.9 1280 335.5 1400 c 128,-1,46
 465.1 1520 465.1 1520 708.1 1520 c 0,47,48
 818.8 1520 818.8 1520 935.8 1502 c 0,49,50
 1052.8 1483 1052.8 1483 1177.9 1446 c 1,0,-1
EndSplineSet
EndChar
StartChar: afii10055
Encoding: 1030 1030 162
Width: 723
Flags: HW
Fore
207.25 1493 m 1,0,-1
 553.75 1493 l 1,1,-1
 553.75 0 l 1,2,-1
 207.25 0 l 1,3,-1
 207.25 1493 l 1,0,-1
EndSplineSet
EndChar
StartChar: afii10057
Encoding: 1032 1032 164
Width: 708
Flags: HW
Fore
192.1 1493 m 1,0,-1
 538.6 1493 l 1,1,-1
 538.6 145 l 2,2,3
 538.6 -134 538.6 -134 402.25 -272 c 128,-1,4
 265.9 -410 265.9 -410 -10.4004 -410 c 2,5,-1
 -80.5996 -410 l 1,6,-1
 -80.5996 -119 l 1,7,-1
 -26.5996 -119 l 2,8,9
 81.4004 -119 81.4004 -119 136.3 -52 c 0,10,11
 192.1 15 192.1 15 192.1 145 c 2,12,-1
 192.1 1493 l 1,0,-1
EndSplineSet
EndChar
StartChar: afii10058
Encoding: 1033 1033 165
Width: 2439
Flags: HW
Fore
1585.9 1493 m 1,0,-1
 383.5 1493 l 1,1,-1
 383.5 500 l 2,2,3
 383.5 338 383.5 338 294.4 268 c 1,4,5
 255.7 215 255.7 215 160.3 215 c 2,6,-1
 103.6 215 l 1,7,-1
 103.6 -74 l 1,8,-1
 172.9 -74 l 2,9,10
 444.7 -74 444.7 -74 569.8 36 c 0,11,12
 719.2 167 719.2 167 729.1 460 c 0,13,14
 730 480 730 480 730 500 c 2,15,-1
 730 1204 l 1,16,-1
 1239.4 1204 l 1,17,-1
 1239.4 0 l 1,18,-1
 1814.5 0 l 2,19,20
 2026 0 2026 0 2143.9 80 c 0,21,22
 2168.2 97 2168.2 97 2191.6 118 c 0,23,24
 2304.1 222 2304.1 222 2323.9 379 c 0,25,26
 2328.4 417 2328.4 417 2328.4 460 c 0,27,28
 2328.4 687 2328.4 687 2191.6 814 c 1,29,30
 2097.1 900 2097.1 900 1935.1 917 c 0,31,32
 1882.9 922 1882.9 922 1814.5 922 c 2,33,-1
 1585.9 922 l 1,34,-1
 1585.9 1493 l 1,0,-1
1585.9 279 m 1,35,-1
 1585.9 633 l 1,36,-1
 1777.6 633 l 2,37,38
 1868.5 633 1868.5 633 1901.8 618 c 0,39,40
 1919.8 610 1919.8 610 1933.3 596 c 0,41,42
 1978.3 552 1978.3 552 1985.5 497 c 0,43,44
 1988.2 480 1988.2 480 1988.2 460 c 0,45,46
 1988.2 387 1988.2 387 1949.5 341 c 0,47,48
 1945.9 337 1945.9 337 1941.4 333 c 1,49,50
 1937.8 328 1937.8 328 1933.3 324 c 0,51,52
 1887.4 279 1887.4 279 1777.6 279 c 2,53,-1
 1585.9 279 l 1,35,-1
EndSplineSet
EndChar
StartChar: afii10059
Encoding: 1034 1034 166
Width: 2344
Flags: HW
Fore
1500.35 1493 m 1,0,-1
 1153.85 1493 l 1,1,-1
 1153.85 924 l 1,2,-1
 642.65 924 l 1,3,-1
 642.65 1493 l 1,4,-1
 296.15 1493 l 1,5,-1
 296.15 0 l 1,6,-1
 642.65 0 l 1,7,-1
 642.65 633 l 1,8,-1
 1153.85 633 l 1,9,-1
 1153.85 0 l 1,10,-1
 1728.95 0 l 2,11,12
 1940.45 0 1940.45 0 2058.35 80 c 0,13,14
 2082.65 97 2082.65 97 2105.15 118 c 0,15,16
 2218.55 222 2218.55 222 2238.35 379 c 0,17,18
 2242.85 417 2242.85 417 2242.85 460 c 0,19,20
 2242.85 687 2242.85 687 2105.15 814 c 0,21,22
 2011.55 900 2011.55 900 1849.55 917 c 0,23,24
 1797.35 922 1797.35 922 1728.95 922 c 2,25,-1
 1500.35 922 l 1,26,-1
 1500.35 1493 l 1,0,-1
1500.35 279 m 1,27,-1
 1500.35 633 l 1,28,-1
 1692.05 633 l 2,29,30
 1782.95 633 1782.95 633 1816.25 618 c 0,31,32
 1834.25 610 1834.25 610 1847.75 596 c 0,33,34
 1892.75 552 1892.75 552 1899.95 497 c 0,35,36
 1902.65 480 1902.65 480 1902.65 460 c 0,37,38
 1902.65 387 1902.65 387 1863.95 341 c 0,39,40
 1856.75 333 1856.75 333 1847.75 324 c 0,41,42
 1801.85 279 1801.85 279 1692.05 279 c 2,43,-1
 1500.35 279 l 1,27,-1
EndSplineSet
EndChar
StartChar: afii10060
Encoding: 1035 1035 167
Width: 1597
Flags: HW
Fore
587 1202 m 1,0,-1
 1034.3 1202 l 1,1,-1
 1034.3 1493 l 1,2,-1
 -18.7002 1493 l 1,3,-1
 -18.7002 1202 l 1,4,-1
 242.3 1202 l 1,5,-1
 240.5 0 l 1,6,-1
 587 0 l 1,7,-1
 587 637 l 1,8,-1
 904.7 637 l 2,9,10
 990.2 637 990.2 637 1053.2 559 c 0,11,12
 1054.1 557 1054.1 557 1055.9 555 c 0,13,14
 1092.8 507 1092.8 507 1096.4 451 c 0,15,-1
 1096.4 449 l 0,16,17
 1096.4 442 1096.4 442 1096.4 386 c 2,18,-1
 1096.4 0 l 1,19,-1
 1444.7 0 l 1,20,-1
 1444.7 392 l 2,21,22
 1444.7 619 1444.7 619 1309.7 783 c 0,23,24
 1292.6 803 1292.6 803 1271.9 825 c 0,25,26
 1203.5 897 1203.5 897 1001 932 c 0,27,28
 931.7 943 931.7 943 872.3 946 c 1,29,-1
 872.3 946 l 1,30,31
 861.5 946 861.5 946 851.6 946 c 2,32,-1
 587 946 l 1,33,-1
 587 1202 l 1,0,-1
EndSplineSet
EndChar
StartChar: afii10145
Encoding: 1039 1039 171
Width: 1628
Flags: HW
Fore
1459.1 0 m 1,0,-1
 1459.1 1493 l 1,1,-1
 1112.6 1493 l 1,2,-1
 1112.6 291 l 1,3,-1
 601.4 291 l 1,4,-1
 601.4 1493 l 1,5,-1
 254.9 1493 l 1,6,-1
 254.9 0 l 1,7,-1
 684.2 0 l 1,8,-1
 684.2 -300 l 1,9,-1
 1029.8 -300 l 1,10,-1
 1029.8 0 l 1,11,-1
 1459.1 0 l 1,0,-1
EndSplineSet
EndChar
StartChar: afii10017
Encoding: 1040 1040 172
Width: 1505
Flags: HW
Fore
1063.85 272 m 1,0,-1
 522.05 272 l 1,1,-1
 436.55 0 l 1,2,-1
 88.25 0 l 1,3,-1
 585.95 1493 l 1,4,-1
 999.05 1493 l 1,5,-1
 1496.75 0 l 1,6,-1
 1148.45 0 l 1,7,-1
 1063.85 272 l 1,0,-1
608.45 549 m 1,8,-1
 976.55 549 l 1,9,-1
 792.95 1143 l 1,10,-1
 608.45 549 l 1,8,-1
EndSplineSet
EndChar
StartChar: afii10018
Encoding: 1041 1041 173
Width: 1541
Flags: HW
Fore
1086.5 473 m 0,0,1
 1088.3 535 1088.3 535 1033.4 590 c 0,2,3
 966.8 656 966.8 656 865.1 656 c 2,4,-1
 573.5 656 l 1,5,-1
 573.5 282 l 1,6,-1
 865.1 282 l 2,7,8
 962.3 282 962.3 282 1026.2 340 c 0,9,10
 1083.8 391 1083.8 391 1086.5 473 c 0,0,1
1413.2 454 m 0,11,12
 1413.2 317 1413.2 317 1319.6 199 c 0,13,14
 1299.8 174 1299.8 174 1277.3 151 c 1,15,16
 1128.8 7 1128.8 7 893.9 0 c 0,17,-1
 874.1 0 l 2,18,-1
 264.8 0 l 1,19,-1
 264.8 1493 l 1,20,-1
 1230.5 1493 l 1,21,-1
 1230.5 1211 l 1,22,-1
 573.5 1211 l 1,23,-1
 573.5 935 l 1,24,-1
 842.6 935 l 2,25,26
 1025.3 935 1025.3 935 1181 856 c 0,27,28
 1312.4 790 1312.4 790 1355.6 697 c 1,29,30
 1413.2 608 1413.2 608 1413.2 454 c 0,11,12
EndSplineSet
EndChar
StartChar: afii10019
Encoding: 1042 1042 174
Width: 1485
Flags: HW
Fore
787.65 915 m 2,0,1
 869.55 915 869.55 915 911.85 955 c 0,2,3
 954.15 995 954.15 995 954.15 1073 c 0,4,5
 954.15 1150 954.15 1150 911.85 1190 c 0,6,7
 869.55 1231 869.55 1231 787.65 1231 c 2,8,-1
 595.95 1231 l 1,9,-1
 595.95 915 l 1,10,-1
 787.65 915 l 2,0,1
799.35 262 m 2,11,12
 903.75 262 903.75 262 956.85 311 c 0,13,14
 1009.05 360 1009.05 360 1009.05 459 c 0,15,16
 1009.05 556 1009.05 556 956.85 604 c 0,17,18
 904.65 653 904.65 653 799.35 653 c 2,19,-1
 595.95 653 l 1,20,-1
 595.95 262 l 1,21,-1
 799.35 262 l 2,11,12
1121.55 799 m 1,22,23
 1233.15 763 1233.15 763 1294.35 666 c 0,24,25
 1355.55 569 1355.55 569 1355.55 428 c 0,26,27
 1355.55 212 1355.55 212 1224.15 106 c 0,28,29
 1092.75 0 1092.75 0 824.55 0 c 2,30,-1
 249.45 0 l 1,31,-1
 249.45 1493 l 1,32,-1
 769.65 1493 l 2,33,34
 1049.55 1493 1049.55 1493 1174.65 1399 c 0,35,36
 1300.65 1305 1300.65 1305 1300.65 1098 c 0,37,38
 1300.65 989 1300.65 989 1254.75 912 c 0,39,40
 1208.85 836 1208.85 836 1121.55 799 c 1,22,23
EndSplineSet
EndChar
StartChar: afii10020
Encoding: 1043 1043 175
Width: 1256
Flags: HW
Fore
586.4 1204 m 1,0,-1
 586.4 0 l 1,1,-1
 242.6 0 l 1,2,-1
 242.6 1493 l 1,3,-1
 1171.4 1493 l 1,4,-1
 1171.4 1204 l 1,5,-1
 586.4 1204 l 1,0,-1
EndSplineSet
EndChar
StartChar: afii10021
Encoding: 1044 1044 176
Width: 1824
Flags: HW
Fore
663.019 265 m 1,32,-1
 1148.45 265 l 1,33,-1
 1147.75 1202 l 1,34,-1
 722.05 1202 l 1,35,-1
 722.747 705 l 2,36,37
 723.004 522.138 723.004 522.138 698.19 385.87 c 0,38,39
 685.833 318 685.833 318 663.019 265 c 1,32,-1
1527.55 265 m 1,23,-1
 1713.85 265 l 1,4,-1
 1713.85 -425 l 1,5,-1
 1391.65 -425 l 1,6,-1
 1391.65 -17 l 1,7,-1
 431.35 -17 l 1,8,-1
 431.35 -425 l 1,9,-1
 109.15 -425 l 1,10,-1
 109.15 265 l 1,11,-1
 272.95 265 l 2,10,11
 329 265 329 265 344.95 343 c 0,12,13
 378.947 474.838 378.947 474.838 378.947 713 c 2,16,-1
 378.947 1493 l 1,19,-1
 1527.55 1493 l 1,20,-1
 1527.55 265 l 1,23,-1
EndSplineSet
EndChar
StartChar: afii10022
Encoding: 1045 1045 177
Width: 1330
Flags: HW
Fore
241.05 1493 m 1,0,-1
 1176.15 1493 l 1,1,-1
 1176.15 1202 l 1,2,-1
 587.55 1202 l 1,3,-1
 587.55 924 l 1,4,-1
 1141.05 924 l 1,5,-1
 1141.05 633 l 1,6,-1
 587.55 633 l 1,7,-1
 587.55 291 l 1,8,-1
 1195.95 291 l 1,9,-1
 1195.95 0 l 1,10,-1
 241.05 0 l 1,11,-1
 241.05 1493 l 1,0,-1
EndSplineSet
EndChar
StartChar: afii10024
Encoding: 1046 1046 178
Width: 1949
Flags: HW
Fore
870.35 0 m 1,0,-1
 1164.65 0 l 1,1,-1
 1164.65 673 l 1,2,-1
 1216.85 673 l 2,3,4
 1254.65 673 1254.65 673 1269.95 643 c 2,5,-1
 1588.55 0 l 1,6,-1
 1891.85 0 l 1,7,-1
 1510.25 768 l 1,8,9
 1500.35 789 1500.35 789 1488.65 797 c 1,10,11
 1501.25 803 1501.25 803 1511.15 824 c 2,12,-1
 1512.05 825 l 1,13,14
 1512.95 828 1512.95 828 1515.65 833 c 2,15,-1
 1827.95 1493 l 1,16,-1
 1523.75 1493 l 1,17,-1
 1267.25 951 l 1,18,19
 1251.95 921 1251.95 921 1211.45 921 c 2,20,-1
 1164.65 921 l 1,21,-1
 1164.65 1493 l 1,22,-1
 870.35 1493 l 1,23,-1
 870.35 921 l 1,24,-1
 823.55 921 l 2,25,26
 783.05 921 783.05 921 767.75 951 c 1,27,-1
 511.25 1493 l 1,28,-1
 207.05 1493 l 1,29,-1
 519.35 833 l 2,30,31
 532.85 805 532.85 805 542.75 799 c 2,32,-1
 543.65 799 l 1,33,-1
 544.55 798 l 2,34,35
 545.45 798 545.45 798 546.35 797 c 1,36,37
 534.65 789 534.65 789 524.75 768 c 1,38,-1
 143.15 0 l 1,39,-1
 446.45 0 l 1,40,-1
 765.05 643 l 2,41,42
 780.35 673 780.35 673 818.15 673 c 2,43,-1
 870.35 673 l 1,44,-1
 870.35 0 l 1,0,-1
EndSplineSet
EndChar
StartChar: afii10025
Encoding: 1047 1047 179
Width: 1352
Flags: HW
Fore
928.55 805 m 1,0,1
 1064.45 766 1064.45 766 1135.55 670 c 0,2,3
 1205.75 573 1205.75 573 1205.75 424 c 0,4,5
 1205.75 202 1205.75 202 1052.75 86 c 0,6,7
 899.75 -29 899.75 -29 606.35 -29 c 0,8,9
 502.85 -29 502.85 -29 399.35 -10 c 0,10,11
 294.95 8 294.95 8 193.25 45 c 1,12,-1
 193.25 342 l 1,13,14
 290.45 288 290.45 288 386.75 260 c 0,15,16
 482.15 233 482.15 233 574.85 233 c 0,17,18
 712.55 233 712.55 233 786.35 286 c 0,19,20
 859.25 339 859.25 339 859.25 438 c 0,21,22
 859.25 540 859.25 540 784.55 592 c 0,23,24
 708.95 645 708.95 645 562.25 645 c 2,25,-1
 423.65 645 l 1,26,-1
 423.65 893 l 1,27,-1
 569.45 893 l 2,28,29
 699.95 893 699.95 893 763.85 938 c 0,30,31
 827.75 984 827.75 984 827.75 1077 c 0,32,33
 827.75 1163 827.75 1163 765.65 1210 c 0,34,35
 703.55 1257 703.55 1257 590.15 1257 c 0,36,37
 506.45 1257 506.45 1257 420.95 1236 c 0,38,39
 335.45 1215 335.45 1215 250.85 1174 c 1,40,-1
 250.85 1456 l 1,41,42
 353.45 1488 353.45 1488 454.25 1504 c 0,43,44
 555.05 1520 555.05 1520 652.25 1520 c 0,45,46
 914.15 1520 914.15 1520 1043.75 1424 c 0,47,48
 1174.25 1329 1174.25 1329 1174.25 1137 c 0,49,50
 1174.25 1006 1174.25 1006 1112.15 922 c 0,51,52
 1050.05 839 1050.05 839 928.55 805 c 1,0,1
EndSplineSet
EndChar
StartChar: afii10026
Encoding: 1048 1048 180
Width: 1628
Flags: HW
Fore
1459.1 1493 m 1,0,-1
 1072.1 1493 l 1,1,-1
 583.4 469 l 1,2,-1
 583.4 1493 l 1,3,-1
 254.9 1493 l 1,4,-1
 254.9 0 l 1,5,-1
 641.9 0 l 1,6,-1
 1130.6 1024 l 1,7,-1
 1130.6 0 l 1,8,-1
 1459.1 0 l 1,9,-1
 1459.1 1493 l 1,0,-1
EndSplineSet
EndChar
StartChar: afii10028
Encoding: 1050 1050 182
Width: 1520
Flags: HW
Fore
261.05 1493 m 1,0,-1
 607.55 1493 l 1,1,-1
 607.55 948 l 1,2,-1
 1107.05 1493 l 1,3,-1
 1509.35 1493 l 1,4,-1
 862.25 786 l 1,5,-1
 1575.95 0 l 1,6,-1
 1142.15 0 l 1,7,-1
 607.55 588 l 1,8,-1
 607.55 0 l 1,9,-1
 261.05 0 l 1,10,-1
 261.05 1493 l 1,0,-1
EndSplineSet
EndChar
StartChar: afii10029
Encoding: 1051 1051 183
Width: 1656
Flags: HW
Fore
342.35 500 m 2,0,-1
 342.35 1493 l 1,1,-1
 1546.55 1494 l 1,2,-1
 1546.55 1 l 1,3,-1
 1198.25 0 l 1,4,-1
 1198.25 1204 l 1,5,-1
 688.85 1204 l 1,6,-1
 688.85 500 l 2,7,8
 688.85 198 688.85 198 546.65 53 c 0,9,10
 537.65 44 537.65 44 528.65 36 c 0,11,12
 403.55 -74 403.55 -74 131.75 -74 c 2,13,-1
 62.4502 -74 l 1,14,-1
 62.4502 215 l 1,15,-1
 119.15 215 l 2,16,17
 214.55 215 214.55 215 253.25 268 c 1,18,19
 342.35 338 342.35 338 342.35 500 c 2,0,-1
EndSplineSet
EndChar
StartChar: afii10030
Encoding: 1052 1052 184
Width: 1936
Flags: HW
Fore
271.05 1493 m 1,0,-1
 712.05 1493 l 1,1,-1
 1018.05 694 l 1,2,-1
 1325.85 1493 l 1,3,-1
 1765.95 1493 l 1,4,-1
 1765.95 0 l 1,5,-1
 1438.35 0 l 1,6,-1
 1438.35 1092 l 1,7,-1
 1128.75 287 l 1,8,-1
 909.15 287 l 1,9,-1
 599.55 1092 l 1,10,-1
 599.55 0 l 1,11,-1
 271.05 0 l 1,12,-1
 271.05 1493 l 1,0,-1
EndSplineSet
EndChar
StartChar: afii10031
Encoding: 1053 1053 185
Width: 1628
Flags: HW
Fore
254.9 1493 m 1,0,-1
 601.4 1493 l 1,1,-1
 601.4 924 l 1,2,-1
 1112.6 924 l 1,3,-1
 1112.6 1493 l 1,4,-1
 1459.1 1493 l 1,5,-1
 1459.1 0 l 1,6,-1
 1112.6 0 l 1,7,-1
 1112.6 633 l 1,8,-1
 601.4 633 l 1,9,-1
 601.4 0 l 1,10,-1
 254.9 0 l 1,11,-1
 254.9 1493 l 1,0,-1
EndSplineSet
EndChar
StartChar: afii10032
Encoding: 1054 1054 186
Width: 1653
Flags: HW
Fore
870 1241 m 0,0,1
 711.6 1241 711.6 1241 624.3 1111 c 0,2,3
 537 981 537 981 537 745 c 0,4,5
 537 510 537 510 624.3 380 c 0,6,7
 711.6 250 711.6 250 870 250 c 0,8,9
 1029.3 250 1029.3 250 1116.6 380 c 0,10,11
 1203.9 510 1203.9 510 1203.9 745 c 0,12,13
 1203.9 981 1203.9 981 1116.6 1111 c 0,14,15
 1029.3 1241 1029.3 1241 870 1241 c 0,0,1
870 1520 m 0,16,17
 1194 1520 1194 1520 1377.6 1314 c 0,18,19
 1561.2 1108 1561.2 1108 1561.2 745 c 0,20,21
 1561.2 383 1561.2 383 1377.6 177 c 0,22,23
 1194 -29 1194 -29 870 -29 c 0,24,25
 546.9 -29 546.9 -29 362.4 177 c 0,26,27
 178.8 383 178.8 383 178.8 745 c 0,28,29
 178.8 1108 178.8 1108 362.4 1314 c 0,30,31
 546.9 1520 546.9 1520 870 1520 c 0,16,17
EndSplineSet
EndChar
StartChar: afii10033
Encoding: 1055 1055 187
Width: 1628
Flags: HW
Fore
254.9 1493 m 1,0,-1
 1459.1 1493 l 1,1,-1
 1459.1 0 l 1,2,-1
 1112.6 0 l 1,3,-1
 1112.6 1202 l 1,4,-1
 601.4 1202 l 1,5,-1
 601.4 0 l 1,6,-1
 254.9 0 l 1,7,-1
 254.9 1493 l 1,0,-1
EndSplineSet
EndChar
StartChar: afii10034
Encoding: 1056 1056 188
Width: 1431
Flags: HW
Fore
249.45 1493 m 1,0,-1
 824.55 1493 l 2,1,2
 1081.05 1493 1081.05 1493 1217.85 1366 c 0,3,4
 1355.55 1240 1355.55 1240 1355.55 1006 c 0,5,6
 1355.55 771 1355.55 771 1217.85 644 c 0,7,8
 1081.05 518 1081.05 518 824.55 518 c 2,9,-1
 595.95 518 l 1,10,-1
 595.95 0 l 1,11,-1
 249.45 0 l 1,12,-1
 249.45 1493 l 1,0,-1
595.95 1214 m 1,13,-1
 595.95 797 l 1,14,-1
 787.65 797 l 2,15,16
 888.45 797 888.45 797 943.35 852 c 0,17,18
 998.25 906 998.25 906 998.25 1006 c 0,19,20
 998.25 1106 998.25 1106 943.35 1160 c 0,21,22
 888.45 1214 888.45 1214 787.65 1214 c 2,23,-1
 595.95 1214 l 1,13,-1
EndSplineSet
EndChar
StartChar: afii10035
Encoding: 1057 1057 189
Width: 1426
Flags: HW
Fore
1308.5 82 m 1,0,1
 1213.1 27 1213.1 27 1109.6 -1 c 0,2,3
 1006.1 -29 1006.1 -29 893.6 -29 c 0,4,5
 557.9 -29 557.9 -29 361.7 180 c 0,6,7
 165.5 388 165.5 388 165.5 745 c 0,8,9
 165.5 1103 165.5 1103 361.7 1312 c 0,10,11
 557.9 1520 557.9 1520 893.6 1520 c 0,12,13
 1006.1 1520 1006.1 1520 1109.6 1492 c 0,14,15
 1213.1 1464 1213.1 1464 1308.5 1409 c 1,16,-1
 1308.5 1100 l 1,17,18
 1212.2 1173 1212.2 1173 1118.6 1207 c 0,19,20
 1025 1241 1025 1241 921.5 1241 c 0,21,22
 736.1 1241 736.1 1241 629.9 1109 c 128,-1,23
 523.7 977 523.7 977 523.7 745 c 0,24,25
 523.7 514 523.7 514 629.9 382 c 0,26,27
 736.1 250 736.1 250 921.5 250 c 0,28,29
 1025 250 1025 250 1118.6 284 c 0,30,31
 1212.2 318 1212.2 318 1308.5 391 c 1,32,-1
 1308.5 82 l 1,0,1
EndSplineSet
EndChar
StartChar: afii10036
Encoding: 1058 1058 190
Width: 1327
Flags: HW
Fore
78.7998 1493 m 1,0,-1
 1317.2 1493 l 1,1,-1
 1317.2 1202 l 1,2,-1
 871.7 1202 l 1,3,-1
 871.7 0 l 1,4,-1
 525.2 0 l 1,5,-1
 525.2 1202 l 1,6,-1
 78.7998 1202 l 1,7,-1
 78.7998 1493 l 1,0,-1
EndSplineSet
EndChar
StartChar: afii10037
Encoding: 1059 1059 191
Width: 1458
Flags: HW
Fore
622.35 588 m 1,0,-1
 117.45 1493 l 1,1,-1
 493.65 1493 l 1,2,-1
 786.15 965 l 1,3,-1
 1012.95 1493 l 1,4,-1
 1385.55 1493 l 1,5,-1
 799.65 140 l 2,6,7
 772.65 77 772.65 77 719.55 32 c 0,8,9
 682.65 0 682.65 0 654.75 0 c 2,10,-1
 329.85 0 l 1,11,-1
 329.85 240 l 1,12,-1
 426.15 240 l 2,13,14
 479.25 240 479.25 240 514.35 321 c 1,15,-1
 622.35 588 l 1,0,-1
EndSplineSet
EndChar
StartChar: afii10038
Encoding: 1060 1060 192
Width: 2080
Flags: HW
Fore
926.25 1520 m 1,0,-1
 926.25 1520 l 1,1,-1
 926.25 1770 l 1,2,-1
 1272.75 1770 l 1,3,-1
 1272.75 1521 l 1,4,-1
 1306.05 1520 l 2,5,6
 1629.15 1520 1629.15 1520 1813.2 1314 c 128,-1,7
 1997.25 1108 1997.25 1108 1997.25 745 c 0,8,9
 1997.25 383 1997.25 383 1812.75 177 c 0,10,11
 1629.15 -29 1629.15 -29 1306.05 -29 c 2,12,-1
 1272.75 -29 l 1,13,-1
 1272.75 -264 l 1,14,-1
 926.25 -264 l 1,15,-1
 926.25 -29 l 1,16,-1
 892.95 -29 l 2,17,18
 569.85 -29 569.85 -29 385.35 177 c 0,19,20
 201.75 383 201.75 383 201.75 745 c 0,21,22
 201.75 1108 201.75 1108 385.35 1314 c 0,23,24
 569.85 1520 569.85 1520 892.95 1520 c 2,25,-1
 926.25 1520 l 1,0,-1
926.25 250 m 1,26,-1
 926.25 1241 l 1,27,-1
 892.95 1241 l 2,28,29
 734.55 1241 734.55 1241 647.25 1111 c 0,30,31
 559.95 981 559.95 981 559.95 745 c 0,32,33
 559.95 510 559.95 510 647.25 380 c 0,34,35
 734.55 250 734.55 250 892.95 250 c 0,36,37
 918.15 250 918.15 250 926.25 250 c 1,26,-1
1272.75 250 m 1,38,-1
 1306.05 250 l 2,39,40
 1464.45 250 1464.45 250 1551.75 380 c 0,41,42
 1639.05 510 1639.05 510 1639.05 745 c 0,43,44
 1639.05 981 1639.05 981 1551.75 1111 c 0,45,46
 1464.45 1241 1464.45 1241 1306.05 1241 c 2,47,-1
 1272.75 1241 l 1,48,-1
 1272.75 250 l 1,38,-1
EndSplineSet
EndChar
StartChar: afii10039
Encoding: 1061 1061 193
Width: 1499
Flags: HW
Fore
996.85 762 m 1,0,-1
 1463.05 0 l 1,1,-1
 1102.15 0 l 1,2,-1
 788.05 510 l 1,3,-1
 476.65 0 l 1,4,-1
 113.95 0 l 1,5,-1
 580.15 762 l 1,6,-1
 131.95 1493 l 1,7,-1
 493.75 1493 l 1,8,-1
 788.05 1012 l 1,9,-1
 1081.45 1493 l 1,10,-1
 1445.05 1493 l 1,11,-1
 996.85 762 l 1,0,-1
EndSplineSet
EndChar
StartChar: afii10040
Encoding: 1062 1062 194
Width: 1784
Flags: HW
Fore
1472.8 291 m 1,0,-1
 1472.8 1493 l 1,1,-1
 1126.3 1493 l 1,2,-1
 1126.3 291 l 1,3,-1
 615.1 291 l 1,4,-1
 615.1 1493 l 1,5,-1
 268.6 1493 l 1,6,-1
 268.6 0 l 1,7,-1
 1372 0 l 1,8,-1
 1372 -344 l 1,9,-1
 1717.6 -344 l 1,10,-1
 1719.4 291 l 1,11,-1
 1472.8 291 l 1,0,-1
EndSplineSet
EndChar
StartChar: afii10041
Encoding: 1063 1063 195
Width: 1580
Flags: HW
Fore
794.9 933 m 2,0,-1
 1112.6 933 l 1,1,-1
 1112.6 1493 l 1,2,-1
 1459.1 1493 l 1,3,-1
 1459.1 0 l 1,4,-1
 1112.6 0 l 1,5,-1
 1112.6 624 l 1,6,-1
 848 624 l 2,7,8
 721.1 624 721.1 624 585.2 664 c 0,9,10
 472.7 697 472.7 697 427.7 745 c 0,11,12
 344.9 833 344.9 833 293.6 973 c 0,13,14
 254.9 1081 254.9 1081 254.9 1178 c 2,15,-1
 254.9 1493 l 1,16,-1
 603.2 1493 l 1,17,-1
 603.2 1184 l 2,18,19
 603.2 1106 603.2 1106 607.7 1086 c 0,20,21
 615.8 1051 615.8 1051 643.7 1015 c 0,22,23
 704 937 704 937 785 933 c 0,24,25
 789.5 933 789.5 933 794.9 933 c 2,0,-1
EndSplineSet
EndChar
StartChar: afii10042
Encoding: 1064 1064 196
Width: 2114
Flags: HW
Fore
1936.95 0 m 1,0,-1
 280.05 0 l 1,1,-1
 280.05 1493 l 1,2,-1
 626.55 1493 l 1,3,-1
 626.55 291 l 1,4,-1
 935.25 291 l 1,5,-1
 935.25 1343 l 1,6,-1
 1281.75 1343 l 1,7,-1
 1281.75 291 l 1,8,-1
 1590.45 291 l 1,9,-1
 1590.45 1493 l 1,10,-1
 1936.95 1493 l 1,11,-1
 1936.95 0 l 1,0,-1
EndSplineSet
EndChar
StartChar: afii10043
Encoding: 1065 1065 197
Width: 2266
Flags: HW
Fore
1295.45 291 m 1,0,-1
 1604.15 291 l 1,1,-1
 1604.15 1493 l 1,2,-1
 1950.65 1493 l 1,3,-1
 1950.65 291 l 1,4,-1
 2197.25 291 l 1,5,-1
 2195.45 -344 l 1,6,-1
 1849.85 -344 l 1,7,-1
 1849.85 0 l 1,8,-1
 293.75 0 l 1,9,-1
 293.75 1493 l 1,10,-1
 640.25 1493 l 1,11,-1
 640.25 291 l 1,12,-1
 948.95 291 l 1,13,-1
 948.95 1343 l 1,14,-1
 1295.45 1343 l 1,15,-1
 1295.45 291 l 1,0,-1
EndSplineSet
EndChar
StartChar: afii10044
Encoding: 1066 1066 198
Width: 1470
Flags: HW
Fore
983.25 487 m 0,0,1
 983.25 636 983.25 636 867.15 680 c 0,2,3
 826.65 696 826.65 696 772.65 696 c 2,4,-1
 580.95 696 l 1,5,-1
 580.95 279 l 1,6,-1
 772.65 279 l 2,7,8
 924.75 279 924.75 279 967.95 395 c 0,9,10
 983.25 435 983.25 435 983.25 487 c 0,0,1
1340.55 487 m 0,11,12
 1340.55 185 1340.55 185 1120.05 67 c 0,13,14
 994.95 0 994.95 0 809.55 0 c 2,15,-1
 234.45 0 l 1,16,-1
 234.45 1167 l 1,17,-1
 -35.5498 1167 l 1,18,-1
 -35.5498 1493 l 1,19,-1
 580.95 1493 l 1,20,-1
 580.95 975 l 1,21,-1
 809.55 975 l 2,22,23
 1129.95 975 1129.95 975 1261.35 782 c 0,24,25
 1340.55 666 1340.55 666 1340.55 487 c 0,11,12
EndSplineSet
EndChar
StartChar: afii10045
Encoding: 1067 1067 199
Width: 2040
Flags: HW
Fore
1531.55 1493 m 1,0,-1
 1878.05 1493 l 1,1,-1
 1878.05 0 l 1,2,-1
 1531.55 0 l 1,3,-1
 1531.55 1493 l 1,0,-1
276.95 0 m 1,4,-1
 852.05 0 l 2,5,6
 1108.55 0 1108.55 0 1245.35 126 c 0,7,8
 1383.05 253 1383.05 253 1383.05 487 c 0,9,10
 1383.05 722 1383.05 722 1245.35 848 c 0,11,12
 1108.55 975 1108.55 975 852.05 975 c 2,13,-1
 623.45 975 l 1,14,-1
 623.45 1493 l 1,15,-1
 276.95 1493 l 1,16,-1
 276.95 0 l 1,4,-1
623.45 279 m 1,17,-1
 623.45 696 l 1,18,-1
 815.15 696 l 2,19,20
 915.95 696 915.95 696 970.85 642 c 0,21,22
 1025.75 587 1025.75 587 1025.75 487 c 0,23,24
 1025.75 387 1025.75 387 970.85 333 c 0,25,26
 915.95 279 915.95 279 815.15 279 c 2,27,-1
 623.45 279 l 1,17,-1
EndSplineSet
EndChar
StartChar: afii10046
Encoding: 1068 1068 200
Width: 1431
Flags: HW
Fore
249.45 0 m 1,0,-1
 824.55 0 l 2,1,2
 1081.05 0 1081.05 0 1217.85 126 c 0,3,4
 1355.55 253 1355.55 253 1355.55 487 c 0,5,6
 1355.55 722 1355.55 722 1217.85 848 c 0,7,8
 1081.05 975 1081.05 975 824.55 975 c 2,9,-1
 595.95 975 l 1,10,-1
 595.95 1493 l 1,11,-1
 249.45 1493 l 1,12,-1
 249.45 0 l 1,0,-1
595.95 279 m 1,13,-1
 595.95 696 l 1,14,-1
 787.65 696 l 2,15,16
 888.45 696 888.45 696 943.35 642 c 0,17,18
 998.25 587 998.25 587 998.25 487 c 0,19,20
 998.25 387 998.25 387 943.35 333 c 0,21,22
 888.45 279 888.45 279 787.65 279 c 2,23,-1
 595.95 279 l 1,13,-1
EndSplineSet
EndChar
StartChar: afii10047
Encoding: 1069 1069 201
Width: 1388
Flags: HW
Fore
941.3 618 m 1,0,1
 935 499 935 499 849.5 388 c 0,2,-1
 844.1 382 l 0,3,4
 737.9 250 737.9 250 552.5 250 c 0,5,6
 449 250 449 250 355.4 284 c 0,7,8
 261.8 318 261.8 318 165.5 391 c 1,9,-1
 165.5 82 l 1,10,11
 260.9 27 260.9 27 364.4 -1 c 0,12,13
 467.9 -29 467.9 -29 580.4 -29 c 0,14,15
 916.1 -29 916.1 -29 1112.3 180 c 0,16,17
 1308.5 388 1308.5 388 1308.5 745 c 0,18,19
 1308.5 1103 1308.5 1103 1112.3 1312 c 0,20,21
 916.1 1520 916.1 1520 580.4 1520 c 0,22,23
 467.9 1520 467.9 1520 364.4 1492 c 0,24,25
 260.9 1464 260.9 1464 165.5 1409 c 1,26,-1
 165.5 1100 l 1,27,28
 261.8 1173 261.8 1173 355.4 1207 c 0,29,30
 449 1241 449 1241 552.5 1241 c 0,31,32
 737.9 1241 737.9 1241 844.1 1109 c 0,33,34
 931.4 1000 931.4 1000 935 907 c 1,35,-1
 459.8 907 l 1,36,-1
 459.8 618 l 1,37,-1
 941.3 618 l 1,0,1
EndSplineSet
EndChar
StartChar: afii10048
Encoding: 1070 1070 202
Width: 2338
Flags: HW
Fore
1506.05 1241 m 0,0,1
 1347.65 1241 1347.65 1241 1260.35 1111 c 0,2,3
 1173.05 981 1173.05 981 1173.05 745 c 0,4,5
 1173.05 510 1173.05 510 1260.35 380 c 0,6,7
 1347.65 250 1347.65 250 1506.05 250 c 0,8,9
 1665.35 250 1665.35 250 1752.65 380 c 0,10,11
 1839.95 510 1839.95 510 1839.95 745 c 0,12,13
 1839.95 981 1839.95 981 1752.65 1111 c 0,14,15
 1665.35 1241 1665.35 1241 1506.05 1241 c 0,0,1
640.25 876 m 1,16,-1
 821.15 876 l 1,17,18
 849.05 1147 849.05 1147 999.35 1314 c 0,19,20
 1182.95 1520 1182.95 1520 1506.05 1520 c 0,21,22
 1830.05 1520 1830.05 1520 2013.65 1314 c 0,23,24
 2197.25 1108 2197.25 1108 2197.25 745 c 0,25,26
 2197.25 383 2197.25 383 2013.65 177 c 0,27,28
 1830.05 -29 1830.05 -29 1506.05 -29 c 0,29,30
 1182.95 -29 1182.95 -29 999.35 177 c 0,31,32
 851.75 342 851.75 342 822.05 606 c 1,33,-1
 640.25 606 l 1,34,-1
 640.25 0 l 1,35,-1
 293.75 0 l 1,36,-1
 293.75 1493 l 1,37,-1
 640.25 1493 l 1,38,-1
 640.25 876 l 1,16,-1
EndSplineSet
EndChar
StartChar: afii10049
Encoding: 1071 1071 203
Width: 1505
Flags: HW
Fore
976.3 831 m 2,0,1
 867.4 831 867.4 831 820.6 876 c 0,2,3
 772.9 921 772.9 921 772.9 1024 c 0,4,5
 772.9 1126 772.9 1126 820.6 1170 c 0,6,7
 867.4 1214 867.4 1214 976.3 1214 c 2,8,-1
 1122.1 1214 l 1,9,-1
 1122.1 831 l 1,10,-1
 976.3 831 l 2,0,1
1122.1 565 m 1,11,-1
 1122.1 0 l 1,12,-1
 1468.6 0 l 1,13,-1
 1468.6 1493 l 1,14,-1
 939.4 1493 l 2,15,16
 673.9 1493 673.9 1493 550.6 1394 c 0,17,18
 426.4 1295 426.4 1295 426.4 1081 c 0,19,20
 426.4 933 426.4 933 491.2 838 c 0,21,22
 555.1 743 555.1 743 684.7 698 c 1,23,24
 613.6 680 613.6 680 557.8 616 c 0,25,26
 501.1 553 501.1 553 443.5 424 c 2,27,-1
 255.4 0 l 1,28,-1
 624.4 0 l 1,29,-1
 788.2 371 l 2,30,31
 837.7 483 837.7 483 889 524 c 0,32,33
 939.4 565 939.4 565 1024 565 c 2,34,-1
 1122.1 565 l 1,11,-1
EndSplineSet
EndChar
StartChar: afii10065
Encoding: 1072 1072 204
Width: 1309
Flags: HW
Fore
672.05 504 m 2,0,1
 571.25 504 571.25 504 520.85 466 c 0,2,3
 469.55 428 469.55 428 469.55 354 c 0,4,5
 469.55 286 469.55 286 510.05 248 c 0,6,7
 551.45 209 551.45 209 624.35 209 c 0,8,9
 715.25 209 715.25 209 777.35 282 c 0,10,11
 839.45 354 839.45 354 839.45 463 c 2,12,-1
 839.45 504 l 1,13,-1
 672.05 504 l 2,0,1
1164.35 639 m 2,14,-1
 1164.35 0 l 1,15,-1
 839.45 0 l 1,16,-1
 839.45 166 l 1,17,18
 774.65 64 774.65 64 693.65 17.5 c 128,-1,19
 612.65 -29 612.65 -29 496.55 -29 c 0,20,21
 339.95 -29 339.95 -29 241.85 72 c 0,22,23
 144.65 174 144.65 174 144.65 336 c 0,24,25
 144.65 533 144.65 533 267.05 625 c 0,26,27
 388.55 717 388.55 717 649.55 717 c 2,28,-1
 839.45 717 l 1,29,-1
 839.45 745 l 2,30,31
 839.45 830 839.45 830 779.15 870 c 0,32,33
 718.85 909 718.85 909 591.05 909 c 0,34,35
 487.55 909 487.55 909 398.45 886 c 0,36,37
 309.35 863 309.35 863 232.85 817 c 1,38,-1
 232.85 1090 l 1,39,40
 336.35 1118 336.35 1118 440.75 1132 c 0,41,42
 545.15 1147 545.15 1147 649.55 1147 c 0,43,44
 922.25 1147 922.25 1147 1042.85 1028 c 0,45,46
 1164.35 908 1164.35 908 1164.35 639 c 2,14,-1
EndSplineSet
EndChar
StartChar: afii10066
Encoding: 1073 1073 205
Width: 1323
Flags: HW
Fore
297.15 991 m 1,0,1
 208.05 1064 208.05 1064 199.95 1184 c 0,2,3
 198.15 1203 198.15 1203 198.15 1225 c 0,4,5
 201.75 1401 201.75 1401 286.35 1476 c 0,6,7
 399.75 1576 399.75 1576 604.05 1601 c 0,8,9
 657.15 1607 657.15 1607 712.05 1607 c 2,10,-1
 1161.15 1607 l 1,11,-1
 1146.75 1363 l 1,12,-1
 708.45 1363 l 2,13,14
 550.05 1363 550.05 1363 532.95 1263 c 0,15,16
 531.15 1252 531.15 1252 531.15 1240 c 0,17,18
 531.15 1200 531.15 1200 590.55 1171 c 0,19,20
 644.55 1144 644.55 1144 704.85 1147 c 1,21,22
 964.95 1147 964.95 1147 1110.75 991 c 0,23,24
 1257.45 835 1257.45 835 1257.45 559 c 0,25,26
 1257.45 283 1257.45 283 1110.75 127 c 0,27,28
 964.95 -29 964.95 -29 704.85 -29 c 0,29,30
 443.85 -29 443.85 -29 297.15 127 c 0,31,32
 149.55 283 149.55 283 149.55 559 c 128,-1,33
 149.55 835 149.55 835 297.15 991 c 1,0,1
704.85 891 m 0,34,35
 597.75 891 597.75 891 541.5 805.5 c 128,-1,36
 485.25 720 485.25 720 485.25 559 c 0,37,38
 485.25 398 485.25 398 541.95 312 c 0,39,40
 597.75 227 597.75 227 704.85 227 c 0,41,42
 810.15 227 810.15 227 865.95 312 c 0,43,44
 921.75 398 921.75 398 921.75 559 c 0,45,46
 921.75 720 921.75 720 865.95 806 c 0,47,48
 810.15 891 810.15 891 704.85 891 c 0,34,35
EndSplineSet
EndChar
StartChar: afii10067
Encoding: 1074 1074 206
Width: 1161
Flags: HW
Fore
851.354 621 m 1,0,1
 915.255 605 915.255 605 952.154 566 c 0,2,3
 955.755 562 955.755 562 958.454 558 c 1,4,5
 962.954 554 962.954 554 966.555 549 c 0,6,7
 1053.85 441 1053.85 441 1051.15 326 c 0,8,9
 1049.35 232 1049.35 232 1009.75 165 c 0,10,11
 998.954 146 998.954 146 983.654 125 c 0,12,13
 936.854 60 936.854 60 884.654 34 c 2,14,-1
 883.755 33 l 2,15,16
 815.354 0 815.354 0 693.854 0 c 2,17,-1
 153.854 0 l 1,18,-1
 153.854 1130 l 1,19,-1
 701.055 1130 l 2,20,21
 802.755 1130 802.755 1130 889.154 1068 c 0,22,23
 917.055 1048 917.055 1048 935.055 1026 c 0,24,25
 1003.45 937 1003.45 937 1003.45 840 c 0,26,27
 1003.45 763 1003.45 763 949.454 701 c 2,28,-1
 948.555 700 l 2,29,30
 945.854 696 945.854 696 942.255 692 c 0,31,32
 901.755 649 901.755 649 879.255 635 c 0,33,34
 867.555 628 867.555 628 851.354 621 c 1,0,1
728.055 808 m 0,35,36
 728.055 860 728.055 860 680.354 885 c 0,37,38
 677.654 887 677.654 887 674.055 888 c 0,39,40
 629.055 909 629.055 909 515.654 909 c 2,41,-1
 446.354 909 l 1,42,-1
 446.354 719 l 1,43,-1
 530.954 719 l 2,44,45
 635.354 719 635.354 719 661.454 730 c 2,46,-1
 663.255 730 l 1,47,-1
 664.154 731 l 2,48,49
 673.154 735 673.154 735 681.255 742 c 0,50,51
 715.454 773 715.454 773 720.854 782 c 0,52,53
 728.055 794 728.055 794 728.055 808 c 0,35,36
699.255 472 m 0,54,55
 646.154 504 646.154 504 558.854 505 c 0,56,57
 551.654 505 551.654 505 540.854 505 c 2,58,-1
 524.654 505 l 1,59,-1
 523.755 505 l 1,60,-1
 446.354 505 l 1,61,-1
 446.354 211 l 1,62,-1
 538.154 211 l 2,63,64
 618.255 211 618.255 211 647.055 218 c 0,65,66
 682.154 227 682.154 227 710.055 248 c 0,67,68
 758.654 284 758.654 284 767.654 322 c 0,69,70
 771.255 336 771.255 336 771.255 352 c 0,71,72
 771.255 429 771.255 429 699.255 472 c 0,54,55
EndSplineSet
EndChar
StartChar: afii10068
Encoding: 1075 1075 207
Width: 1134
Flags: HW
Fore
1012.5 855 m 1,0,-1
 512.1 855 l 1,1,-1
 512.1 0 l 1,2,-1
 229.5 0 l 1,3,-1
 229.5 1120 l 1,4,-1
 1012.5 1120 l 1,5,-1
 1012.5 855 l 1,0,-1
EndSplineSet
EndChar
StartChar: afii10069
Encoding: 1076 1076 208
Width: 1405
Flags: HW
Fore
347.55 556 m 2,19,20
 347.55 1137 l 1,26,-1
 1202.55 1137 l 1,27,-1
 1202.55 252 l 1,0,-1
 1344.75 252 l 1,4,-1
 1344.75 -345 l 1,5,-1
 1033.35 -345 l 1,6,-1
 1033.35 -1 l 1,7,-1
 464.55 -1 l 1,8,-1
 464.55 -345 l 1,9,-1
 152.25 -345 l 1,10,-1
 152.25 252 l 1,11,-1
 268.35 252 l 2,17,18
 309.305 252 309.305 252 324.504 300 c 0,0,0
 347.55 372.78 347.55 372.78 347.55 556 c 2,19,20
595.95 252 m 1,30,-1
 902.85 252 l 1,31,-1
 902.85 883 l 1,32,-1
 644.55 883 l 1,33,-1
 644.55 556 l 2,34,35
 644.55 443.163 644.55 443.163 622.017 331.901 c 0,36,37
 610.327 274.188 610.327 274.188 595.95 252 c 1,30,-1
EndSplineSet
EndChar
StartChar: afii10070
Encoding: 1077 1077 209
Width: 1319
Flags: HW
Fore
1229.9 563 m 2,0,-1
 1229.9 461 l 1,1,-1
 476.6 461 l 1,2,3
 488.3 335 488.3 335 558.5 272 c 0,4,5
 628.7 209 628.7 209 754.7 209 c 0,6,7
 856.4 209 856.4 209 963.5 242 c 0,8,9
 1069.7 276 1069.7 276 1182.2 344 c 1,10,-1
 1182.2 68 l 1,11,12
 1067.9 20 1067.9 20 953.6 -4 c 0,13,14
 839.3 -29 839.3 -29 725 -29 c 0,15,16
 451.4 -29 451.4 -29 299.3 126 c 0,17,18
 148.1 280 148.1 280 148.1 559 c 0,19,20
 148.1 833 148.1 833 297.5 990 c 0,21,22
 446 1147 446 1147 707 1147 c 0,23,24
 944.6 1147 944.6 1147 1087.7 988 c 0,25,26
 1229.9 829 1229.9 829 1229.9 563 c 2,0,-1
898.7 682 m 1,27,28
 898.7 784 898.7 784 844.7 846 c 0,29,30
 791.6 909 791.6 909 705.2 909 c 0,31,32
 611.6 909 611.6 909 553.1 850.5 c 128,-1,33
 494.6 792 494.6 792 480.2 682 c 1,34,-1
 898.7 682 l 1,27,28
EndSplineSet
EndChar
StartChar: afii10072
Encoding: 1078 1078 210
Width: 1867
Flags: HW
HStem: 0 21G<142.45 467.35 807.55 1128.85 1468.15 1788.55> 484 242<760.75 807.55 1128.85 1169.35> 1100 20G<196.45 522.25 807.55 1128.85 1413.25 1734.55>
VStem: 807.55 321.3<0 484 726 1120>
Fore
807.55 0 m 1,0,-1
 1128.85 0 l 1,1,-1
 1128.85 484 l 1,2,-1
 1166.65 484 l 2,3,4
 1198.49 484 1198.49 484 1210.75 462 c 2,5,-1
 1468.15 0 l 1,6,-1
 1788.55 0 l 1,7,-1
 1466.35 576 l 1,8,9
 1458.25 592 1458.25 592 1447.45 598 c 1,10,11
 1458.25 602 1458.25 602 1469.05 620 c 1,12,-1
 1469.05 621 l 1,13,14
 1469.55 621.557 1469.55 621.557 1470.85 624 c 2,15,-1
 1734.55 1120 l 1,16,-1
 1413.25 1120 l 1,17,-1
 1212.55 750 l 2,18,19
 1199.54 726 1199.54 726 1165.75 726 c 2,20,-1
 1128.85 726 l 1,21,-1
 1128.85 1120 l 1,22,-1
 807.55 1120 l 1,23,-1
 807.55 726 l 1,24,-1
 770.65 726 l 2,25,26
 735.55 726 735.55 726 723.85 750 c 1,27,-1
 522.25 1120 l 1,28,-1
 196.45 1120 l 1,29,-1
 460.15 624 l 2,30,31
 471.157 603.296 471.157 603.296 483.55 598 c 1,32,33
 475.45 593 475.45 593 464.65 576 c 1,34,-1
 142.45 0 l 1,35,-1
 467.35 0 l 1,36,-1
 724.75 462 l 2,37,38
 737.007 484 737.007 484 768.85 484 c 2,39,-1
 807.55 484 l 1,40,-1
 807.55 0 l 1,0,-1
EndSplineSet
EndChar
StartChar: afii10073
Encoding: 1079 1079 211
Width: 1176
Flags: HW
Fore
1019.3 839 m 0,0,1
 1019.3 721 1019.3 721 975.2 669 c 0,2,3
 930.2 617 930.2 617 826.7 601 c 1,4,5
 995 580 995 580 1040.9 472 c 0,6,7
 1041.8 471 1041.8 471 1042.7 469 c 0,8,9
 1064.3 417 1064.3 417 1064.3 334 c 0,10,11
 1064.3 116 1064.3 116 842.9 24 c 0,12,13
 705.2 -34 705.2 -34 500 -34 c 0,14,15
 359.6 -34 359.6 -34 205.7 51 c 1,16,-1
 205.7 253 l 1,17,18
 327.2 206 327.2 206 494.6 206 c 0,19,20
 726.8 206 726.8 206 773.6 281 c 0,21,22
 788 304 788 304 788 334 c 0,23,24
 788 413 788 413 694.4 456 c 0,25,26
 625.1 488 625.1 488 524.3 488 c 2,27,-1
 395.6 488 l 1,28,-1
 395.6 728 l 1,29,-1
 529.7 728 l 2,30,31
 683.6 728 683.6 728 733.1 786 c 0,32,33
 751.1 806 751.1 806 751.1 832 c 0,34,35
 751.1 907 751.1 907 589.1 916 c 0,36,37
 560.3 918 560.3 918 524.3 918 c 0,38,39
 395.6 918 395.6 918 239 888 c 1,40,-1
 228.2 1083 l 1,41,42
 399.2 1159 399.2 1159 536.9 1159 c 0,43,44
 779.9 1159 779.9 1159 911.3 1058 c 0,45,46
 1019.3 975 1019.3 975 1019.3 839 c 0,0,1
EndSplineSet
EndChar
StartChar: afii10074
Encoding: 1080 1080 212
Width: 1367
Flags: HW
Fore
550.5 76 m 1,0,-1
 550.5 0 l 1,1,-1
 228.3 0 l 1,2,-1
 228.3 1120 l 1,3,-1
 550.5 1120 l 1,4,-1
 550.5 544 l 1,5,-1
 917.7 1052 l 1,6,-1
 917.7 1120 l 1,7,-1
 1241.7 1120 l 1,8,-1
 1241.7 0 l 1,9,-1
 917.7 0 l 1,10,-1
 917.7 584 l 1,11,-1
 550.5 76 l 1,0,-1
EndSplineSet
EndChar
StartChar: afii10076
Encoding: 1082 1082 214
Width: 1304
Flags: HW
Fore
233.45 1124 m 1,0,-1
 555.65 1124 l 1,1,-1
 555.65 709 l 1,2,-1
 926.45 1120 l 1,3,-1
 1300.85 1120 l 1,4,-1
 808.55 606 l 1,5,-1
 1339.55 0 l 1,6,-1
 948.95 0 l 1,7,-1
 555.65 467 l 1,8,-1
 555.65 0 l 1,9,-1
 233.45 0 l 1,10,-1
 233.45 1124 l 1,0,-1
EndSplineSet
EndChar
StartChar: afii10077
Encoding: 1083 1083 215
Width: 1394
Flags: HW
Fore
589.1 877 m 1,0,-1
 956.3 877 l 1,1,-1
 956.3 0 l 1,2,-1
 1280.3 0 l 1,3,-1
 1280.3 1120 l 1,4,-1
 266.9 1120 l 1,5,-1
 269.6 334 l 1,6,7
 269.6 270 269.6 270 221.9 224 c 0,8,9
 187.7 192 187.7 192 147.2 186 c 0,10,11
 130.1 184 130.1 184 105.8 184 c 2,12,-1
 61.7002 184 l 1,13,-1
 61.7002 -65 l 1,14,-1
 162.5 -66 l 2,15,16
 360.5 -66 360.5 -66 462.2 26 c 0,17,18
 472.1 34 472.1 34 481.1 44 c 0,19,20
 581.9 150 581.9 150 588.2 304 c 0,21,22
 589.1 319 589.1 319 589.1 334 c 2,23,-1
 589.1 877 l 1,0,-1
EndSplineSet
EndChar
StartChar: afii10078
Encoding: 1084 1084 216
Width: 1692
Flags: HW
Fore
1024.15 135 m 1,0,-1
 789.25 136 l 1,1,-1
 563.35 661 l 1,2,-1
 563.35 0 l 1,3,-1
 249.25 0 l 1,4,-1
 249.25 1118 l 1,5,-1
 683.95 1118 l 1,6,-1
 905.35 604 l 1,7,-1
 1133.05 1118 l 1,8,-1
 1567.75 1118 l 1,9,-1
 1567.75 0 l 1,10,-1
 1254.55 0 l 1,11,-1
 1254.55 660 l 1,12,-1
 1024.15 135 l 1,0,-1
EndSplineSet
EndChar
StartChar: afii10079
Encoding: 1085 1085 217
Width: 1332
Flags: HW
Fore
550.5 476 m 1,0,-1
 550.5 0 l 1,1,-1
 228.3 0 l 1,2,-1
 228.3 1120 l 1,3,-1
 550.5 1120 l 1,4,-1
 550.5 719 l 1,5,-1
 917.7 719 l 1,6,-1
 917.7 1120 l 1,7,-1
 1241.7 1120 l 1,8,-1
 1241.7 0 l 1,9,-1
 917.7 0 l 1,10,-1
 917.7 476 l 1,11,-1
 550.5 476 l 1,0,-1
EndSplineSet
EndChar
StartChar: afii10080
Encoding: 1086 1086 218
Width: 1336
Flags: HW
Fore
704.85 891 m 0,0,1
 597.75 891 597.75 891 541.5 805.5 c 128,-1,2
 485.25 720 485.25 720 485.25 559 c 0,3,4
 485.25 398 485.25 398 541.95 312 c 0,5,6
 597.75 227 597.75 227 704.85 227 c 0,7,8
 810.15 227 810.15 227 865.95 312 c 0,9,10
 921.75 398 921.75 398 921.75 559 c 0,11,12
 921.75 720 921.75 720 865.95 806 c 0,13,14
 810.15 891 810.15 891 704.85 891 c 0,0,1
704.85 1147 m 0,15,16
 964.95 1147 964.95 1147 1110.75 991 c 0,17,18
 1257.45 835 1257.45 835 1257.45 559 c 0,19,20
 1257.45 283 1257.45 283 1110.75 127 c 0,21,22
 964.95 -29 964.95 -29 704.85 -29 c 0,23,24
 443.85 -29 443.85 -29 297.15 127 c 0,25,26
 149.55 283 149.55 283 149.55 559 c 128,-1,27
 149.55 835 149.55 835 296.7 991 c 128,-1,28
 443.85 1147 443.85 1147 704.85 1147 c 0,15,16
EndSplineSet
EndChar
StartChar: afii10081
Encoding: 1087 1087 219
Width: 1365
Flags: HW
Fore
550.5 877 m 1,0,-1
 550.5 0 l 1,1,-1
 228.3 0 l 1,2,-1
 228.3 1120 l 1,3,-1
 1241.7 1120 l 1,4,-1
 1241.7 0 l 1,5,-1
 917.7 0 l 1,6,-1
 917.7 877 l 1,7,-1
 550.5 877 l 1,0,-1
EndSplineSet
EndChar
StartChar: afii10082
Encoding: 1088 1088 220
Width: 1396
Flags: HW
Fore
554.3 162 m 1,0,-1
 554.3 -426 l 1,1,-1
 232.1 -426 l 1,2,-1
 232.1 1120 l 1,3,-1
 554.3 1120 l 1,4,-1
 554.3 956 l 1,5,6
 620.9 1054 620.9 1054 701.9 1100 c 0,7,8
 782.9 1147 782.9 1147 888.2 1147 c 0,9,10
 1074.5 1147 1074.5 1147 1194.2 982 c 0,11,12
 1313.9 818 1313.9 818 1313.9 559 c 0,13,14
 1313.9 300 1313.9 300 1194.2 136 c 0,15,16
 1074.5 -29 1074.5 -29 888.2 -29 c 0,17,18
 782.9 -29 782.9 -29 701.9 17.5 c 128,-1,19
 620.9 64 620.9 64 554.3 162 c 1,0,-1
768.5 887 m 0,20,21
 665 887 665 887 610.1 802 c 0,22,23
 554.3 718 554.3 718 554.3 559 c 0,24,25
 554.3 400 554.3 400 610.1 316 c 0,26,27
 665 231 665 231 768.5 231 c 0,28,29
 872 231 872 231 926.45 315 c 128,-1,30
 980.9 399 980.9 399 980.9 559 c 0,31,32
 980.9 719 980.9 719 926.9 803 c 0,33,34
 872 887 872 887 768.5 887 c 0,20,21
EndSplineSet
EndChar
StartChar: afii10083
Encoding: 1089 1089 221
Width: 1150
Flags: HW
Fore
1027.55 1085 m 1,0,-1
 1027.55 793 l 1,1,2
 961.85 843 961.85 843 895.25 867 c 0,3,4
 829.55 891 829.55 891 758.45 891 c 0,5,6
 623.45 891 623.45 891 547.85 804 c 0,7,8
 473.15 716 473.15 716 473.15 559 c 0,9,10
 473.15 402 473.15 402 547.85 314 c 0,11,12
 623.45 227 623.45 227 758.45 227 c 0,13,14
 834.05 227 834.05 227 902.45 252 c 0,15,16
 969.95 277 969.95 277 1027.55 326 c 1,17,-1
 1027.55 33 l 1,18,19
 951.95 2 951.95 2 873.65 -14 c 0,20,21
 796.25 -29 796.25 -29 717.95 -29 c 0,22,23
 445.25 -29 445.25 -29 291.35 126 c 0,24,25
 137.45 282 137.45 282 137.45 559 c 0,26,27
 137.45 836 137.45 836 291.35 992 c 0,28,29
 445.25 1147 445.25 1147 717.95 1147 c 0,30,31
 797.15 1147 797.15 1147 873.65 1132 c 0,32,33
 951.05 1116 951.05 1116 1027.55 1085 c 1,0,-1
EndSplineSet
EndChar
StartChar: afii10084
Encoding: 1090 1090 222
Width: 1070
Flags: HW
Fore
1019.2 876 m 1,0,-1
 722.2 876 l 1,1,-1
 722.2 0 l 1,2,-1
 401.8 0 l 1,3,-1
 401.8 876 l 1,4,-1
 104.8 876 l 1,5,-1
 104.8 1120 l 1,6,-1
 1019.2 1120 l 1,7,-1
 1019.2 876 l 1,0,-1
EndSplineSet
EndChar
StartChar: afii10085
Encoding: 1091 1091 223
Width: 1267
Flags: HW
Fore
88.6504 1120 m 1,0,-1
 410.85 1120 l 1,1,-1
 681.75 360 l 1,2,-1
 912.15 1120 l 1,3,-1
 1234.35 1120 l 1,4,-1
 810.45 -106 l 1,5,6
 746.55 -293 746.55 -293 661.95 -368 c 0,7,8
 576.45 -442 576.45 -442 436.95 -442 c 2,9,-1
 250.65 -442 l 1,10,-1
 250.65 -207 l 1,11,-1
 351.45 -207 l 2,12,13
 433.35 -207 433.35 -207 471.15 -178 c 0,14,15
 508.05 -149 508.05 -149 528.75 -74 c 1,16,-1
 537.75 -43 l 1,17,-1
 88.6504 1120 l 1,0,-1
EndSplineSet
EndChar
StartChar: afii10086
Encoding: 1092 1092 224
Width: 1762
Flags: HW
Fore
1671.95 558 m 0,0,1
 1671.95 305 1671.95 305 1537.85 138 c 0,2,3
 1530.65 129 1530.65 129 1522.55 120 c 0,4,5
 1389.35 -32 1389.35 -32 1185.05 -47 c 0,6,7
 1163.45 -49 1163.45 -49 1141.85 -49 c 2,8,-1
 1068.05 -49 l 1,9,-1
 1068.05 -300 l 1,10,-1
 786.35 -300 l 1,11,-1
 786.35 -49 l 1,12,-1
 723.35 -50 l 2,13,14
 602.75 -50 602.75 -50 478.55 6 c 0,15,16
 390.35 45 390.35 45 340.85 100 c 0,17,18
 195.05 262 195.05 262 195.05 558 c 0,19,20
 195.05 761 195.05 761 267.95 898 c 0,21,22
 294.05 947 294.05 947 331.85 995 c 0,23,24
 421.85 1109 421.85 1109 600.05 1150 c 0,25,26
 664.85 1165 664.85 1165 723.35 1165 c 2,27,-1
 786.35 1166 l 1,28,-1
 786.35 1410 l 1,29,-1
 1068.05 1410 l 1,30,-1
 1068.05 1166 l 1,31,-1
 1141.85 1166 l 2,32,33
 1351.55 1166 1351.55 1166 1496.45 1025 c 2,34,-1
 1497.35 1024 l 2,35,36
 1504.55 1017 1504.55 1017 1510.85 1010 c 0,37,38
 1653.95 858 1653.95 858 1670.15 614 c 0,39,40
 1671.95 586 1671.95 586 1671.95 558 c 0,0,1
1374.95 558 m 0,41,42
 1374.95 698 1374.95 698 1297.55 804 c 0,43,44
 1277.75 830 1277.75 830 1255.25 851 c 0,45,46
 1199.45 901 1199.45 901 1141.85 901 c 2,47,-1
 1068.05 901 l 1,48,-1
 1068.05 216 l 1,49,-1
 1141.85 216 l 2,50,51
 1218.35 216 1218.35 216 1286.75 299 c 0,52,53
 1366.85 395 1366.85 395 1374.05 533 c 0,54,55
 1374.95 545 1374.95 545 1374.95 558 c 0,41,42
492.05 558 m 0,56,57
 492.05 417 492.05 417 568.55 311 c 0,58,59
 633.35 223 633.35 223 710.75 216 c 0,60,61
 717.05 215 717.05 215 723.35 215 c 2,62,-1
 786.35 216 l 1,63,-1
 786.35 901 l 1,64,-1
 723.35 900 l 2,65,66
 646.85 900 646.85 900 579.35 818 c 0,67,68
 500.15 721 500.15 721 492.95 582 c 0,69,70
 492.05 570 492.05 570 492.05 558 c 0,56,57
EndSplineSet
EndChar
StartChar: afii10087
Encoding: 1093 1093 225
Width: 1254
Flags: HW
Fore
475.55 573 m 1,0,-1
 111.95 1120 l 1,1,-1
 453.05 1120 l 1,2,-1
 659.15 788 l 1,3,-1
 867.95 1120 l 1,4,-1
 1209.05 1120 l 1,5,-1
 845.45 575 l 1,6,-1
 1227.05 0 l 1,7,-1
 885.95 0 l 1,8,-1
 659.15 354 l 1,9,-1
 435.05 0 l 1,10,-1
 93.9502 0 l 1,11,-1
 475.55 573 l 1,0,-1
EndSplineSet
EndChar
StartChar: afii10088
Encoding: 1094 1094 226
Width: 1593
Flags: HW
Fore
546.5 260 m 1,0,-1
 546.5 1120 l 1,1,-1
 254.9 1120 l 1,2,-1
 254.9 0 l 1,3,-1
 1219.7 0 l 1,4,-1
 1219.7 -316 l 1,5,-1
 1495.1 -316 l 1,6,-1
 1495.1 260 l 1,7,-1
 1219.7 260 l 1,8,-1
 1219.7 1120 l 1,9,-1
 926.3 1120 l 1,10,-1
 926.3 260 l 1,11,-1
 546.5 260 l 1,0,-1
EndSplineSet
EndChar
StartChar: afii10089
Encoding: 1095 1095 227
Width: 1350
Flags: HW
Fore
228.3 883 m 2,0,-1
 228.3 1120 l 1,1,-1
 550.5 1120 l 1,2,-1
 550.5 889 l 2,3,4
 550.5 723 550.5 723 612.6 659 c 0,5,6
 643.2 628 643.2 628 685.5 628 c 0,7,8
 810.6 628 810.6 628 851.1 684 c 0,9,10
 889.8 738 889.8 738 902.4 785 c 0,11,12
 917.7 841 917.7 841 917.7 926 c 2,13,-1
 917.7 1120 l 1,14,-1
 1241.7 1120 l 1,15,-1
 1241.7 2 l 1,16,-1
 917.7 2 l 1,17,-1
 917.7 496 l 1,18,19
 910.5 454 910.5 454 836.7 404 c 0,20,21
 787.2 370 787.2 370 653.1 370 c 0,22,23
 515.4 370 515.4 370 402 465 c 0,24,25
 259.8 584 259.8 584 233.7 796 c 0,26,27
 228.3 838 228.3 838 228.3 883 c 2,0,-1
EndSplineSet
EndChar
StartChar: afii10090
Encoding: 1096 1096 228
Width: 1747
Flags: HW
Fore
1595.8 0 m 1,0,-1
 260.2 0 l 1,1,-1
 260.2 1120 l 1,2,-1
 542.8 1120 l 1,3,-1
 542.8 260 l 1,4,-1
 785.8 260 l 1,5,-1
 785.8 1054 l 1,6,-1
 1068.4 1054 l 1,7,-1
 1068.4 260 l 1,8,-1
 1311.4 260 l 1,9,-1
 1311.4 1120 l 1,10,-1
 1595.8 1120 l 1,11,-1
 1595.8 0 l 1,0,-1
EndSplineSet
EndChar
StartChar: afii10091
Encoding: 1097 1097 229
Width: 1962
Flags: HW
Fore
1326.7 1120 m 1,0,-1
 1611.1 1120 l 1,1,-1
 1611.1 260 l 1,2,-1
 1886.5 261 l 1,3,-1
 1886.5 -316 l 1,4,-1
 1611.1 -316 l 1,5,-1
 1611.1 0 l 1,6,-1
 275.5 0 l 1,7,-1
 275.5 1120 l 1,8,-1
 558.1 1120 l 1,9,-1
 558.1 260 l 1,10,-1
 801.1 260 l 1,11,-1
 801.1 1054 l 1,12,-1
 1083.7 1054 l 1,13,-1
 1083.7 260 l 1,14,-1
 1326.7 260 l 1,15,-1
 1326.7 1120 l 1,0,-1
EndSplineSet
EndChar
StartChar: afii10092
Encoding: 1098 1098 230
Width: 1516
Flags: HW
Fore
1098.75 343 m 0,0,1
 1098.75 440 1098.75 440 1001.55 464 c 0,2,3
 956.55 476 956.55 476 867.45 476 c 2,4,-1
 775.65 476 l 1,5,-1
 775.65 221 l 1,6,-1
 895.35 221 l 2,7,8
 1032.15 221 1032.15 221 1072.65 265 c 0,9,-1
 1074.45 267 l 1,10,-1
 1074.45 267 l 1,11,-1
 1075.35 268 l 2,12,13
 1098.75 295 1098.75 295 1098.75 343 c 0,0,1
451.65 0 m 1,14,-1
 452.55 875 l 1,15,-1
 194.25 875 l 1,16,-1
 193.35 1120 l 1,17,-1
 775.65 1120 l 1,18,-1
 775.65 719 l 1,19,-1
 958.35 719 l 2,20,21
 1078.95 719 1078.95 719 1192.35 673 c 0,22,23
 1245.45 651 1245.45 651 1277.85 624 c 0,24,25
 1338.15 574 1338.15 574 1370.55 465 c 0,26,27
 1387.65 409 1387.65 409 1387.65 363 c 0,28,29
 1387.65 216 1387.65 216 1318.35 125 c 0,30,31
 1309.35 113 1309.35 113 1299.45 102 c 0,32,33
 1240.05 36 1240.05 36 1154.55 16 c 0,34,35
 1088.85 0 1088.85 0 979.05 0 c 2,36,-1
 451.65 0 l 1,14,-1
EndSplineSet
EndChar
StartChar: afii10093
Encoding: 1099 1099 231
Width: 1784
Flags: HW
Fore
1324.9 1120 m 1,0,-1
 1647.1 1120 l 1,1,-1
 1647.1 0 l 1,2,-1
 1324.9 0 l 1,3,-1
 1324.9 1120 l 1,0,-1
910 343 m 0,4,5
 910 440 910 440 812.8 464 c 1,6,-1
 812.8 465 l 1,7,8
 767.8 476 767.8 476 678.7 476 c 2,9,-1
 586.9 476 l 1,10,-1
 586.9 221 l 1,11,-1
 706.6 221 l 2,12,13
 843.4 221 843.4 221 883.9 265 c 2,14,-1
 884.8 266 l 2,15,16
 910 294 910 294 910 343 c 0,4,5
262.9 0 m 1,17,-1
 262.9 1120 l 1,18,-1
 586.9 1120 l 1,19,-1
 586.9 719 l 1,20,-1
 769.6 719 l 2,21,22
 890.2 719 890.2 719 1003.6 673 c 0,23,24
 1056.7 651 1056.7 651 1089.1 624 c 0,25,26
 1149.4 574 1149.4 574 1181.8 465 c 0,27,28
 1198.9 409 1198.9 409 1198.9 363 c 0,29,30
 1198.9 216 1198.9 216 1129.6 125 c 0,31,32
 1120.6 113 1120.6 113 1110.7 102 c 0,33,34
 1051.3 36 1051.3 36 965.8 16 c 0,35,36
 964.9 15 964.9 15 964 15 c 0,37,38
 899.2 0 899.2 0 790.3 0 c 2,39,-1
 262.9 0 l 1,17,-1
EndSplineSet
EndChar
StartChar: afii10094
Encoding: 1100 1100 232
Width: 1281
Flags: HW
Fore
885.1 343 m 0,0,1
 885.1 440 885.1 440 787.9 464 c 1,2,-1
 787.9 465 l 1,3,4
 742.9 476 742.9 476 653.8 476 c 2,5,-1
 562 476 l 1,6,-1
 562 221 l 1,7,-1
 681.7 221 l 2,8,9
 818.5 221 818.5 221 859 265 c 2,10,-1
 859.9 266 l 2,11,12
 885.1 294 885.1 294 885.1 343 c 0,0,1
238 0 m 1,13,-1
 238 1120 l 1,14,-1
 562 1120 l 1,15,-1
 562 719 l 1,16,-1
 744.7 719 l 2,17,18
 865.3 719 865.3 719 978.7 673 c 0,19,20
 1031.8 651 1031.8 651 1064.2 624 c 0,21,22
 1124.5 574 1124.5 574 1156.9 465 c 0,23,24
 1174 409 1174 409 1174 363 c 0,25,26
 1174 216 1174 216 1104.7 125 c 0,27,28
 1095.7 113 1095.7 113 1085.8 102 c 0,29,30
 1026.4 36 1026.4 36 940.9 16 c 0,31,32
 940 15 940 15 939.1 15 c 0,33,34
 874.3 0 874.3 0 765.4 0 c 2,35,-1
 238 0 l 1,13,-1
EndSplineSet
EndChar
StartChar: afii10095
Encoding: 1101 1101 233
Width: 1173
Flags: HW
Fore
676.55 685 m 1,0,-1
 318.35 685 l 1,1,-1
 318.35 442 l 1,2,-1
 679.25 442 l 1,3,4
 661.25 366 661.25 366 616.25 314 c 0,5,6
 541.55 227 541.55 227 406.55 227 c 0,7,8
 330.95 227 330.95 227 263.45 252 c 0,9,10
 195.05 277 195.05 277 137.45 326 c 1,11,-1
 137.45 33 l 1,12,13
 213.05 2 213.05 2 290.45 -14 c 0,14,15
 368.75 -29 368.75 -29 447.05 -29 c 0,16,17
 719.75 -29 719.75 -29 873.65 126 c 0,18,19
 1027.55 282 1027.55 282 1027.55 559 c 128,-1,20
 1027.55 836 1027.55 836 873.65 992 c 0,21,22
 719.75 1147 719.75 1147 447.05 1147 c 0,23,24
 367.85 1147 367.85 1147 290.45 1132 c 0,25,26
 213.95 1116 213.95 1116 137.45 1085 c 1,27,-1
 137.45 793 l 1,28,29
 203.15 843 203.15 843 268.85 867 c 0,30,31
 335.45 891 335.45 891 406.55 891 c 0,32,33
 541.55 891 541.55 891 616.25 804 c 0,34,35
 657.65 755 657.65 755 676.55 685 c 1,0,-1
EndSplineSet
EndChar
StartChar: afii10096
Encoding: 1102 1102 234
Width: 1911
Flags: HW
Fore
1235.35 891 m 0,0,1
 1128.25 891 1128.25 891 1072.45 806 c 0,2,3
 1015.75 720 1015.75 720 1015.75 559 c 0,4,5
 1015.75 398 1015.75 398 1072.45 312 c 0,6,7
 1128.25 227 1128.25 227 1235.35 227 c 0,8,9
 1340.65 227 1340.65 227 1396.45 312 c 0,10,11
 1452.25 398 1452.25 398 1452.25 559 c 0,12,13
 1452.25 720 1452.25 720 1396.45 806 c 0,14,15
 1340.65 891 1340.65 891 1235.35 891 c 0,0,1
579.25 690 m 1,16,-1
 689.05 690 l 1,17,18
 716.95 874 716.95 874 827.65 991 c 0,19,20
 974.35 1147 974.35 1147 1235.35 1147 c 0,21,22
 1495.45 1147 1495.45 1147 1641.25 991 c 0,23,24
 1787.95 835 1787.95 835 1787.95 559 c 0,25,26
 1787.95 283 1787.95 283 1641.25 127 c 0,27,28
 1495.45 -29 1495.45 -29 1235.35 -29 c 0,29,30
 974.35 -29 974.35 -29 827.65 127 c 0,31,32
 710.65 250 710.65 250 686.35 449 c 1,33,-1
 579.25 449 l 1,34,-1
 579.25 0 l 1,35,-1
 257.05 0 l 1,36,-1
 257.05 1120 l 1,37,-1
 579.25 1120 l 1,38,-1
 579.25 690 l 1,16,-1
EndSplineSet
EndChar
StartChar: afii10097
Encoding: 1103 1103 235
Width: 1158
Flags: HW
Fore
473.75 786 m 0,0,1
 473.75 832 473.75 832 502.55 865 c 1,2,-1
 502.55 865 l 1,3,4
 514.25 878 514.25 878 527.75 884 c 0,5,6
 572.75 905 572.75 905 686.15 905 c 2,7,-1
 755.45 905 l 1,8,-1
 755.45 681 l 1,9,-1
 670.85 681 l 2,10,11
 566.45 681 566.45 681 540.35 692 c 2,12,-1
 539.45 692 l 1,13,-1
 537.65 693 l 2,14,15
 528.65 697 528.65 697 520.55 704 c 0,16,17
 473.75 746 473.75 746 473.75 786 c 0,0,1
755.45 0 m 1,18,-1
 1047.95 0 l 1,19,-1
 1047.95 1130 l 1,20,-1
 500.75 1130 l 2,21,22
 399.05 1130 399.05 1130 312.65 1068 c 0,23,24
 284.75 1048 284.75 1048 266.75 1026 c 0,25,26
 203.75 944 203.75 944 198.35 824 c 0,27,-1
 198.35 810 l 0,28,29
 198.35 711 198.35 711 237.95 640 c 1,30,-1
 237.95 639 l 1,31,32
 242.45 631 242.45 631 247.85 624 c 0,33,34
 288.35 568 288.35 568 334.25 536 c 1,35,-1
 93.0498 0 l 1,36,-1
 374.75 0 l 1,37,-1
 568.25 461 l 1,38,39
 613.25 451 613.25 451 678.05 451 c 2,40,-1
 755.45 451 l 1,41,-1
 755.45 0 l 1,18,-1
EndSplineSet
EndChar
StartChar: afii10099
Encoding: 1106 1106 238
Width: 1392
Flags: HW
Fore
907.4 402 m 2,0,1
 907.4 551 907.4 551 902 604 c 0,2,3
 895.7 659 895.7 659 881.3 685 c 0,4,5
 862.4 720 862.4 720 830 740 c 0,6,7
 797.6 759 797.6 759 756.2 759 c 0,8,9
 655.4 759 655.4 759 597.8 672 c 0,10,11
 540.2 586 540.2 586 540.2 433 c 2,12,-1
 540.2 0 l 1,13,-1
 218 0 l 1,14,-1
 218 1208 l 1,15,-1
 32.5996 1208 l 1,16,-1
 32.5996 1464 l 1,17,-1
 218 1464 l 1,18,-1
 218 1556 l 1,19,-1
 540.2 1556 l 1,20,-1
 540.2 1464 l 1,21,-1
 847.1 1464 l 1,22,-1
 847.1 1208 l 1,23,-1
 540.2 1208 l 1,24,-1
 540.2 838 l 1,25,26
 613.1 936 613.1 936 695 982 c 0,27,28
 776.9 1029 776.9 1029 875.9 1029 c 0,29,30
 1050.5 1029 1050.5 1029 1141.4 910 c 0,31,32
 1231.4 791 1231.4 791 1231.4 564 c 2,33,-1
 1231.4 -141 l 2,34,35
 1231.4 -296 1231.4 -296 1160.3 -419 c 0,36,37
 1134.2 -465 1134.2 -465 1100 -498 c 0,38,39
 995.6 -600 995.6 -600 782.3 -600 c 2,40,-1
 714.8 -600 l 1,41,-1
 714.8 -306 l 1,42,-1
 770.6 -306 l 2,43,44
 802.1 -306 802.1 -306 845.3 -274 c 0,45,46
 857 -265 857 -265 862.4 -258 c 0,47,48
 899.3 -207 899.3 -207 904.7 -173 c 0,49,50
 907.4 -155 907.4 -155 907.4 -111 c 2,51,-1
 907.4 402 l 2,0,1
EndSplineSet
EndChar
StartChar: afii10101
Encoding: 1108 1108 240
Width: 1173
Flags: HW
Fore
488.45 685 m 1,0,-1
 846.65 685 l 1,1,-1
 846.65 442 l 1,2,-1
 485.75 442 l 1,3,4
 503.75 366 503.75 366 547.85 314 c 0,5,6
 623.45 227 623.45 227 758.45 227 c 0,7,8
 834.05 227 834.05 227 902.45 252 c 0,9,10
 969.95 277 969.95 277 1027.55 326 c 1,11,-1
 1027.55 33 l 1,12,13
 951.95 2 951.95 2 873.65 -14 c 0,14,15
 796.25 -29 796.25 -29 717.95 -29 c 0,16,17
 445.25 -29 445.25 -29 291.35 126 c 0,18,19
 137.45 282 137.45 282 137.45 559 c 128,-1,20
 137.45 836 137.45 836 291.35 992 c 0,21,22
 445.25 1147 445.25 1147 717.95 1147 c 0,23,24
 797.15 1147 797.15 1147 873.65 1132 c 0,25,26
 951.05 1116 951.05 1116 1027.55 1085 c 1,27,-1
 1027.55 793 l 1,28,29
 961.85 843 961.85 843 895.25 867 c 0,30,31
 829.55 891 829.55 891 758.45 891 c 0,32,33
 623.45 891 623.45 891 547.85 804 c 1,34,35
 507.35 755 507.35 755 488.45 685 c 1,0,-1
EndSplineSet
EndChar
StartChar: afii10102
Encoding: 1109 1109 241
Width: 1158
Flags: HW
Fore
1003.7 1085 m 1,0,-1
 1003.7 813 l 1,1,2
 900.2 861 900.2 861 803.9 885 c 128,-1,3
 707.6 909 707.6 909 622.1 909 c 0,4,5
 530.3 909 530.3 909 485.75 883.5 c 128,-1,6
 441.2 858 441.2 858 441.2 805 c 0,7,8
 441.2 762 441.2 762 475.4 739 c 0,9,10
 508.7 716 508.7 716 596 705 c 1,11,-1
 652.7 696 l 2,12,13
 900.2 661 900.2 661 985.7 581 c 0,14,15
 1071.2 501 1071.2 501 1071.2 330 c 0,16,17
 1071.2 151 1071.2 151 952.4 61 c 128,-1,18
 833.6 -29 833.6 -29 597.8 -29 c 0,19,20
 497.9 -29 497.9 -29 390.8 -12 c 0,21,22
 284.6 6 284.6 6 172.1 41 c 1,23,-1
 172.1 313 l 1,24,25
 268.4 261 268.4 261 369.2 235 c 0,26,27
 470.9 209 470.9 209 575.3 209 c 0,28,29
 669.8 209 669.8 209 717.5 238 c 0,30,31
 765.2 267 765.2 267 765.2 324 c 0,32,33
 765.2 372 765.2 372 732.8 396 c 0,34,35
 699.5 419 699.5 419 601.4 432 c 2,36,-1
 544.7 440 l 2,37,38
 329.6 470 329.6 470 243.2 551 c 0,39,40
 156.8 632 156.8 632 156.8 797 c 0,41,42
 156.8 975 156.8 975 266.6 1061 c 0,43,44
 376.4 1147 376.4 1147 603.2 1147 c 0,45,46
 692.3 1147 692.3 1147 790.4 1132 c 0,47,48
 888.5 1117 888.5 1117 1003.7 1085 c 1,0,-1
EndSplineSet
EndChar
StartChar: afii10103
Encoding: 1110 1110 242
Width: 666
Flags: HW
Fore
189.9 1120 m 1,0,-1
 512.1 1120 l 1,1,-1
 512.1 0 l 1,2,-1
 189.9 0 l 1,3,-1
 189.9 1120 l 1,0,-1
189.9 1556 m 1,4,-1
 512.1 1556 l 1,5,-1
 512.1 1264 l 1,6,-1
 189.9 1264 l 1,7,-1
 189.9 1556 l 1,4,-1
EndSplineSet
EndChar
StartChar: afii10105
Encoding: 1112 1112 244
Width: 654
Flags: HW
Fore
177.9 1120 m 1,0,-1
 500.1 1120 l 1,1,-1
 500.1 20 l 2,2,3
 500.1 -205 500.1 -205 402.9 -323.5 c 128,-1,4
 305.7 -442 305.7 -442 121.2 -442 c 2,5,-1
 -38.0996 -442 l 1,6,-1
 -38.0996 -207 l 1,7,-1
 17.7002 -207 l 2,8,9
 109.5 -207 109.5 -207 143.7 -161 c 0,10,11
 177.9 -115 177.9 -115 177.9 20 c 2,12,-1
 177.9 1120 l 1,0,-1
177.9 1556 m 1,13,-1
 500.1 1556 l 1,14,-1
 500.1 1264 l 1,15,-1
 177.9 1264 l 1,16,-1
 177.9 1556 l 1,13,-1
EndSplineSet
EndChar
StartChar: afii10106
Encoding: 1113 1113 245
Width: 2027
Flags: HW
Fore
1637.4 343 m 0,0,1
 1637.4 440 1637.4 440 1540.2 464 c 0,2,3
 1495.2 476 1495.2 476 1406.1 476 c 2,4,-1
 1314.3 476 l 1,5,-1
 1314.3 221 l 1,6,-1
 1434 221 l 2,7,8
 1570.8 221 1570.8 221 1611.3 265 c 0,9,-1
 1613.1 267 l 1,10,-1
 1613.1 267 l 1,11,-1
 1614 268 l 2,12,13
 1637.4 295 1637.4 295 1637.4 343 c 0,0,1
990.3 0 m 1,14,-1
 990.3 877 l 1,15,-1
 623.1 877 l 1,16,-1
 623.1 334 l 1,17,18
 624 167 624 167 525.9 56 c 0,19,-1
 515.1 44 l 0,20,21
 423.3 -53 423.3 -53 251.4 -64 c 0,22,23
 225.3 -66 225.3 -66 196.5 -66 c 2,24,-1
 95.7002 -65 l 1,25,-1
 95.7002 184 l 1,26,-1
 139.8 184 l 2,27,28
 205.5 184 205.5 184 238.8 209 c 0,29,30
 246.9 215 246.9 215 255.9 224 c 0,31,32
 303.6 270 303.6 270 303.6 334 c 1,33,-1
 300.9 1120 l 1,34,-1
 1314.3 1120 l 1,35,-1
 1314.3 719 l 1,36,-1
 1497 719 l 2,37,38
 1617.6 719 1617.6 719 1731 673 c 0,39,40
 1784.1 651 1784.1 651 1816.5 624 c 0,41,42
 1876.8 574 1876.8 574 1909.2 465 c 0,43,44
 1926.3 409 1926.3 409 1926.3 363 c 0,45,46
 1926.3 216 1926.3 216 1857 125 c 0,47,48
 1848 113 1848 113 1838.1 102 c 0,49,50
 1778.7 36 1778.7 36 1693.2 16 c 0,51,52
 1627.5 0 1627.5 0 1517.7 0 c 2,53,-1
 990.3 0 l 1,14,-1
EndSplineSet
EndChar
StartChar: afii10107
Encoding: 1114 1114 246
Width: 1934
Flags: HW
Fore
1598.8 343 m 0,0,1
 1598.8 440 1598.8 440 1501.6 464 c 0,2,3
 1456.6 476 1456.6 476 1367.5 476 c 2,4,-1
 1275.7 476 l 1,5,-1
 1275.7 221 l 1,6,-1
 1395.4 221 l 2,7,8
 1532.2 221 1532.2 221 1572.7 265 c 0,9,-1
 1574.5 267 l 1,10,-1
 1574.5 267 l 1,11,-1
 1575.4 268 l 2,12,13
 1598.8 295 1598.8 295 1598.8 343 c 0,0,1
951.7 0 m 1,14,-1
 951.7 476 l 1,15,-1
 584.5 476 l 1,16,-1
 584.5 0 l 1,17,-1
 262.3 0 l 1,18,-1
 262.3 1120 l 1,19,-1
 584.5 1120 l 1,20,-1
 584.5 719 l 1,21,-1
 951.7 719 l 1,22,-1
 951.7 1120 l 1,23,-1
 1275.7 1120 l 1,24,-1
 1275.7 719 l 1,25,-1
 1458.4 719 l 2,26,27
 1579 719 1579 719 1692.4 673 c 0,28,29
 1745.5 651 1745.5 651 1777.9 624 c 0,30,31
 1838.2 574 1838.2 574 1870.6 465 c 0,32,33
 1887.7 409 1887.7 409 1887.7 363 c 0,34,35
 1887.7 216 1887.7 216 1818.4 125 c 0,36,37
 1809.4 113 1809.4 113 1799.5 102 c 0,38,39
 1740.1 36 1740.1 36 1654.6 16 c 0,40,41
 1588.9 0 1588.9 0 1479.1 0 c 2,42,-1
 951.7 0 l 1,14,-1
EndSplineSet
EndChar
StartChar: afii10108
Encoding: 1115 1115 247
Width: 1375
Flags: HW
Fore
540.2 1464 m 1,0,-1
 847.1 1464 l 1,1,-1
 847.1 1208 l 1,2,-1
 540.2 1208 l 1,3,-1
 540.2 838 l 1,4,5
 613.1 936 613.1 936 695 982 c 0,6,7
 776.9 1029 776.9 1029 875.9 1029 c 0,8,9
 1050.5 1029 1050.5 1029 1141.4 910 c 0,10,11
 1231.4 791 1231.4 791 1231.4 564 c 2,12,-1
 1231.4 0 l 1,13,-1
 907.4 0 l 1,14,-1
 907.4 111 l 1,15,-1
 907.4 402 l 2,16,17
 907.4 549 907.4 549 902 604 c 0,18,19
 895.7 659 895.7 659 881.3 685 c 0,20,21
 862.4 720 862.4 720 830 740 c 0,22,23
 797.6 759 797.6 759 756.2 759 c 0,24,25
 655.4 759 655.4 759 597.8 672 c 0,26,27
 540.2 586 540.2 586 540.2 433 c 2,28,-1
 540.2 0 l 1,29,-1
 218 0 l 1,30,-1
 218 1208 l 1,31,-1
 32.5996 1208 l 1,32,-1
 32.5996 1464 l 1,33,-1
 218 1464 l 1,34,-1
 218 1556 l 1,35,-1
 540.2 1556 l 1,36,-1
 540.2 1464 l 1,0,-1
EndSplineSet
EndChar
StartChar: afii10193
Encoding: 1119 1119 251
Width: 1365
Flags: HW
Fore
896.1 0 m 1,0,-1
 896.1 -242 l 1,1,-1
 573.9 -242 l 1,2,-1
 573.9 0 l 1,3,-1
 228.3 0 l 1,4,-1
 228.3 1120 l 1,5,-1
 550.5 1120 l 1,6,-1
 550.5 243 l 1,7,-1
 917.7 243 l 1,8,-1
 917.7 1120 l 1,9,-1
 1241.7 1120 l 1,10,-1
 1241.7 0 l 1,11,-1
 896.1 0 l 1,0,-1
EndSplineSet
EndChar
StartChar: uni2010
Encoding: 8208 8208 237
Width: 807
Flags: HW
Fore
142.4 735 m 1,0,-1
 707.6 735 l 1,1,-1
 707.6 444 l 1,2,-1
 142.4 444 l 1,3,-1
 142.4 735 l 1,0,-1
EndSplineSet
KernsSLIF: 356 -301 0 0 221 -301 0 0 376 -301 0 0 89 -301 0 0 88 -167 0 0 87 -92 0 0 86 -149 0 0 84 -301 0 0
EndChar
StartChar: figuredash
Encoding: 8210 8210 239
Width: 972
Flags: HW
Fore
51.2002 690 m 1,0,-1
 972.8 690 l 1,1,-1
 972.8 432 l 1,2,-1
 51.2002 432 l 1,3,-1
 51.2002 690 l 1,0,-1
EndSplineSet
EndChar
StartChar: endash
Encoding: 8211 8211 178
Width: 972
Flags: HW
Fore
51.2002 690 m 1,0,-1
 972.8 690 l 1,1,-1
 972.8 432 l 1,2,-1
 51.2002 432 l 1,3,-1
 51.2002 690 l 1,0,-1
EndSplineSet
EndChar
StartChar: emdash
Encoding: 8212 8212 179
Width: 1945
Flags: HW
Fore
102.4 690 m 1,0,-1
 1945.6 690 l 1,1,-1
 1945.6 432 l 1,2,-1
 102.4 432 l 1,3,-1
 102.4 690 l 1,0,-1
EndSplineSet
EndChar
StartChar: afii00208
Encoding: 8213 8213 180
Width: 1945
Flags: HW
Fore
102.4 690 m 1,0,-1
 1945.6 690 l 1,1,-1
 1945.6 432 l 1,2,-1
 102.4 432 l 1,3,-1
 102.4 690 l 1,0,-1
EndSplineSet
EndChar
StartChar: quoteleft
Encoding: 8216 8216 182
Width: 743
Flags: HW
Fore
539 856 m 1,0,-1
 233 856 l 1,1,-1
 233 1141 l 1,2,-1
 437.3 1493 l 1,3,-1
 629 1493 l 1,4,-1
 539 1141 l 1,5,-1
 539 856 l 1,0,-1
EndSplineSet
KernsSLIF: 221 75 0 0 193 -235 0 0 194 -235 0 0 376 75 0 0 195 -235 0 0 192 -235 0 0 198 -264 0 0 196 -235 0 0 89 75 0 0 86 38 0 0 74 -92 0 0 65 -235 0 0
EndChar
StartChar: quoteright
Encoding: 8217 8217 183
Width: 735
Flags: HW
Fore
241 1493 m 1,0,-1
 547 1493 l 1,1,-1
 547 1208 l 1,2,-1
 342.7 856 l 1,3,-1
 151 856 l 1,4,-1
 241 1208 l 1,5,-1
 241 1493 l 1,0,-1
EndSplineSet
EndChar
StartChar: quotesinglbase
Encoding: 8218 8218 196
Width: 736
Flags: HW
Fore
259.95 387 m 1,0,-1
 565.95 387 l 1,1,-1
 565.95 102 l 1,2,-1
 358.95 -250 l 1,3,-1
 169.05 -250 l 1,4,-1
 259.95 102 l 1,5,-1
 259.95 387 l 1,0,-1
EndSplineSet
KernsSLIF: 356 -415 0 0 221 -358 0 0 376 -358 0 0 89 -358 0 0 87 -215 0 0 86 -282 0 0 84 -415 0 0
EndChar
StartChar: quotedblleft
Encoding: 8220 8220 180
Width: 1279
Flags: HW
Fore
1019.7 856 m 1,0,-1
 713.7 856 l 1,1,-1
 713.7 1139 l 1,2,-1
 918 1493 l 1,3,-1
 1109.7 1493 l 1,4,-1
 1019.7 1139 l 1,5,-1
 1019.7 856 l 1,0,-1
564.3 856 m 1,6,-1
 258.3 856 l 1,7,-1
 258.3 1141 l 1,8,-1
 462.6 1493 l 1,9,-1
 654.3 1493 l 1,10,-1
 564.3 1141 l 1,11,-1
 564.3 856 l 1,6,-1
EndSplineSet
KernsSLIF: 221 38 0 0 193 -264 0 0 194 -264 0 0 376 38 0 0 195 -264 0 0 192 -264 0 0 198 -301 0 0 196 -264 0 0 89 38 0 0 74 -92 0 0 65 -264 0 0
EndChar
StartChar: quotedblright
Encoding: 8221 8221 181
Width: 1277
Flags: HW
Fore
326.25 1493 m 1,0,-1
 632.25 1493 l 1,1,-1
 632.25 1208 l 1,2,-1
 427.05 856 l 1,3,-1
 235.35 856 l 1,4,-1
 326.25 1208 l 1,5,-1
 326.25 1493 l 1,0,-1
781.65 1493 m 1,6,-1
 1087.65 1493 l 1,7,-1
 1087.65 1206 l 1,8,-1
 882.45 856 l 1,9,-1
 690.75 856 l 1,10,-1
 781.65 1206 l 1,11,-1
 781.65 1493 l 1,6,-1
EndSplineSet
EndChar
StartChar: quotedblbase
Encoding: 8222 8222 197
Width: 1273
Flags: HW
Fore
285.25 387 m 1,0,-1
 591.25 387 l 1,1,-1
 591.25 102 l 1,2,-1
 384.25 -250 l 1,3,-1
 194.35 -250 l 1,4,-1
 285.25 102 l 1,5,-1
 285.25 387 l 1,0,-1
740.65 387 m 1,6,-1
 1046.65 387 l 1,7,-1
 1046.65 100 l 1,8,-1
 841.45 -250 l 1,9,-1
 649.75 -250 l 1,10,-1
 740.65 100 l 1,11,-1
 740.65 387 l 1,6,-1
EndSplineSet
KernsSLIF: 356 -415 0 0 221 -358 0 0 376 -358 0 0 89 -358 0 0 87 -215 0 0 86 -282 0 0 84 -415 0 0
EndChar
StartChar: dagger
Encoding: 8224 8224 130
Width: 972
Flags: HW
Fore
358.6 1493 m 1,0,-1
 655.6 1493 l 1,1,-1
 655.6 1112 l 1,2,-1
 917.5 1112 l 1,3,-1
 917.5 874 l 1,4,-1
 655.6 874 l 1,5,-1
 655.6 -197 l 1,6,-1
 358.6 -197 l 1,7,-1
 358.6 874 l 1,8,-1
 98.5 874 l 1,9,-1
 98.5 1112 l 1,10,-1
 358.6 1112 l 1,11,-1
 358.6 1493 l 1,0,-1
EndSplineSet
EndChar
StartChar: daggerdbl
Encoding: 8225 8225 194
Width: 972
Flags: HW
Fore
358.5 1493 m 1,0,-1
 655.5 1493 l 1,1,-1
 655.5 1112 l 1,2,-1
 917.4 1112 l 1,3,-1
 917.4 874 l 1,4,-1
 655.5 874 l 1,5,-1
 655.5 422 l 1,6,-1
 917.4 422 l 1,7,-1
 917.4 184 l 1,8,-1
 655.5 184 l 1,9,-1
 655.5 -197 l 1,10,-1
 358.5 -197 l 1,11,-1
 358.5 184 l 1,12,-1
 96.5996 184 l 1,13,-1
 96.5996 422 l 1,14,-1
 358.5 422 l 1,15,-1
 358.5 874 l 1,16,-1
 98.4004 874 l 1,17,-1
 98.4004 1112 l 1,18,-1
 358.5 1112 l 1,19,-1
 358.5 1493 l 1,0,-1
EndSplineSet
EndChar
StartChar: bullet
Encoding: 8226 8226 135
Width: 1243
Flags: HW
Fore
330.95 762 m 0,0,1
 330.95 836 330.95 836 354.8 901 c 128,-1,2
 378.65 966 378.65 966 424.55 1016 c 0,3,4
 472.25 1067 472.25 1067 530.75 1093.5 c 128,-1,5
 589.25 1120 589.25 1120 654.95 1120 c 0,6,7
 720.65 1120 720.65 1120 779.6 1093 c 128,-1,8
 838.55 1066 838.55 1066 883.55 1016 c 0,9,10
 930.35 964 930.35 964 954.2 899.5 c 128,-1,11
 978.05 835 978.05 835 978.05 762 c 0,12,13
 978.05 688 978.05 688 953.75 622.5 c 128,-1,14
 929.45 557 929.45 557 883.55 506 c 0,15,16
 837.65 455 837.65 455 778.7 428 c 128,-1,17
 719.75 401 719.75 401 653.15 401 c 0,18,19
 587.45 401 587.45 401 528.95 428 c 128,-1,20
 470.45 455 470.45 455 424.55 506 c 0,21,22
 379.55 557 379.55 557 355.25 622.5 c 128,-1,23
 330.95 688 330.95 688 330.95 762 c 0,0,1
EndSplineSet
EndChar
StartChar: ellipsis
Encoding: 8230 8230 171
Width: 1945
Flags: HW
Fore
1475.8 387 m 1,0,-1
 1799.8 387 l 1,1,-1
 1799.8 0 l 1,2,-1
 1475.8 0 l 1,3,-1
 1475.8 387 l 1,0,-1
248.2 387 m 1,4,-1
 572.2 387 l 1,5,-1
 572.2 0 l 1,6,-1
 248.2 0 l 1,7,-1
 248.2 387 l 1,4,-1
862 387 m 1,8,-1
 1186 387 l 1,9,-1
 1186 0 l 1,10,-1
 862 0 l 1,11,-1
 862 387 l 1,8,-1
EndSplineSet
Ligature: 0 1 'liga' period period period
EndChar
StartChar: perthousand
Encoding: 8240 8240 198
Width: 2802
Flags: HW
Fore
2401.1 616 m 0,0,1
 2336.3 616 2336.3 616 2301.2 554.5 c 128,-1,2
 2266.1 493 2266.1 493 2266.1 379 c 0,3,4
 2266.1 264 2266.1 264 2301.2 202.5 c 128,-1,5
 2336.3 141 2336.3 141 2401.1 141 c 0,6,7
 2465 141 2465 141 2499.2 202.5 c 128,-1,8
 2533.4 264 2533.4 264 2533.4 379 c 0,9,10
 2533.4 493 2533.4 493 2499.2 554.5 c 128,-1,11
 2465 616 2465 616 2401.1 616 c 0,0,1
2401.1 784 m 0,12,13
 2568.5 784 2568.5 784 2664.35 676 c 128,-1,14
 2760.2 568 2760.2 568 2760.2 379 c 0,15,16
 2760.2 190 2760.2 190 2663.9 80.5 c 128,-1,17
 2567.6 -29 2567.6 -29 2401.1 -29 c 0,18,19
 2233.7 -29 2233.7 -29 2136.5 80.5 c 128,-1,20
 2039.3 190 2039.3 190 2039.3 379 c 0,21,22
 2039.3 567 2039.3 567 2136.05 675.5 c 128,-1,23
 2232.8 784 2232.8 784 2401.1 784 c 0,12,13
566.9 1352 m 0,24,25
 502.1 1352 502.1 1352 467 1290 c 128,-1,26
 431.9 1228 431.9 1228 431.9 1114 c 0,27,28
 431.9 999 431.9 999 467 936.5 c 128,-1,29
 502.1 874 502.1 874 566.9 874 c 0,30,31
 631.7 874 631.7 874 666.35 936.5 c 128,-1,32
 701 999 701 999 701 1114 c 0,33,34
 701 1228 701 1228 665.9 1290 c 128,-1,35
 630.8 1352 630.8 1352 566.9 1352 c 0,24,25
566.9 1520 m 0,36,37
 734.3 1520 734.3 1520 830.15 1411.5 c 128,-1,38
 926 1303 926 1303 926 1114 c 0,39,40
 926 925 926 925 830.15 816 c 128,-1,41
 734.3 707 734.3 707 566.9 707 c 0,42,43
 399.5 707 399.5 707 303.65 816 c 128,-1,44
 207.8 925 207.8 925 207.8 1114 c 0,45,46
 207.8 1303 207.8 1303 303.65 1411.5 c 128,-1,47
 399.5 1520 399.5 1520 566.9 1520 c 0,36,37
751.4 -29 m 1,48,-1
 552.5 -29 l 1,49,-1
 1392.2 1520 l 1,50,-1
 1592 1520 l 1,51,-1
 751.4 -29 l 1,48,-1
1576.7 784 m 0,52,53
 1744.1 784 1744.1 784 1840.4 676 c 128,-1,54
 1936.7 568 1936.7 568 1936.7 379 c 0,55,56
 1936.7 190 1936.7 190 1840.4 80.5 c 128,-1,57
 1744.1 -29 1744.1 -29 1576.7 -29 c 0,58,59
 1409.3 -29 1409.3 -29 1312.55 80.5 c 128,-1,60
 1215.8 190 1215.8 190 1215.8 379 c 0,61,62
 1215.8 567 1215.8 567 1312.55 675.5 c 128,-1,63
 1409.3 784 1409.3 784 1576.7 784 c 0,52,53
1576.7 616 m 0,64,65
 1512.8 616 1512.8 616 1477.7 554.5 c 128,-1,66
 1442.6 493 1442.6 493 1442.6 379 c 0,67,68
 1442.6 264 1442.6 264 1477.25 202.5 c 128,-1,69
 1511.9 141 1511.9 141 1576.7 141 c 0,70,71
 1641.5 141 1641.5 141 1675.7 202.5 c 128,-1,72
 1709.9 264 1709.9 264 1709.9 379 c 0,73,74
 1709.9 493 1709.9 493 1675.25 554.5 c 128,-1,75
 1640.6 616 1640.6 616 1576.7 616 c 0,64,65
EndSplineSet
EndChar
StartChar: guilsinglleft
Encoding: 8249 8249 190
Width: 800
Flags: HW
Fore
626.35 1063 m 1,0,-1
 626.35 821 l 1,1,-1
 362.65 600 l 1,2,-1
 626.35 379 l 1,3,-1
 626.35 137 l 1,4,-1
 182.65 506 l 1,5,-1
 182.65 692 l 1,6,-1
 626.35 1063 l 1,0,-1
EndSplineSet
EndChar
StartChar: guilsinglright
Encoding: 8250 8250 191
Width: 803
Flags: HW
Fore
217.65 1063 m 1,0,-1
 661.35 692 l 1,1,-1
 661.35 506 l 1,2,-1
 217.65 137 l 1,3,-1
 217.65 379 l 1,4,-1
 480.45 600 l 1,5,-1
 217.65 821 l 1,6,-1
 217.65 1063 l 1,0,-1
EndSplineSet
EndChar
StartChar: Euro
Encoding: 8364 8364 258
Width: 1344
Flags: HW
Fore
1221.65 82 m 1,0,1
 1136.15 27 1136.15 27 1043 -1 c 128,-1,2
 949.85 -29 949.85 -29 849.05 -29 c 0,3,4
 613.25 -29 613.25 -29 451.7 101.5 c 128,-1,5
 290.15 232 290.15 232 222.65 477 c 1,6,-1
 27.3496 477 l 1,7,-1
 106.55 672 l 1,8,-1
 194.75 672 l 1,9,10
 193.85 686 193.85 686 193.4 701.5 c 128,-1,11
 192.95 717 192.95 717 192.95 745 c 0,12,13
 192.95 774 192.95 774 193.4 790 c 128,-1,14
 193.85 806 193.85 806 194.75 821 c 1,15,-1
 27.3496 821 l 1,16,-1
 106.55 1016 l 1,17,-1
 222.65 1016 l 1,18,19
 291.95 1262 291.95 1262 452.6 1391 c 128,-1,20
 613.25 1520 613.25 1520 849.05 1520 c 0,21,22
 949.85 1520 949.85 1520 1043 1492 c 128,-1,23
 1136.15 1464 1136.15 1464 1221.65 1409 c 1,24,-1
 1221.65 1100 l 1,25,26
 1148.75 1178 1148.75 1178 1065.95 1217.5 c 128,-1,27
 983.15 1257 983.15 1257 894.05 1257 c 0,28,29
 779.75 1257 779.75 1257 699.2 1195.5 c 128,-1,30
 618.65 1134 618.65 1134 578.15 1016 c 1,31,-1
 1063.25 1016 l 1,32,-1
 985.85 821 l 1,33,-1
 542.15 821 l 1,34,35
 540.35 805 540.35 805 539.9 787 c 128,-1,36
 539.45 769 539.45 769 539.45 733 c 0,37,38
 539.45 720 539.45 720 539.9 704.5 c 128,-1,39
 540.35 689 540.35 689 541.25 672 c 1,40,-1
 927.35 672 l 1,41,-1
 847.25 477 l 1,42,-1
 578.15 477 l 1,43,44
 623.15 355 623.15 355 701.9 294 c 128,-1,45
 780.65 233 780.65 233 894.05 233 c 0,46,47
 983.15 233 983.15 233 1064.6 272.5 c 128,-1,48
 1146.05 312 1146.05 312 1221.65 391 c 1,49,-1
 1221.65 82 l 1,0,1
EndSplineSet
EndChar
StartChar: trademark
Encoding: 8482 8482 140
Width: 1938
Flags: HW
Fore
1133.35 1493 m 1,0,-1
 1240.45 1266 l 1,1,-1
 1347.55 1493 l 1,2,-1
 1551.85 1493 l 1,3,-1
 1551.85 915 l 1,4,-1
 1398.85 915 l 1,5,-1
 1398.85 1352 l 1,6,-1
 1275.55 1096 l 1,7,-1
 1207.15 1096 l 1,8,-1
 1083.85 1352 l 1,9,-1
 1083.85 915 l 1,10,-1
 929.05 915 l 1,11,-1
 929.05 1493 l 1,12,-1
 1133.35 1493 l 1,0,-1
827.35 1493 m 1,13,-1
 827.35 1350 l 1,14,-1
 670.75 1350 l 1,15,-1
 670.75 915 l 1,16,-1
 515.95 915 l 1,17,-1
 515.95 1350 l 1,18,-1
 361.15 1350 l 1,19,-1
 361.15 1493 l 1,20,-1
 827.35 1493 l 1,13,-1
EndSplineSet
Ligature: 0 1 'liga' T M
EndChar
StartChar: partialdiff
Encoding: 8706 8706 152
Width: 1058
Flags: HW
Fore
745.1 684 m 1,0,1
 764 797 764 797 773.9 890 c 128,-1,2
 783.8 983 783.8 983 783.8 1040 c 0,3,4
 783.8 1127 783.8 1127 757.25 1188 c 128,-1,5
 730.7 1249 730.7 1249 695.6 1249 c 0,6,7
 664.1 1249 664.1 1249 576.8 1156 c 128,-1,8
 489.5 1063 489.5 1063 414.8 1063 c 0,9,10
 371.6 1063 371.6 1063 342.8 1096.5 c 128,-1,11
 314 1130 314 1130 314 1180 c 0,12,13
 314 1249 314 1249 397.7 1305.5 c 128,-1,14
 481.4 1362 481.4 1362 595.7 1362 c 0,15,16
 784.7 1362 784.7 1362 894.95 1201 c 128,-1,17
 1005.2 1040 1005.2 1040 1005.2 760 c 0,18,19
 1005.2 416 1005.2 416 858.95 195.5 c 128,-1,20
 712.7 -25 712.7 -25 483.2 -25 c 0,21,22
 319.4 -25 319.4 -25 214.1 91.5 c 128,-1,23
 108.8 208 108.8 208 108.8 391 c 0,24,25
 108.8 594 108.8 594 216.35 727 c 128,-1,26
 323.9 860 323.9 860 485 860 c 0,27,28
 575.9 860 575.9 860 638.45 817.5 c 128,-1,29
 701 775 701 775 745.1 684 c 1,0,1
683.9 532 m 0,30,31
 683.9 646 683.9 646 651.05 708 c 128,-1,32
 618.2 770 618.2 770 557 770 c 0,33,34
 470.6 770 470.6 770 412.55 633.5 c 128,-1,35
 354.5 497 354.5 497 354.5 287 c 0,36,37
 354.5 171 354.5 171 387.35 111 c 128,-1,38
 420.2 51 420.2 51 483.2 51 c 0,39,40
 570.5 51 570.5 51 627.2 186.5 c 128,-1,41
 683.9 322 683.9 322 683.9 532 c 0,30,31
EndSplineSet
EndChar
StartChar: Delta
Encoding: 8710 8710 168
Width: 1355
Flags: HW
Fore
713.05 1110 m 1,0,-1
 419.65 256 l 1,1,-1
 1007.35 256 l 1,2,-1
 713.05 1110 l 1,0,-1
578.05 1473 m 1,3,-1
 848.95 1473 l 1,4,-1
 1355.65 0 l 1,5,-1
 71.3496 0 l 1,6,-1
 578.05 1473 l 1,3,-1
EndSplineSet
EndChar
StartChar: product
Encoding: 8719 8719 154
Width: 1531
Flags: HW
Fore
215.4 1473 m 1,0,-1
 1392.6 1473 l 1,1,-1
 1392.6 -393 l 1,2,-1
 1083 -393 l 1,3,-1
 1083 1184 l 1,4,-1
 525 1184 l 1,5,-1
 525 -393 l 1,6,-1
 215.4 -393 l 1,7,-1
 215.4 1473 l 1,0,-1
EndSplineSet
EndChar
StartChar: summation
Encoding: 8721 8721 153
Width: 1396
Flags: HW
Fore
132.8 1473 m 1,0,-1
 1310 1473 l 1,1,-1
 1310 1208 l 1,2,-1
 519.8 1208 l 1,3,-1
 1077.8 563 l 1,4,-1
 518 -127 l 1,5,-1
 1357.7 -127 l 1,6,-1
 1357.7 -393 l 1,7,-1
 110.3 -393 l 1,8,-1
 110.3 -221 l 1,9,-1
 738.5 551 l 1,10,-1
 132.8 1241 l 1,11,-1
 132.8 1473 l 1,0,-1
EndSplineSet
EndChar
StartChar: minus
Encoding: 8722 8722 238
Width: 1630
Flags: HW
Fore
281.1 760 m 1,0,-1
 1434.9 760 l 1,1,-1
 1434.9 524 l 1,2,-1
 281.1 524 l 1,3,-1
 281.1 760 l 1,0,-1
EndSplineSet
EndChar
StartChar: fraction
Encoding: 8725 8725 188
Width: 324
Flags: HW
Fore
-148.5 -29 m 1,0,-1
 -350.1 -29 l 1,1,-1
 490.5 1520 l 1,2,-1
 692.1 1520 l 1,3,-1
 -148.5 -29 l 1,0,-1
EndSplineSet
EndChar
StartChar: periodcentered
Encoding: 8729 8729 257
Width: 739
Flags: HW
Fore
227 905 m 1,0,-1
 551 905 l 1,1,-1
 551 518 l 1,2,-1
 227 518 l 1,3,-1
 227 905 l 1,0,-1
EndSplineSet
EndChar
StartChar: radical
Encoding: 8730 8730 165
Width: 1301
Flags: HW
Fore
1111.8 1714 m 1,0,-1
 1305.3 1714 l 1,1,-1
 1305.3 1565 l 1,2,-1
 1218.9 1565 l 1,3,-1
 687.9 -41 l 1,4,-1
 580.8 -41 l 1,5,-1
 304.5 805 l 1,6,-1
 174 750 l 1,7,-1
 140.7 879 l 1,8,-1
 464.7 1006 l 1,9,-1
 665.4 371 l 1,10,-1
 1111.8 1714 l 1,0,-1
EndSplineSet
EndChar
StartChar: infinity
Encoding: 8734 8734 146
Width: 1620
Flags: HW
Fore
945.8 561 m 1,0,1
 984.5 494 984.5 494 1037.6 460 c 128,-1,2
 1090.7 426 1090.7 426 1156.4 426 c 0,3,4
 1237.4 426 1237.4 426 1288.25 476.5 c 128,-1,5
 1339.1 527 1339.1 527 1339.1 606 c 0,6,7
 1339.1 683 1339.1 683 1292.75 733.5 c 128,-1,8
 1246.4 784 1246.4 784 1178 784 c 0,9,10
 1113.2 784 1113.2 784 1059.65 733.5 c 128,-1,11
 1006.1 683 1006.1 683 945.8 561 c 1,0,1
762.2 657 m 1,12,13
 723.5 724 723.5 724 671.3 757.5 c 128,-1,14
 619.1 791 619.1 791 551.6 791 c 0,15,16
 470.6 791 470.6 791 419.75 741 c 128,-1,17
 368.9 691 368.9 691 368.9 612 c 0,18,19
 368.9 535 368.9 535 414.8 484.5 c 128,-1,20
 460.7 434 460.7 434 530 434 c 0,21,22
 593.9 434 593.9 434 648.8 486.5 c 128,-1,23
 703.7 539 703.7 539 762.2 657 c 1,12,13
855.8 442 m 1,24,25
 794.6 312 794.6 312 723.05 249 c 128,-1,26
 651.5 186 651.5 186 564.2 186 c 0,27,28
 439.1 186 439.1 186 350 307.5 c 128,-1,29
 260.9 429 260.9 429 260.9 608 c 0,30,31
 260.9 796 260.9 796 339.65 913 c 128,-1,32
 418.4 1030 418.4 1030 544.4 1030 c 0,33,34
 625.4 1030 625.4 1030 694.25 973.5 c 128,-1,35
 763.1 917 763.1 917 852.2 774 c 1,36,37
 916.1 906 916.1 906 987.2 969 c 128,-1,38
 1058.3 1032 1058.3 1032 1143.8 1032 c 0,39,40
 1269.8 1032 1269.8 1032 1358.45 911 c 128,-1,41
 1447.1 790 1447.1 790 1447.1 610 c 0,42,43
 1447.1 421 1447.1 421 1368.35 303.5 c 128,-1,44
 1289.6 186 1289.6 186 1163.6 186 c 0,45,46
 1081.7 186 1081.7 186 1014.2 241 c 128,-1,47
 946.7 296 946.7 296 855.8 442 c 1,24,25
EndSplineSet
EndChar
StartChar: integral
Encoding: 8747 8747 156
Width: 1186
Flags: HW
Fore
388.35 -248 m 0,0,1
 477.45 -248 477.45 -248 495.45 419 c 0,2,3
 498.15 520 498.15 520 499.05 573 c 0,4,5
 514.35 1096 514.35 1096 616.5 1326 c 128,-1,6
 718.65 1556 718.65 1556 931.05 1556 c 0,7,8
 1025.55 1556 1025.55 1556 1084.05 1503 c 128,-1,9
 1142.55 1450 1142.55 1450 1142.55 1366 c 0,10,11
 1142.55 1302 1142.55 1302 1105.65 1262.5 c 128,-1,12
 1068.75 1223 1068.75 1223 1010.25 1223 c 0,13,14
 952.65 1223 952.65 1223 923.4 1261.5 c 128,-1,15
 894.15 1300 894.15 1300 894.15 1374 c 0,16,17
 894.15 1412 894.15 1412 887.4 1423 c 128,-1,18
 880.65 1434 880.65 1434 864.45 1434 c 0,19,20
 773.55 1434 773.55 1434 752.85 767 c 0,21,22
 751.05 707 751.05 707 750.15 676 c 0,23,24
 740.25 347 740.25 347 722.7 203.5 c 128,-1,25
 705.15 60 705.15 60 670.95 -41 c 0,26,27
 615.15 -207 615.15 -207 527.4 -290 c 128,-1,28
 439.65 -373 439.65 -373 320.85 -373 c 0,29,30
 224.55 -373 224.55 -373 166.5 -321 c 128,-1,31
 108.45 -269 108.45 -269 108.45 -182 c 0,32,33
 108.45 -117 108.45 -117 146.25 -78 c 128,-1,34
 184.05 -39 184.05 -39 247.05 -39 c 0,35,36
 301.05 -39 301.05 -39 330.3 -75 c 128,-1,37
 359.55 -111 359.55 -111 359.55 -178 c 0,38,39
 359.55 -190 359.55 -190 357.75 -202 c 0,40,41
 357.75 -204 357.75 -204 357.75 -205 c 0,42,43
 357.75 -229 357.75 -229 364.95 -238.5 c 128,-1,44
 372.15 -248 372.15 -248 388.35 -248 c 0,0,1
EndSplineSet
EndChar
StartChar: approxequal
Encoding: 8776 8776 167
Width: 1630
Flags: HW
Fore
1434.9 1059 m 1,0,-1
 1434.9 815 l 1,1,2
 1339.5 735 1339.5 735 1258.95 700.5 c 128,-1,3
 1178.4 666 1178.4 666 1092 666 c 0,4,5
 995.7 666 995.7 666 867 724 c 0,6,7
 854.4 730 854.4 730 847.2 733 c 0,8,9
 840.9 736 840.9 736 827.4 742 c 0,10,11
 687.9 803 687.9 803 603.3 803 c 0,12,13
 524.1 803 524.1 803 446.7 764.5 c 128,-1,14
 369.3 726 369.3 726 281.1 643 c 1,15,-1
 281.1 887 l 1,16,17
 375.6 965 375.6 965 456.15 999.5 c 128,-1,18
 536.7 1034 536.7 1034 624 1034 c 0,19,20
 723 1034 723 1034 855.3 975 c 0,21,22
 864.3 971 864.3 971 868.8 969 c 0,23,24
 876 966 876 966 888.6 960 c 0,25,26
 1028.1 899 1028.1 899 1112.7 899 c 0,27,28
 1190.1 899 1190.1 899 1266.15 936.5 c 128,-1,29
 1342.2 974 1342.2 974 1434.9 1059 c 1,0,-1
1434.9 641 m 1,30,-1
 1434.9 397 l 1,31,32
 1339.5 317 1339.5 317 1258.95 282.5 c 128,-1,33
 1178.4 248 1178.4 248 1092 248 c 0,34,35
 995.7 248 995.7 248 867 306 c 0,36,37
 854.4 312 854.4 312 846.3 316 c 0,38,39
 840.9 318 840.9 318 827.4 324 c 0,40,41
 687.9 385 687.9 385 603.3 385 c 0,42,43
 524.1 385 524.1 385 446.7 347 c 128,-1,44
 369.3 309 369.3 309 281.1 225 c 1,45,-1
 281.1 469 l 1,46,47
 377.4 549 377.4 549 457.5 583.5 c 128,-1,48
 537.6 618 537.6 618 624 618 c 0,49,50
 720.3 618 720.3 618 849 560 c 0,51,52
 862.5 554 862.5 554 868.8 551 c 0,53,54
 876 548 876 548 888.6 543 c 0,55,56
 1028.1 481 1028.1 481 1112.7 481 c 0,57,58
 1190.1 481 1190.1 481 1266.15 518.5 c 128,-1,59
 1342.2 556 1342.2 556 1434.9 641 c 1,30,-1
EndSplineSet
EndChar
StartChar: notequal
Encoding: 8800 8800 143
Width: 1630
Flags: HW
Fore
281.1 987 m 1,0,-1
 993 987 l 1,1,-1
 1219.8 1292 l 1,2,-1
 1353.9 1167 l 1,3,-1
 1223.4 987 l 1,4,-1
 1434.9 987 l 1,5,-1
 1434.9 752 l 1,6,-1
 1058.7 752 l 1,7,-1
 902.1 532 l 1,8,-1
 1434.9 532 l 1,9,-1
 1434.9 295 l 1,10,-1
 723.9 295 l 1,11,-1
 497.1 -10 l 1,12,-1
 362.1 117 l 1,13,-1
 493.5 295 l 1,14,-1
 281.1 295 l 1,15,-1
 281.1 532 l 1,16,-1
 662.7 532 l 1,17,-1
 821.1 752 l 1,18,-1
 281.1 752 l 1,19,-1
 281.1 987 l 1,0,-1
EndSplineSet
Ligature: 0 1 'liga' equal uni0338
EndChar
StartChar: lessequal
Encoding: 8804 8804 148
Width: 1630
Flags: HW
Fore
1434.9 238 m 1,0,-1
 1434.9 0 l 1,1,-1
 281.1 0 l 1,2,-1
 281.1 238 l 1,3,-1
 1434.9 238 l 1,0,-1
1434.9 948 m 1,4,-1
 627.6 739 l 1,5,-1
 1434.9 530 l 1,6,-1
 1434.9 287 l 1,7,-1
 281.1 623 l 1,8,-1
 281.1 858 l 1,9,-1
 1434.9 1192 l 1,10,-1
 1434.9 948 l 1,4,-1
EndSplineSet
EndChar
StartChar: greaterequal
Encoding: 8805 8805 149
Width: 1630
Flags: HW
Fore
281.1 238 m 1,0,-1
 1434.9 238 l 1,1,-1
 1434.9 0 l 1,2,-1
 281.1 0 l 1,3,-1
 281.1 238 l 1,0,-1
281.1 948 m 1,4,-1
 281.1 1192 l 1,5,-1
 1434.9 858 l 1,6,-1
 1434.9 623 l 1,7,-1
 281.1 287 l 1,8,-1
 281.1 530 l 1,9,-1
 1088.4 739 l 1,10,-1
 281.1 948 l 1,4,-1
EndSplineSet
EndChar
